M48
;DRILL file {KiCad (5.0.2)-1} date 2019/03/26 18:35:30
;FORMAT={-:-/ absolute / metric / decimal}
FMAT,2
METRIC,TZ
T1C1.200
T2C1.700
T3C1.900
T4C4.000
T5C4.800
%
G90
G05
T1
X166.23Y-129.15
X176.67Y-129.15
X87.193Y-141.539
X97.004Y-137.968
X204.33Y-121.53
X214.77Y-121.53
X185.28Y-121.53
X195.72Y-121.53
X128.13Y-110.1
X138.57Y-110.1
X128.13Y-129.15
X138.57Y-129.15
X185.28Y-83.43
X195.72Y-83.43
X83.934Y-100.33
X83.934Y-102.08
X90.934Y-100.33
X90.934Y-102.08
X128.13Y-91.05
X138.57Y-91.05
X204.33Y-64.38
X214.77Y-64.38
X147.18Y-85.97
X157.62Y-85.97
X185.28Y-64.38
X195.72Y-64.38
X166.23Y-72.
X176.67Y-72.
X105.094Y-135.023
X114.905Y-131.453
X166.23Y-110.1
X176.67Y-110.1
X166.23Y-91.05
X176.67Y-91.05
X204.33Y-102.48
X214.77Y-102.48
X147.18Y-66.92
X157.62Y-66.92
X185.28Y-102.48
X195.72Y-102.48
X128.13Y-72.
X138.57Y-72.
X147.18Y-105.02
X157.62Y-105.02
X109.08Y-91.05
X119.52Y-91.05
X147.18Y-129.15
X157.62Y-129.15
X109.08Y-72.
X119.52Y-72.
X87.721Y-121.058
X97.531Y-117.488
X204.33Y-83.43
X214.77Y-83.43
X109.08Y-110.1
X119.52Y-110.1
T2
X109.22Y-76.2
X119.38Y-76.2
X89.289Y-124.957
X98.836Y-121.482
X204.47Y-87.63
X214.63Y-87.63
X109.22Y-114.3
X119.38Y-114.3
X166.37Y-133.35
X176.53Y-133.35
X88.761Y-145.438
X98.309Y-141.963
X204.47Y-125.73
X214.63Y-125.73
X185.42Y-125.73
X195.58Y-125.73
X128.27Y-114.3
X138.43Y-114.3
X128.27Y-133.35
X138.43Y-133.35
X185.42Y-87.63
X195.58Y-87.63
X128.27Y-95.25
X138.43Y-95.25
X204.47Y-68.58
X214.63Y-68.58
X147.32Y-90.17
X157.48Y-90.17
X185.42Y-68.58
X195.58Y-68.58
X166.37Y-76.2
X176.53Y-76.2
X106.662Y-138.922
X116.21Y-135.447
X166.37Y-114.3
X176.53Y-114.3
X166.37Y-95.25
X176.53Y-95.25
X204.47Y-106.68
X214.63Y-106.68
X147.32Y-71.12
X157.48Y-71.12
X185.42Y-106.68
X195.58Y-106.68
X128.27Y-76.2
X138.43Y-76.2
X147.32Y-109.22
X157.48Y-109.22
X109.22Y-95.25
X119.38Y-95.25
X147.32Y-133.35
X157.48Y-133.35
T3
X127.85Y-95.25
X138.85Y-95.25
X204.05Y-68.58
X215.05Y-68.58
X146.9Y-90.17
X157.9Y-90.17
X185.Y-68.58
X196.Y-68.58
X165.95Y-76.2
X176.95Y-76.2
X106.268Y-139.066
X116.604Y-135.303
X165.95Y-114.3
X176.95Y-114.3
X165.95Y-95.25
X176.95Y-95.25
X204.05Y-106.68
X215.05Y-106.68
X146.9Y-71.12
X157.9Y-71.12
X185.Y-106.68
X196.Y-106.68
X127.85Y-76.2
X138.85Y-76.2
X146.9Y-109.22
X157.9Y-109.22
X108.8Y-95.25
X119.8Y-95.25
X146.9Y-133.35
X157.9Y-133.35
X108.8Y-76.2
X119.8Y-76.2
X88.894Y-125.101
X99.231Y-121.338
X204.05Y-87.63
X215.05Y-87.63
X108.8Y-114.3
X119.8Y-114.3
X165.95Y-133.35
X176.95Y-133.35
X88.367Y-145.581
X98.703Y-141.819
X204.05Y-125.73
X215.05Y-125.73
X185.Y-125.73
X196.Y-125.73
X127.85Y-114.3
X138.85Y-114.3
X127.85Y-133.35
X138.85Y-133.35
X185.Y-87.63
X196.Y-87.63
T4
X133.35Y-133.35
X190.5Y-87.63
X133.35Y-95.25
X209.55Y-68.58
X152.4Y-90.17
X190.5Y-68.58
X171.45Y-76.2
X111.436Y-137.185
X171.45Y-114.3
X171.45Y-95.25
X209.55Y-106.68
X152.4Y-71.12
X190.5Y-106.68
X133.35Y-76.2
X152.4Y-109.22
X114.3Y-95.25
X152.4Y-133.35
X114.3Y-76.2
X94.063Y-123.22
X209.55Y-87.63
X114.3Y-114.3
X171.45Y-133.35
X93.535Y-143.7
X209.55Y-125.73
X190.5Y-125.73
X133.35Y-114.3
T5
X200.025Y-116.205
X123.825Y-85.725
X106.68Y-125.73
X200.025Y-78.105
X163.195Y-64.77
X142.875Y-123.825
T0
M30
