  0
SECTION
  2
HEADER
  9
$ANGBASE
  50
0.0
  9
$ANGDIR
  70
  1
  9
$MEASUREMENT
  70
0
  0
ENDSEC
  0
SECTION
  2
TABLES
  0
TABLE
  2
LTYPE
  70
4
  0
LTYPE
  5
40F
  2
CONTINUOUS
  70
0
  3
Solid line
  72
65
  73
0
  40
0.0
  0
LTYPE
  5
410
  2
DASHDOT
 70
0
  3
Dash Dot ____ _ ____ _
 72
65
 73
4
 40
2.0
 49
1.25
 49
-0.25
 49
0.25
 49
-0.25
  0
LTYPE
  5
411
  2
DASHED
 70
0
  3
Dashed __ __ __ __ __
 72
65
 73
2
 40
0.75
 49
0.5
 49
-0.25
  0
LTYPE
  5
43B
  2
DOTTED
 70
0
  3
Dotted .  .  .  .
 72
65
 73
2
 40
0.2
 49
0.0
 49
-0.2
  0
ENDTAB
  0
TABLE
  2
STYLE
  70
4
  0
STYLE
  2
KICAD
  70
0
  40
0
  41
1
  42
1
  50
0
  71
0
  3
isocp.shx
  0
STYLE
  2
KICADB
  70
0
  40
0
  41
1
  42
1
  50
0
  71
0
  3
isocp.shx
  0
STYLE
  2
KICADI
  70
0
  40
0
  41
1
  42
1
  50
15
  71
0
  3
isocp.shx
  0
STYLE
  2
KICADBI
  70
0
  40
0
  41
1
  42
1
  50
15
  71
0
  3
isocp.shx
  0
ENDTAB
  0
TABLE
  2
LAYER
  70
30
  0
LAYER
  2
BLACK
  70
0
  62
7
  6
CONTINUOUS
  0
LAYER
  2
GRAY1
  70
0
  62
251
  6
CONTINUOUS
  0
LAYER
  2
GRAY2
  70
0
  62
8
  6
CONTINUOUS
  0
LAYER
  2
GRAY3
  70
0
  62
9
  6
CONTINUOUS
  0
LAYER
  2
WHITE
  70
0
  62
7
  6
CONTINUOUS
  0
LAYER
  2
LYELLOW
  70
0
  62
51
  6
CONTINUOUS
  0
LAYER
  2
BLUE1
  70
0
  62
178
  6
CONTINUOUS
  0
LAYER
  2
GREEN1
  70
0
  62
98
  6
CONTINUOUS
  0
LAYER
  2
CYAN1
  70
0
  62
138
  6
CONTINUOUS
  0
LAYER
  2
RED1
  70
0
  62
18
  6
CONTINUOUS
  0
LAYER
  2
MAGENTA1
  70
0
  62
228
  6
CONTINUOUS
  0
LAYER
  2
BROWN1
  70
0
  62
58
  6
CONTINUOUS
  0
LAYER
  2
BLUE2
  70
0
  62
5
  6
CONTINUOUS
  0
LAYER
  2
GREEN2
  70
0
  62
3
  6
CONTINUOUS
  0
LAYER
  2
CYAN2
  70
0
  62
4
  6
CONTINUOUS
  0
LAYER
  2
RED2
  70
0
  62
1
  6
CONTINUOUS
  0
LAYER
  2
MAGENTA2
  70
0
  62
6
  6
CONTINUOUS
  0
LAYER
  2
BROWN2
  70
0
  62
54
  6
CONTINUOUS
  0
LAYER
  2
BLUE3
  70
0
  62
171
  6
CONTINUOUS
  0
LAYER
  2
GREEN3
  70
0
  62
91
  6
CONTINUOUS
  0
LAYER
  2
CYAN3
  70
0
  62
131
  6
CONTINUOUS
  0
LAYER
  2
RED3
  70
0
  62
11
  6
CONTINUOUS
  0
LAYER
  2
MAGENTA3
  70
0
  62
221
  6
CONTINUOUS
  0
LAYER
  2
YELLOW3
  70
0
  62
2
  6
CONTINUOUS
  0
LAYER
  2
BLUE4
  70
0
  62
5
  6
CONTINUOUS
  0
LAYER
  2
GREEN4
  70
0
  62
3
  6
CONTINUOUS
  0
LAYER
  2
CYAN4
  70
0
  62
4
  6
CONTINUOUS
  0
LAYER
  2
RED4
  70
0
  62
1
  6
CONTINUOUS
  0
LAYER
  2
MAGENTA4
  70
0
  62
6
  6
CONTINUOUS
  0
LAYER
  2
YELLOW4
  70
0
  62
2
  6
CONTINUOUS
  0
ENDTAB
  0
ENDSEC
  0
SECTION
  2
ENTITIES
0
LINE
8
BLACK
6
CONTINUOUS
10
217.205
20
-58.3246
11
217.235
21
-58.3422
0
LINE
8
BLACK
6
CONTINUOUS
10
217.235
20
-58.3422
11
217.245
21
-58.3539
0
LINE
8
BLACK
6
CONTINUOUS
10
217.245
20
-58.3539
11
217.811
21
-58.4254
0
LINE
8
BLACK
6
CONTINUOUS
10
217.811
20
-58.4254
11
217.82
21
-58.4272
0
LINE
8
BLACK
6
CONTINUOUS
10
217.82
20
-58.4272
11
217.825
21
-58.4289
0
LINE
8
BLACK
6
CONTINUOUS
10
217.825
20
-58.4289
11
217.829
21
-58.4301
0
LINE
8
BLACK
6
CONTINUOUS
10
217.829
20
-58.4301
11
218.421
21
-58.6644
0
LINE
8
BLACK
6
CONTINUOUS
10
218.421
20
-58.6644
11
218.421
21
-58.6644
0
LINE
8
BLACK
6
CONTINUOUS
10
218.421
20
-58.6644
11
218.421
21
-58.6645
0
LINE
8
BLACK
6
CONTINUOUS
10
218.421
20
-58.6645
11
218.43
21
-58.6685
0
LINE
8
BLACK
6
CONTINUOUS
10
218.43
20
-58.6685
11
218.434
21
-58.6712
0
LINE
8
BLACK
6
CONTINUOUS
10
218.434
20
-58.6712
11
218.438
21
-58.6735
0
LINE
8
BLACK
6
CONTINUOUS
10
218.438
20
-58.6735
11
218.953
21
-59.0477
0
LINE
8
BLACK
6
CONTINUOUS
10
218.953
20
-59.0477
11
218.953
21
-59.0477
0
LINE
8
BLACK
6
CONTINUOUS
10
218.953
20
-59.0477
11
218.953
21
-59.0478
0
LINE
8
BLACK
6
CONTINUOUS
10
218.953
20
-59.0478
11
218.96
21
-59.0537
0
LINE
8
BLACK
6
CONTINUOUS
10
218.96
20
-59.0537
11
218.963
21
-59.0574
0
LINE
8
BLACK
6
CONTINUOUS
10
218.963
20
-59.0574
11
218.967
21
-59.0606
0
LINE
8
BLACK
6
CONTINUOUS
10
218.967
20
-59.0606
11
219.372
21
-59.5512
0
LINE
8
BLACK
6
CONTINUOUS
10
219.372
20
-59.5512
11
219.372
21
-59.5512
0
LINE
8
BLACK
6
CONTINUOUS
10
219.372
20
-59.5512
11
219.372
21
-59.5512
0
LINE
8
BLACK
6
CONTINUOUS
10
219.372
20
-59.5512
11
219.378
21
-59.5588
0
LINE
8
BLACK
6
CONTINUOUS
10
219.378
20
-59.5588
11
219.38
21
-59.5631
0
LINE
8
BLACK
6
CONTINUOUS
10
219.38
20
-59.5631
11
219.382
21
-59.5671
0
LINE
8
BLACK
6
CONTINUOUS
10
219.382
20
-59.5671
11
219.654
21
-60.1432
0
LINE
8
BLACK
6
CONTINUOUS
10
219.654
20
-60.1432
11
219.657
21
-60.1519
0
LINE
8
BLACK
6
CONTINUOUS
10
219.657
20
-60.1519
11
219.658
21
-60.1566
0
LINE
8
BLACK
6
CONTINUOUS
10
219.658
20
-60.1566
11
219.659
21
-60.161
0
LINE
8
BLACK
6
CONTINUOUS
10
219.659
20
-60.161
11
219.779
21
-60.7865
0
LINE
8
BLACK
6
CONTINUOUS
10
219.779
20
-60.7865
11
219.78
21
-60.7958
0
LINE
8
BLACK
6
CONTINUOUS
10
219.78
20
-60.7958
11
219.78
21
-60.797
0
LINE
8
BLACK
6
CONTINUOUS
10
219.78
20
-60.797
11
219.78
21
-60.7982
0
LINE
8
BLACK
6
CONTINUOUS
10
219.78
20
-60.7982
11
219.783
21
-60.8906
0
LINE
8
BLACK
6
CONTINUOUS
10
219.783
20
-60.8906
11
219.788
21
-60.8947
0
LINE
8
BLACK
6
CONTINUOUS
10
219.788
20
-60.8947
11
219.805
21
-60.9253
0
LINE
8
BLACK
6
CONTINUOUS
10
219.805
20
-60.9253
11
219.81
21
-60.9513
0
LINE
8
BLACK
6
CONTINUOUS
10
219.81
20
-60.9513
11
219.81
21
-133.359
0
LINE
8
BLACK
6
CONTINUOUS
10
219.81
20
-133.359
11
219.805
21
-133.385
0
LINE
8
BLACK
6
CONTINUOUS
10
219.805
20
-133.385
11
219.788
21
-133.415
0
LINE
8
BLACK
6
CONTINUOUS
10
219.788
20
-133.415
11
219.776
21
-133.425
0
LINE
8
BLACK
6
CONTINUOUS
10
219.776
20
-133.425
11
219.705
21
-133.991
0
LINE
8
BLACK
6
CONTINUOUS
10
219.705
20
-133.991
11
219.703
21
-134
0
LINE
8
BLACK
6
CONTINUOUS
10
219.703
20
-134
11
219.701
21
-134.005
0
LINE
8
BLACK
6
CONTINUOUS
10
219.701
20
-134.005
11
219.7
21
-134.009
0
LINE
8
BLACK
6
CONTINUOUS
10
219.7
20
-134.009
11
219.466
21
-134.601
0
LINE
8
BLACK
6
CONTINUOUS
10
219.466
20
-134.601
11
219.466
21
-134.601
0
LINE
8
BLACK
6
CONTINUOUS
10
219.466
20
-134.601
11
219.466
21
-134.601
0
LINE
8
BLACK
6
CONTINUOUS
10
219.466
20
-134.601
11
219.462
21
-134.61
0
LINE
8
BLACK
6
CONTINUOUS
10
219.462
20
-134.61
11
219.459
21
-134.614
0
LINE
8
BLACK
6
CONTINUOUS
10
219.459
20
-134.614
11
219.456
21
-134.618
0
LINE
8
BLACK
6
CONTINUOUS
10
219.456
20
-134.618
11
219.082
21
-135.133
0
LINE
8
BLACK
6
CONTINUOUS
10
219.082
20
-135.133
11
219.076
21
-135.14
0
LINE
8
BLACK
6
CONTINUOUS
10
219.076
20
-135.14
11
219.073
21
-135.143
0
LINE
8
BLACK
6
CONTINUOUS
10
219.073
20
-135.143
11
219.069
21
-135.147
0
LINE
8
BLACK
6
CONTINUOUS
10
219.069
20
-135.147
11
218.579
21
-135.552
0
LINE
8
BLACK
6
CONTINUOUS
10
218.579
20
-135.552
11
218.579
21
-135.552
0
LINE
8
BLACK
6
CONTINUOUS
10
218.579
20
-135.552
11
218.579
21
-135.552
0
LINE
8
BLACK
6
CONTINUOUS
10
218.579
20
-135.552
11
218.571
21
-135.558
0
LINE
8
BLACK
6
CONTINUOUS
10
218.571
20
-135.558
11
218.567
21
-135.56
0
LINE
8
BLACK
6
CONTINUOUS
10
218.567
20
-135.56
11
218.563
21
-135.562
0
LINE
8
BLACK
6
CONTINUOUS
10
218.563
20
-135.562
11
217.987
21
-135.834
0
LINE
8
BLACK
6
CONTINUOUS
10
217.987
20
-135.834
11
217.987
21
-135.834
0
LINE
8
BLACK
6
CONTINUOUS
10
217.987
20
-135.834
11
217.987
21
-135.834
0
LINE
8
BLACK
6
CONTINUOUS
10
217.987
20
-135.834
11
217.978
21
-135.837
0
LINE
8
BLACK
6
CONTINUOUS
10
217.978
20
-135.837
11
217.973
21
-135.838
0
LINE
8
BLACK
6
CONTINUOUS
10
217.973
20
-135.838
11
217.969
21
-135.839
0
LINE
8
BLACK
6
CONTINUOUS
10
217.969
20
-135.839
11
217.344
21
-135.959
0
LINE
8
BLACK
6
CONTINUOUS
10
217.344
20
-135.959
11
217.334
21
-135.96
0
LINE
8
BLACK
6
CONTINUOUS
10
217.334
20
-135.96
11
217.333
21
-135.96
0
LINE
8
BLACK
6
CONTINUOUS
10
217.333
20
-135.96
11
217.332
21
-135.96
0
LINE
8
BLACK
6
CONTINUOUS
10
217.332
20
-135.96
11
217.239
21
-135.963
0
LINE
8
BLACK
6
CONTINUOUS
10
217.239
20
-135.963
11
217.235
21
-135.968
0
LINE
8
BLACK
6
CONTINUOUS
10
217.235
20
-135.968
11
217.205
21
-135.985
0
LINE
8
BLACK
6
CONTINUOUS
10
217.205
20
-135.985
11
217.179
21
-135.99
0
LINE
8
BLACK
6
CONTINUOUS
10
217.179
20
-135.99
11
184.141
21
-135.99
0
LINE
8
BLACK
6
CONTINUOUS
10
184.141
20
-135.99
11
184.115
21
-135.985
0
LINE
8
BLACK
6
CONTINUOUS
10
184.115
20
-135.985
11
184.085
21
-135.968
0
LINE
8
BLACK
6
CONTINUOUS
10
184.085
20
-135.968
11
184.084
21
-135.967
0
LINE
8
BLACK
6
CONTINUOUS
10
184.084
20
-135.967
11
183.999
21
-135.97
0
LINE
8
BLACK
6
CONTINUOUS
10
183.999
20
-135.97
11
183.388
21
-136.086
0
LINE
8
BLACK
6
CONTINUOUS
10
183.388
20
-136.086
11
182.83
21
-136.349
0
LINE
8
BLACK
6
CONTINUOUS
10
182.83
20
-136.349
11
182.354
21
-136.743
0
LINE
8
BLACK
6
CONTINUOUS
10
182.354
20
-136.743
11
181.99
21
-137.243
0
LINE
8
BLACK
6
CONTINUOUS
10
181.99
20
-137.243
11
181.763
21
-137.817
0
LINE
8
BLACK
6
CONTINUOUS
10
181.763
20
-137.817
11
181.693
21
-138.373
0
LINE
8
BLACK
6
CONTINUOUS
10
181.693
20
-138.373
11
181.705
21
-138.395
0
LINE
8
BLACK
6
CONTINUOUS
10
181.705
20
-138.395
11
181.71
21
-138.421
0
LINE
8
BLACK
6
CONTINUOUS
10
181.71
20
-138.421
11
181.71
21
-140.979
0
LINE
8
BLACK
6
CONTINUOUS
10
181.71
20
-140.979
11
181.705
21
-141.005
0
LINE
8
BLACK
6
CONTINUOUS
10
181.705
20
-141.005
11
181.688
21
-141.035
0
LINE
8
BLACK
6
CONTINUOUS
10
181.688
20
-141.035
11
181.676
21
-141.045
0
LINE
8
BLACK
6
CONTINUOUS
10
181.676
20
-141.045
11
181.605
21
-141.611
0
LINE
8
BLACK
6
CONTINUOUS
10
181.605
20
-141.611
11
181.603
21
-141.62
0
LINE
8
BLACK
6
CONTINUOUS
10
181.603
20
-141.62
11
181.601
21
-141.625
0
LINE
8
BLACK
6
CONTINUOUS
10
181.601
20
-141.625
11
181.6
21
-141.629
0
LINE
8
BLACK
6
CONTINUOUS
10
181.6
20
-141.629
11
181.366
21
-142.221
0
LINE
8
BLACK
6
CONTINUOUS
10
181.366
20
-142.221
11
181.366
21
-142.221
0
LINE
8
BLACK
6
CONTINUOUS
10
181.366
20
-142.221
11
181.366
21
-142.221
0
LINE
8
BLACK
6
CONTINUOUS
10
181.366
20
-142.221
11
181.362
21
-142.23
0
LINE
8
BLACK
6
CONTINUOUS
10
181.362
20
-142.23
11
181.359
21
-142.234
0
LINE
8
BLACK
6
CONTINUOUS
10
181.359
20
-142.234
11
181.356
21
-142.238
0
LINE
8
BLACK
6
CONTINUOUS
10
181.356
20
-142.238
11
180.982
21
-142.753
0
LINE
8
BLACK
6
CONTINUOUS
10
180.982
20
-142.753
11
180.976
21
-142.76
0
LINE
8
BLACK
6
CONTINUOUS
10
180.976
20
-142.76
11
180.973
21
-142.763
0
LINE
8
BLACK
6
CONTINUOUS
10
180.973
20
-142.763
11
180.969
21
-142.767
0
LINE
8
BLACK
6
CONTINUOUS
10
180.969
20
-142.767
11
180.479
21
-143.172
0
LINE
8
BLACK
6
CONTINUOUS
10
180.479
20
-143.172
11
180.479
21
-143.172
0
LINE
8
BLACK
6
CONTINUOUS
10
180.479
20
-143.172
11
180.479
21
-143.172
0
LINE
8
BLACK
6
CONTINUOUS
10
180.479
20
-143.172
11
180.471
21
-143.178
0
LINE
8
BLACK
6
CONTINUOUS
10
180.471
20
-143.178
11
180.467
21
-143.18
0
LINE
8
BLACK
6
CONTINUOUS
10
180.467
20
-143.18
11
180.463
21
-143.182
0
LINE
8
BLACK
6
CONTINUOUS
10
180.463
20
-143.182
11
179.887
21
-143.454
0
LINE
8
BLACK
6
CONTINUOUS
10
179.887
20
-143.454
11
179.887
21
-143.454
0
LINE
8
BLACK
6
CONTINUOUS
10
179.887
20
-143.454
11
179.887
21
-143.454
0
LINE
8
BLACK
6
CONTINUOUS
10
179.887
20
-143.454
11
179.878
21
-143.457
0
LINE
8
BLACK
6
CONTINUOUS
10
179.878
20
-143.457
11
179.873
21
-143.458
0
LINE
8
BLACK
6
CONTINUOUS
10
179.873
20
-143.458
11
179.869
21
-143.459
0
LINE
8
BLACK
6
CONTINUOUS
10
179.869
20
-143.459
11
179.244
21
-143.579
0
LINE
8
BLACK
6
CONTINUOUS
10
179.244
20
-143.579
11
179.234
21
-143.58
0
LINE
8
BLACK
6
CONTINUOUS
10
179.234
20
-143.58
11
179.233
21
-143.58
0
LINE
8
BLACK
6
CONTINUOUS
10
179.233
20
-143.58
11
179.232
21
-143.58
0
LINE
8
BLACK
6
CONTINUOUS
10
179.232
20
-143.58
11
179.139
21
-143.583
0
LINE
8
BLACK
6
CONTINUOUS
10
179.139
20
-143.583
11
179.135
21
-143.588
0
LINE
8
BLACK
6
CONTINUOUS
10
179.135
20
-143.588
11
179.105
21
-143.605
0
LINE
8
BLACK
6
CONTINUOUS
10
179.105
20
-143.605
11
179.079
21
-143.61
0
LINE
8
BLACK
6
CONTINUOUS
10
179.079
20
-143.61
11
123.181
21
-143.61
0
LINE
8
BLACK
6
CONTINUOUS
10
123.181
20
-143.61
11
123.155
21
-143.605
0
LINE
8
BLACK
6
CONTINUOUS
10
123.155
20
-143.605
11
123.125
21
-143.588
0
LINE
8
BLACK
6
CONTINUOUS
10
123.125
20
-143.588
11
123.122
21
-143.585
0
LINE
8
BLACK
6
CONTINUOUS
10
123.122
20
-143.585
11
123.004
21
-143.585
0
LINE
8
BLACK
6
CONTINUOUS
10
123.004
20
-143.585
11
123.001
21
-143.588
0
LINE
8
BLACK
6
CONTINUOUS
10
123.001
20
-143.588
11
122.978
21
-143.601
0
LINE
8
BLACK
6
CONTINUOUS
10
122.978
20
-143.601
11
89.1797
21
-155.799
0
LINE
8
BLACK
6
CONTINUOUS
10
89.1797
20
-155.799
11
89.1537
21
-155.804
0
LINE
8
BLACK
6
CONTINUOUS
10
89.1537
20
-155.804
11
89.119
21
-155.797
0
LINE
8
BLACK
6
CONTINUOUS
10
89.119
20
-155.797
11
89.0892
21
-155.78
0
LINE
8
BLACK
6
CONTINUOUS
10
89.0892
20
-155.78
11
88.5857
21
-155.776
0
LINE
8
BLACK
6
CONTINUOUS
10
88.5857
20
-155.776
11
88.5747
21
-155.775
0
LINE
8
BLACK
6
CONTINUOUS
10
88.5747
20
-155.775
11
88.5702
21
-155.773
0
LINE
8
BLACK
6
CONTINUOUS
10
88.5702
20
-155.773
11
88.5655
21
-155.773
0
LINE
8
BLACK
6
CONTINUOUS
10
88.5655
20
-155.773
11
88.0196
21
-155.615
0
LINE
8
BLACK
6
CONTINUOUS
10
88.0196
20
-155.615
11
88.0093
21
-155.612
0
LINE
8
BLACK
6
CONTINUOUS
10
88.0093
20
-155.612
11
88.0054
21
-155.609
0
LINE
8
BLACK
6
CONTINUOUS
10
88.0054
20
-155.609
11
88.001
21
-155.607
0
LINE
8
BLACK
6
CONTINUOUS
10
88.001
20
-155.607
11
87.5176
21
-155.309
0
LINE
8
BLACK
6
CONTINUOUS
10
87.5176
20
-155.309
11
87.5087
21
-155.302
0
LINE
8
BLACK
6
CONTINUOUS
10
87.5087
20
-155.302
11
87.5055
21
-155.299
0
LINE
8
BLACK
6
CONTINUOUS
10
87.5055
20
-155.299
11
87.5019
21
-155.296
0
LINE
8
BLACK
6
CONTINUOUS
10
87.5019
20
-155.296
11
87.1165
21
-154.878
0
LINE
8
BLACK
6
CONTINUOUS
10
87.1165
20
-154.878
11
87.1096
21
-154.87
0
LINE
8
BLACK
6
CONTINUOUS
10
87.1096
20
-154.87
11
87.1075
21
-154.865
0
LINE
8
BLACK
6
CONTINUOUS
10
87.1075
20
-154.865
11
87.1048
21
-154.862
0
LINE
8
BLACK
6
CONTINUOUS
10
87.1048
20
-154.862
11
86.8459
21
-154.356
0
LINE
8
BLACK
6
CONTINUOUS
10
86.8459
20
-154.356
11
86.8416
21
-154.346
0
LINE
8
BLACK
6
CONTINUOUS
10
86.8416
20
-154.346
11
86.8414
21
-154.345
0
LINE
8
BLACK
6
CONTINUOUS
10
86.8414
20
-154.345
11
86.841
21
-154.344
0
LINE
8
BLACK
6
CONTINUOUS
10
86.841
20
-154.344
11
86.8166
21
-154.266
0
LINE
8
BLACK
6
CONTINUOUS
10
86.8166
20
-154.266
11
86.79
21
-154.243
0
LINE
8
BLACK
6
CONTINUOUS
10
86.79
20
-154.243
11
86.7769
21
-154.22
0
LINE
8
BLACK
6
CONTINUOUS
10
86.7769
20
-154.22
11
81.1889
21
-138.726
0
LINE
8
BLACK
6
CONTINUOUS
10
81.1889
20
-138.726
11
81.1846
21
-138.719
0
LINE
8
BLACK
6
CONTINUOUS
10
81.1846
20
-138.719
11
81.183
21
-138.71
0
LINE
8
BLACK
6
CONTINUOUS
10
81.183
20
-138.71
11
81.183
21
-138.71
0
LINE
8
BLACK
6
CONTINUOUS
10
81.183
20
-138.71
11
81.1815
21
-138.701
0
LINE
8
BLACK
6
CONTINUOUS
10
81.1815
20
-138.701
11
81.18
21
-138.693
0
LINE
8
BLACK
6
CONTINUOUS
10
81.18
20
-138.693
11
81.18
21
-138.693
0
LINE
8
BLACK
6
CONTINUOUS
10
81.18
20
-138.693
11
81.1785
21
-138.684
0
LINE
8
BLACK
6
CONTINUOUS
10
81.1785
20
-138.684
11
81.18
21
-138.675
0
LINE
8
BLACK
6
CONTINUOUS
10
81.18
20
-138.675
11
81.18
21
-60.9513
0
LINE
8
BLACK
6
CONTINUOUS
10
81.18
20
-60.9513
11
81.1846
21
-60.9253
0
LINE
8
BLACK
6
CONTINUOUS
10
81.1846
20
-60.9253
11
81.2022
21
-60.8947
0
LINE
8
BLACK
6
CONTINUOUS
10
81.2022
20
-60.8947
11
81.2139
21
-60.8849
0
LINE
8
BLACK
6
CONTINUOUS
10
81.2139
20
-60.8849
11
81.2854
21
-60.3189
0
LINE
8
BLACK
6
CONTINUOUS
10
81.2854
20
-60.3189
11
81.2872
21
-60.3097
0
LINE
8
BLACK
6
CONTINUOUS
10
81.2872
20
-60.3097
11
81.2889
21
-60.3053
0
LINE
8
BLACK
6
CONTINUOUS
10
81.2889
20
-60.3053
11
81.2901
21
-60.3007
0
LINE
8
BLACK
6
CONTINUOUS
10
81.2901
20
-60.3007
11
81.5244
21
-59.7087
0
LINE
8
BLACK
6
CONTINUOUS
10
81.5244
20
-59.7087
11
81.5244
21
-59.7087
0
LINE
8
BLACK
6
CONTINUOUS
10
81.5244
20
-59.7087
11
81.5245
21
-59.7087
0
LINE
8
BLACK
6
CONTINUOUS
10
81.5245
20
-59.7087
11
81.5285
21
-59.7002
0
LINE
8
BLACK
6
CONTINUOUS
10
81.5285
20
-59.7002
11
81.5312
21
-59.6964
0
LINE
8
BLACK
6
CONTINUOUS
10
81.5312
20
-59.6964
11
81.5335
21
-59.6923
0
LINE
8
BLACK
6
CONTINUOUS
10
81.5335
20
-59.6923
11
81.9077
21
-59.1772
0
LINE
8
BLACK
6
CONTINUOUS
10
81.9077
20
-59.1772
11
81.9077
21
-59.1772
0
LINE
8
BLACK
6
CONTINUOUS
10
81.9077
20
-59.1772
11
81.9078
21
-59.1772
0
LINE
8
BLACK
6
CONTINUOUS
10
81.9078
20
-59.1772
11
81.9137
21
-59.1699
0
LINE
8
BLACK
6
CONTINUOUS
10
81.9137
20
-59.1699
11
81.9174
21
-59.1669
0
LINE
8
BLACK
6
CONTINUOUS
10
81.9174
20
-59.1669
11
81.9206
21
-59.1635
0
LINE
8
BLACK
6
CONTINUOUS
10
81.9206
20
-59.1635
11
82.4112
21
-58.7576
0
LINE
8
BLACK
6
CONTINUOUS
10
82.4112
20
-58.7576
11
82.4112
21
-58.7576
0
LINE
8
BLACK
6
CONTINUOUS
10
82.4112
20
-58.7576
11
82.4112
21
-58.7576
0
LINE
8
BLACK
6
CONTINUOUS
10
82.4112
20
-58.7576
11
82.4188
21
-58.7521
0
LINE
8
BLACK
6
CONTINUOUS
10
82.4188
20
-58.7521
11
82.4231
21
-58.7501
0
LINE
8
BLACK
6
CONTINUOUS
10
82.4231
20
-58.7501
11
82.4271
21
-58.7475
0
LINE
8
BLACK
6
CONTINUOUS
10
82.4271
20
-58.7475
11
83.0032
21
-58.4765
0
LINE
8
BLACK
6
CONTINUOUS
10
83.0032
20
-58.4765
11
83.0119
21
-58.473
0
LINE
8
BLACK
6
CONTINUOUS
10
83.0119
20
-58.473
11
83.0166
21
-58.4721
0
LINE
8
BLACK
6
CONTINUOUS
10
83.0166
20
-58.4721
11
83.021
21
-58.4706
0
LINE
8
BLACK
6
CONTINUOUS
10
83.021
20
-58.4706
11
83.6465
21
-58.3513
0
LINE
8
BLACK
6
CONTINUOUS
10
83.6465
20
-58.3513
11
83.6558
21
-58.3502
0
LINE
8
BLACK
6
CONTINUOUS
10
83.6558
20
-58.3502
11
83.657
21
-58.3502
0
LINE
8
BLACK
6
CONTINUOUS
10
83.657
20
-58.3502
11
83.6582
21
-58.35
0
LINE
8
BLACK
6
CONTINUOUS
10
83.6582
20
-58.35
11
83.7506
21
-58.3471
0
LINE
8
BLACK
6
CONTINUOUS
10
83.7506
20
-58.3471
11
83.7547
21
-58.3422
0
LINE
8
BLACK
6
CONTINUOUS
10
83.7547
20
-58.3422
11
83.7853
21
-58.3246
0
LINE
8
BLACK
6
CONTINUOUS
10
83.7853
20
-58.3246
11
83.8113
21
-58.32
0
LINE
8
BLACK
6
CONTINUOUS
10
83.8113
20
-58.32
11
217.179
21
-58.32
0
LINE
8
BLACK
6
CONTINUOUS
10
217.179
20
-58.32
11
217.205
21
-58.3246
0
LINE
8
BLACK
6
CONTINUOUS
10
83.6688
20
-58.4998
11
83.0585
21
-58.6162
0
LINE
8
BLACK
6
CONTINUOUS
10
83.0585
20
-58.6162
11
82.4995
21
-58.8792
0
LINE
8
BLACK
6
CONTINUOUS
10
82.4995
20
-58.8792
11
82.0235
21
-59.273
0
LINE
8
BLACK
6
CONTINUOUS
10
82.0235
20
-59.273
11
81.6604
21
-59.7728
0
LINE
8
BLACK
6
CONTINUOUS
10
81.6604
20
-59.7728
11
81.433
21
-60.3471
0
LINE
8
BLACK
6
CONTINUOUS
10
81.433
20
-60.3471
11
81.3628
21
-60.9033
0
LINE
8
BLACK
6
CONTINUOUS
10
81.3628
20
-60.9033
11
81.3754
21
-60.9253
0
LINE
8
BLACK
6
CONTINUOUS
10
81.3754
20
-60.9253
11
81.38
21
-60.9513
0
LINE
8
BLACK
6
CONTINUOUS
10
81.38
20
-60.9513
11
81.38
21
-138.667
0
LINE
8
BLACK
6
CONTINUOUS
10
81.38
20
-138.667
11
86.965
21
-154.152
0
LINE
8
BLACK
6
CONTINUOUS
10
86.965
20
-154.152
11
86.9695
21
-154.178
0
LINE
8
BLACK
6
CONTINUOUS
10
86.9695
20
-154.178
11
86.9633
21
-154.213
0
LINE
8
BLACK
6
CONTINUOUS
10
86.9633
20
-154.213
11
86.9595
21
-154.22
0
LINE
8
BLACK
6
CONTINUOUS
10
86.9595
20
-154.22
11
86.9823
21
-154.293
0
LINE
8
BLACK
6
CONTINUOUS
10
86.9823
20
-154.293
11
87.2337
21
-154.784
0
LINE
8
BLACK
6
CONTINUOUS
10
87.2337
20
-154.784
11
87.6051
21
-155.186
0
LINE
8
BLACK
6
CONTINUOUS
10
87.6051
20
-155.186
11
88.0711
21
-155.474
0
LINE
8
BLACK
6
CONTINUOUS
10
88.0711
20
-155.474
11
88.5972
21
-155.626
0
LINE
8
BLACK
6
CONTINUOUS
10
88.5972
20
-155.626
11
89.0839
21
-155.63
0
LINE
8
BLACK
6
CONTINUOUS
10
89.0839
20
-155.63
11
89.0889
21
-155.624
0
LINE
8
BLACK
6
CONTINUOUS
10
89.0889
20
-155.624
11
89.1118
21
-155.611
0
LINE
8
BLACK
6
CONTINUOUS
10
89.1118
20
-155.611
11
122.91
21
-143.413
0
LINE
8
BLACK
6
CONTINUOUS
10
122.91
20
-143.413
11
122.936
21
-143.408
0
LINE
8
BLACK
6
CONTINUOUS
10
122.936
20
-143.408
11
122.971
21
-143.415
0
LINE
8
BLACK
6
CONTINUOUS
10
122.971
20
-143.415
11
123.001
21
-143.432
0
LINE
8
BLACK
6
CONTINUOUS
10
123.001
20
-143.432
11
123.004
21
-143.435
0
LINE
8
BLACK
6
CONTINUOUS
10
123.004
20
-143.435
11
123.122
21
-143.435
0
LINE
8
BLACK
6
CONTINUOUS
10
123.122
20
-143.435
11
123.125
21
-143.432
0
LINE
8
BLACK
6
CONTINUOUS
10
123.125
20
-143.432
11
123.155
21
-143.415
0
LINE
8
BLACK
6
CONTINUOUS
10
123.155
20
-143.415
11
123.181
21
-143.41
0
LINE
8
BLACK
6
CONTINUOUS
10
123.181
20
-143.41
11
179.079
21
-143.41
0
LINE
8
BLACK
6
CONTINUOUS
10
179.079
20
-143.41
11
179.105
21
-143.415
0
LINE
8
BLACK
6
CONTINUOUS
10
179.105
20
-143.415
11
179.135
21
-143.432
0
LINE
8
BLACK
6
CONTINUOUS
10
179.135
20
-143.432
11
179.136
21
-143.433
0
LINE
8
BLACK
6
CONTINUOUS
10
179.136
20
-143.433
11
179.221
21
-143.43
0
LINE
8
BLACK
6
CONTINUOUS
10
179.221
20
-143.43
11
179.832
21
-143.314
0
LINE
8
BLACK
6
CONTINUOUS
10
179.832
20
-143.314
11
180.39
21
-143.051
0
LINE
8
BLACK
6
CONTINUOUS
10
180.39
20
-143.051
11
180.866
21
-142.657
0
LINE
8
BLACK
6
CONTINUOUS
10
180.866
20
-142.657
11
181.23
21
-142.157
0
LINE
8
BLACK
6
CONTINUOUS
10
181.23
20
-142.157
11
181.457
21
-141.583
0
LINE
8
BLACK
6
CONTINUOUS
10
181.457
20
-141.583
11
181.527
21
-141.027
0
LINE
8
BLACK
6
CONTINUOUS
10
181.527
20
-141.027
11
181.515
21
-141.005
0
LINE
8
BLACK
6
CONTINUOUS
10
181.515
20
-141.005
11
181.51
21
-140.979
0
LINE
8
BLACK
6
CONTINUOUS
10
181.51
20
-140.979
11
181.51
21
-138.421
0
LINE
8
BLACK
6
CONTINUOUS
10
181.51
20
-138.421
11
181.515
21
-138.395
0
LINE
8
BLACK
6
CONTINUOUS
10
181.515
20
-138.395
11
181.532
21
-138.365
0
LINE
8
BLACK
6
CONTINUOUS
10
181.532
20
-138.365
11
181.544
21
-138.355
0
LINE
8
BLACK
6
CONTINUOUS
10
181.544
20
-138.355
11
181.615
21
-137.789
0
LINE
8
BLACK
6
CONTINUOUS
10
181.615
20
-137.789
11
181.617
21
-137.78
0
LINE
8
BLACK
6
CONTINUOUS
10
181.617
20
-137.78
11
181.619
21
-137.775
0
LINE
8
BLACK
6
CONTINUOUS
10
181.619
20
-137.775
11
181.62
21
-137.771
0
LINE
8
BLACK
6
CONTINUOUS
10
181.62
20
-137.771
11
181.854
21
-137.179
0
LINE
8
BLACK
6
CONTINUOUS
10
181.854
20
-137.179
11
181.854
21
-137.179
0
LINE
8
BLACK
6
CONTINUOUS
10
181.854
20
-137.179
11
181.854
21
-137.179
0
LINE
8
BLACK
6
CONTINUOUS
10
181.854
20
-137.179
11
181.858
21
-137.17
0
LINE
8
BLACK
6
CONTINUOUS
10
181.858
20
-137.17
11
181.861
21
-137.166
0
LINE
8
BLACK
6
CONTINUOUS
10
181.861
20
-137.166
11
181.864
21
-137.162
0
LINE
8
BLACK
6
CONTINUOUS
10
181.864
20
-137.162
11
182.238
21
-136.647
0
LINE
8
BLACK
6
CONTINUOUS
10
182.238
20
-136.647
11
182.238
21
-136.647
0
LINE
8
BLACK
6
CONTINUOUS
10
182.238
20
-136.647
11
182.238
21
-136.647
0
LINE
8
BLACK
6
CONTINUOUS
10
182.238
20
-136.647
11
182.244
21
-136.64
0
LINE
8
BLACK
6
CONTINUOUS
10
182.244
20
-136.64
11
182.247
21
-136.637
0
LINE
8
BLACK
6
CONTINUOUS
10
182.247
20
-136.637
11
182.251
21
-136.633
0
LINE
8
BLACK
6
CONTINUOUS
10
182.251
20
-136.633
11
182.741
21
-136.228
0
LINE
8
BLACK
6
CONTINUOUS
10
182.741
20
-136.228
11
182.741
21
-136.228
0
LINE
8
BLACK
6
CONTINUOUS
10
182.741
20
-136.228
11
182.741
21
-136.228
0
LINE
8
BLACK
6
CONTINUOUS
10
182.741
20
-136.228
11
182.749
21
-136.222
0
LINE
8
BLACK
6
CONTINUOUS
10
182.749
20
-136.222
11
182.753
21
-136.22
0
LINE
8
BLACK
6
CONTINUOUS
10
182.753
20
-136.22
11
182.757
21
-136.218
0
LINE
8
BLACK
6
CONTINUOUS
10
182.757
20
-136.218
11
183.333
21
-135.946
0
LINE
8
BLACK
6
CONTINUOUS
10
183.333
20
-135.946
11
183.342
21
-135.943
0
LINE
8
BLACK
6
CONTINUOUS
10
183.342
20
-135.943
11
183.347
21
-135.942
0
LINE
8
BLACK
6
CONTINUOUS
10
183.347
20
-135.942
11
183.351
21
-135.941
0
LINE
8
BLACK
6
CONTINUOUS
10
183.351
20
-135.941
11
183.976
21
-135.821
0
LINE
8
BLACK
6
CONTINUOUS
10
183.976
20
-135.821
11
183.986
21
-135.82
0
LINE
8
BLACK
6
CONTINUOUS
10
183.986
20
-135.82
11
183.987
21
-135.82
0
LINE
8
BLACK
6
CONTINUOUS
10
183.987
20
-135.82
11
183.988
21
-135.82
0
LINE
8
BLACK
6
CONTINUOUS
10
183.988
20
-135.82
11
184.081
21
-135.817
0
LINE
8
BLACK
6
CONTINUOUS
10
184.081
20
-135.817
11
184.085
21
-135.812
0
LINE
8
BLACK
6
CONTINUOUS
10
184.085
20
-135.812
11
184.115
21
-135.795
0
LINE
8
BLACK
6
CONTINUOUS
10
184.115
20
-135.795
11
184.141
21
-135.79
0
LINE
8
BLACK
6
CONTINUOUS
10
184.141
20
-135.79
11
217.179
21
-135.79
0
LINE
8
BLACK
6
CONTINUOUS
10
217.179
20
-135.79
11
217.205
21
-135.795
0
LINE
8
BLACK
6
CONTINUOUS
10
217.205
20
-135.795
11
217.235
21
-135.812
0
LINE
8
BLACK
6
CONTINUOUS
10
217.235
20
-135.812
11
217.236
21
-135.813
0
LINE
8
BLACK
6
CONTINUOUS
10
217.236
20
-135.813
11
217.321
21
-135.81
0
LINE
8
BLACK
6
CONTINUOUS
10
217.321
20
-135.81
11
217.932
21
-135.694
0
LINE
8
BLACK
6
CONTINUOUS
10
217.932
20
-135.694
11
218.49
21
-135.431
0
LINE
8
BLACK
6
CONTINUOUS
10
218.49
20
-135.431
11
218.966
21
-135.037
0
LINE
8
BLACK
6
CONTINUOUS
10
218.966
20
-135.037
11
219.33
21
-134.537
0
LINE
8
BLACK
6
CONTINUOUS
10
219.33
20
-134.537
11
219.557
21
-133.963
0
LINE
8
BLACK
6
CONTINUOUS
10
219.557
20
-133.963
11
219.627
21
-133.407
0
LINE
8
BLACK
6
CONTINUOUS
10
219.627
20
-133.407
11
219.615
21
-133.385
0
LINE
8
BLACK
6
CONTINUOUS
10
219.615
20
-133.385
11
219.61
21
-133.359
0
LINE
8
BLACK
6
CONTINUOUS
10
219.61
20
-133.359
11
219.61
21
-60.9513
0
LINE
8
BLACK
6
CONTINUOUS
10
219.61
20
-60.9513
11
219.615
21
-60.9253
0
LINE
8
BLACK
6
CONTINUOUS
10
219.615
20
-60.9253
11
219.632
21
-60.8947
0
LINE
8
BLACK
6
CONTINUOUS
10
219.632
20
-60.8947
11
219.633
21
-60.8942
0
LINE
8
BLACK
6
CONTINUOUS
10
219.633
20
-60.8942
11
219.63
21
-60.8088
0
LINE
8
BLACK
6
CONTINUOUS
10
219.63
20
-60.8088
11
219.514
21
-60.1985
0
LINE
8
BLACK
6
CONTINUOUS
10
219.514
20
-60.1985
11
219.251
21
-59.6395
0
LINE
8
BLACK
6
CONTINUOUS
10
219.251
20
-59.6395
11
218.857
21
-59.1635
0
LINE
8
BLACK
6
CONTINUOUS
10
218.857
20
-59.1635
11
218.357
21
-58.8004
0
LINE
8
BLACK
6
CONTINUOUS
10
218.357
20
-58.8004
11
217.783
21
-58.573
0
LINE
8
BLACK
6
CONTINUOUS
10
217.783
20
-58.573
11
217.227
21
-58.5028
0
LINE
8
BLACK
6
CONTINUOUS
10
217.227
20
-58.5028
11
217.205
21
-58.5154
0
LINE
8
BLACK
6
CONTINUOUS
10
217.205
20
-58.5154
11
217.179
21
-58.52
0
LINE
8
BLACK
6
CONTINUOUS
10
217.179
20
-58.52
11
83.8113
21
-58.52
0
LINE
8
BLACK
6
CONTINUOUS
10
83.8113
20
-58.52
11
83.7853
21
-58.5154
0
LINE
8
BLACK
6
CONTINUOUS
10
83.7853
20
-58.5154
11
83.7547
21
-58.4978
0
LINE
8
BLACK
6
CONTINUOUS
10
83.7547
20
-58.4978
11
83.7542
21
-58.4971
0
LINE
8
BLACK
6
CONTINUOUS
10
83.7542
20
-58.4971
11
83.6688
21
-58.4998
  0
ENDSEC
  0
EOF
