<?xml version="1.0" standalone="no"?>
 <!DOCTYPE svg PUBLIC "-//W3C//DTD SVG 1.1//EN" 
 "http://www.w3.org/Graphics/SVG/1.1/DTD/svg11.dtd"> 
<svg xmlns="http://www.w3.org/2000/svg" version="1.1" 
    width="15.3619cm" height="10.7391cm" viewBox="0 0 60480 42280 ">
<title>SVG Picture created as ergo50-Dwgs.User.svg date 2019/03/17 11:46:49 </title>
  <desc>Picture generated by PCBNEW </desc>
<g style="fill:#000000; fill-opacity:1;stroke:#000000; stroke-opacity:1;
stroke-linecap:round; stroke-linejoin:round; "
 transform="translate(0 0) scale(1 1)">
</g>
<g style="fill:#000000; fill-opacity:0.0; 
stroke:#000000; stroke-width:-0.000393701; stroke-opacity:1; 
stroke-linecap:round; stroke-linejoin:round;">
</g>
<g style="fill:#C2C2C2; fill-opacity:0.0; 
stroke:#C2C2C2; stroke-width:-0.000393701; stroke-opacity:1; 
stroke-linecap:round; stroke-linejoin:round;">
</g>
<g style="fill:#C2C2C2; fill-opacity:0.0; 
stroke:#C2C2C2; stroke-width:118.11; stroke-opacity:1; 
stroke-linecap:round; stroke-linejoin:round;">
<path d="M13972 32498
L19610 30446
" />
<path d="M19610 30446
L21662 36084
" />
<path d="M21662 36084
L16024 38136
" />
<path d="M16024 38136
L13972 32498
" />
<path d="M7132 27000
L12770 24948
" />
<path d="M12770 24948
L14822 30586
" />
<path d="M14822 30586
L9184 32638
" />
<path d="M9184 32638
L7132 27000
" />
<path d="M8976 40701
L6924 35063
" />
<path d="M14614 38649
L8976 40701
" />
<path d="M12562 33011
L14614 38649
" />
<path d="M6924 35063
L12562 33011
" />
<path d="M15944 13281
L15944 7281
" />
<path d="M21944 13281
L15944 13281
" />
<path d="M21944 7281
L21944 13281
" />
<path d="M15944 7281
L21944 7281
" />
<path d="M15944 14781
L21944 14781
" />
<path d="M21944 14781
L21944 20781
" />
<path d="M21944 20781
L15944 20781
" />
<path d="M15944 20781
L15944 14781
" />
<path d="M15944 28281
L15944 22281
" />
<path d="M21944 28281
L15944 28281
" />
<path d="M21944 22281
L21944 28281
" />
<path d="M15944 22281
L21944 22281
" />
<path d="M23444 13281
L23444 7281
" />
<path d="M29444 13281
L23444 13281
" />
<path d="M29444 7281
L29444 13281
" />
<path d="M23444 7281
L29444 7281
" />
<path d="M23444 14781
L29444 14781
" />
<path d="M29444 14781
L29444 20781
" />
<path d="M29444 20781
L23444 20781
" />
<path d="M23444 20781
L23444 14781
" />
<path d="M23444 28281
L23444 22281
" />
<path d="M29444 28281
L23444 28281
" />
<path d="M29444 22281
L29444 28281
" />
<path d="M23444 22281
L29444 22281
" />
<path d="M23444 29781
L29444 29781
" />
<path d="M29444 29781
L29444 35781
" />
<path d="M29444 35781
L23444 35781
" />
<path d="M23444 35781
L23444 29781
" />
<path d="M30944 11281
L30944 5281
" />
<path d="M36944 11281
L30944 11281
" />
<path d="M36944 5281
L36944 11281
" />
<path d="M30944 5281
L36944 5281
" />
<path d="M30944 12781
L36944 12781
" />
<path d="M36944 12781
L36944 18781
" />
<path d="M36944 18781
L30944 18781
" />
<path d="M30944 18781
L30944 12781
" />
<path d="M30944 20281
L36944 20281
" />
<path d="M36944 20281
L36944 26281
" />
<path d="M36944 26281
L30944 26281
" />
<path d="M30944 26281
L30944 20281
" />
<path d="M30944 29781
L36944 29781
" />
<path d="M36944 29781
L36944 35781
" />
<path d="M36944 35781
L30944 35781
" />
<path d="M30944 35781
L30944 29781
" />
<path d="M38444 13281
L38444 7281
" />
<path d="M44444 13281
L38444 13281
" />
<path d="M44444 7281
L44444 13281
" />
<path d="M38444 7281
L44444 7281
" />
<path d="M38444 14781
L44444 14781
" />
<path d="M44444 14781
L44444 20781
" />
<path d="M44444 20781
L38444 20781
" />
<path d="M38444 20781
L38444 14781
" />
<path d="M38444 28281
L38444 22281
" />
<path d="M44444 28281
L38444 28281
" />
<path d="M44444 22281
L44444 28281
" />
<path d="M38444 22281
L44444 22281
" />
<path d="M38444 29781
L44444 29781
" />
<path d="M44444 29781
L44444 35781
" />
<path d="M44444 35781
L38444 35781
" />
<path d="M38444 35781
L38444 29781
" />
<path d="M45944 10281
L45944 4281
" />
<path d="M51944 10281
L45944 10281
" />
<path d="M51944 4281
L51944 10281
" />
<path d="M45944 4281
L51944 4281
" />
<path d="M45944 11781
L51944 11781
" />
<path d="M51944 11781
L51944 17781
" />
<path d="M51944 17781
L45944 17781
" />
<path d="M45944 17781
L45944 11781
" />
<path d="M45944 25281
L45944 19281
" />
<path d="M51944 25281
L45944 25281
" />
<path d="M51944 19281
L51944 25281
" />
<path d="M45944 19281
L51944 19281
" />
<path d="M45944 26781
L51944 26781
" />
<path d="M51944 26781
L51944 32781
" />
<path d="M51944 32781
L45944 32781
" />
<path d="M45944 32781
L45944 26781
" />
<path d="M53444 10281
L53444 4281
" />
<path d="M59444 10281
L53444 10281
" />
<path d="M59444 4281
L59444 10281
" />
<path d="M53444 4281
L59444 4281
" />
<path d="M53444 11781
L59444 11781
" />
<path d="M59444 11781
L59444 17781
" />
<path d="M59444 17781
L53444 17781
" />
<path d="M53444 17781
L53444 11781
" />
<path d="M53444 25281
L53444 19281
" />
<path d="M59444 25281
L53444 25281
" />
<path d="M59444 19281
L59444 25281
" />
<path d="M53444 19281
L59444 19281
" />
<path d="M53444 26781
L59444 26781
" />
<path d="M59444 26781
L59444 32781
" />
<path d="M59444 32781
L53444 32781
" />
<path d="M53444 32781
L53444 26781
" />
</g>
<g style="fill:#000000; fill-opacity:0.0; 
stroke:#000000; stroke-width:118.11; stroke-opacity:1; 
stroke-linecap:round; stroke-linejoin:round;">
</g>
<g style="fill:#C2C200; fill-opacity:0.0; 
stroke:#C2C200; stroke-width:118.11; stroke-opacity:1; 
stroke-linecap:round; stroke-linejoin:round;">
</g>
<g style="fill:#C2C200; fill-opacity:0.0; 
stroke:#C2C200; stroke-width:59.0551; stroke-opacity:1; 
stroke-linecap:round; stroke-linejoin:round;">
<path d="M6944.88 3281.5 A1000 1000 0.0 0 0 5944.88 4281.5 " />
<path d="M8144.88 40981.5 A824.077 824.077 0.0 0 0 9045.06 41582.9 " />
<path d="M22444.9 36781.5 A650.023 650.023 0.0 0 0 22344.9 36781.5 " />
<path d="M44444.9 36781.5 A1000 1000 0.0 0 0 45444.9 35781.5 " />
<path d="M46444.9 33781.5 A1000 1000 0.0 0 0 45444.9 34781.5 " />
<path d="M59444.9 33781.5 A1000 1000 0.0 0 0 60444.9 32781.5 " />
<path d="M60444.9 4281.5 A1000 1000 0.0 0 0 59444.9 3281.5 " />
</g>
<g style="fill:#C2C200; fill-opacity:0.0; 
stroke:#C2C200; stroke-width:78.7402; stroke-opacity:1; 
stroke-linecap:round; stroke-linejoin:round;">
<path d="M5944 34881
L8144 40981
" />
<path d="M5944 4281
L5944 34881
" />
<path d="M59444 3281
L6944 3281
" />
<path d="M60444 32781
L60444 4281
" />
<path d="M46444 33781
L59444 33781
" />
<path d="M45444 35781
L45444 34781
" />
<path d="M22444 36781
L44444 36781
" />
<path d="M9044 41581
L22344 36781
" />
</g> 
</svg>
