  0
SECTION
  2
HEADER
  9
$ANGBASE
  50
0.0
  9
$ANGDIR
  70
  1
  9
$MEASUREMENT
  70
0
  0
ENDSEC
  0
SECTION
  2
TABLES
  0
TABLE
  2
LTYPE
  70
4
  0
LTYPE
  5
40F
  2
CONTINUOUS
  70
0
  3
Solid line
  72
65
  73
0
  40
0.0
  0
LTYPE
  5
410
  2
DASHDOT
 70
0
  3
Dash Dot ____ _ ____ _
 72
65
 73
4
 40
2.0
 49
1.25
 49
-0.25
 49
0.25
 49
-0.25
  0
LTYPE
  5
411
  2
DASHED
 70
0
  3
Dashed __ __ __ __ __
 72
65
 73
2
 40
0.75
 49
0.5
 49
-0.25
  0
LTYPE
  5
43B
  2
DOTTED
 70
0
  3
Dotted .  .  .  .
 72
65
 73
2
 40
0.2
 49
0.0
 49
-0.2
  0
ENDTAB
  0
TABLE
  2
STYLE
  70
4
  0
STYLE
  2
KICAD
  70
0
  40
0
  41
1
  42
1
  50
0
  71
0
  3
isocp.shx
  0
STYLE
  2
KICADB
  70
0
  40
0
  41
1
  42
1
  50
0
  71
0
  3
isocp.shx
  0
STYLE
  2
KICADI
  70
0
  40
0
  41
1
  42
1
  50
15
  71
0
  3
isocp.shx
  0
STYLE
  2
KICADBI
  70
0
  40
0
  41
1
  42
1
  50
15
  71
0
  3
isocp.shx
  0
ENDTAB
  0
TABLE
  2
LAYER
  70
30
  0
LAYER
  2
BLACK
  70
0
  62
7
  6
CONTINUOUS
  0
LAYER
  2
GRAY1
  70
0
  62
251
  6
CONTINUOUS
  0
LAYER
  2
GRAY2
  70
0
  62
8
  6
CONTINUOUS
  0
LAYER
  2
GRAY3
  70
0
  62
9
  6
CONTINUOUS
  0
LAYER
  2
WHITE
  70
0
  62
7
  6
CONTINUOUS
  0
LAYER
  2
LYELLOW
  70
0
  62
51
  6
CONTINUOUS
  0
LAYER
  2
BLUE1
  70
0
  62
178
  6
CONTINUOUS
  0
LAYER
  2
GREEN1
  70
0
  62
98
  6
CONTINUOUS
  0
LAYER
  2
CYAN1
  70
0
  62
138
  6
CONTINUOUS
  0
LAYER
  2
RED1
  70
0
  62
18
  6
CONTINUOUS
  0
LAYER
  2
MAGENTA1
  70
0
  62
228
  6
CONTINUOUS
  0
LAYER
  2
BROWN1
  70
0
  62
58
  6
CONTINUOUS
  0
LAYER
  2
BLUE2
  70
0
  62
5
  6
CONTINUOUS
  0
LAYER
  2
GREEN2
  70
0
  62
3
  6
CONTINUOUS
  0
LAYER
  2
CYAN2
  70
0
  62
4
  6
CONTINUOUS
  0
LAYER
  2
RED2
  70
0
  62
1
  6
CONTINUOUS
  0
LAYER
  2
MAGENTA2
  70
0
  62
6
  6
CONTINUOUS
  0
LAYER
  2
BROWN2
  70
0
  62
54
  6
CONTINUOUS
  0
LAYER
  2
BLUE3
  70
0
  62
171
  6
CONTINUOUS
  0
LAYER
  2
GREEN3
  70
0
  62
91
  6
CONTINUOUS
  0
LAYER
  2
CYAN3
  70
0
  62
131
  6
CONTINUOUS
  0
LAYER
  2
RED3
  70
0
  62
11
  6
CONTINUOUS
  0
LAYER
  2
MAGENTA3
  70
0
  62
221
  6
CONTINUOUS
  0
LAYER
  2
YELLOW3
  70
0
  62
2
  6
CONTINUOUS
  0
LAYER
  2
BLUE4
  70
0
  62
5
  6
CONTINUOUS
  0
LAYER
  2
GREEN4
  70
0
  62
3
  6
CONTINUOUS
  0
LAYER
  2
CYAN4
  70
0
  62
4
  6
CONTINUOUS
  0
LAYER
  2
RED4
  70
0
  62
1
  6
CONTINUOUS
  0
LAYER
  2
MAGENTA4
  70
0
  62
6
  6
CONTINUOUS
  0
LAYER
  2
YELLOW4
  70
0
  62
2
  6
CONTINUOUS
  0
ENDTAB
  0
ENDSEC
  0
SECTION
  2
ENTITIES
0
LINE
8
BLACK
6
CONTINUOUS
10
98.1023
20
-133.783
11
98.1157
21
-133.783
0
LINE
8
BLACK
6
CONTINUOUS
10
98.1157
20
-133.783
11
98.1282
21
-133.788
0
LINE
8
BLACK
6
CONTINUOUS
10
98.1282
20
-133.788
11
98.1413
21
-133.79
0
LINE
8
BLACK
6
CONTINUOUS
10
98.1413
20
-133.79
11
98.1529
21
-133.797
0
LINE
8
BLACK
6
CONTINUOUS
10
98.1529
20
-133.797
11
98.1654
21
-133.802
0
LINE
8
BLACK
6
CONTINUOUS
10
98.1654
20
-133.802
11
98.1756
21
-133.81
0
LINE
8
BLACK
6
CONTINUOUS
10
98.1756
20
-133.81
11
98.1871
21
-133.817
0
LINE
8
BLACK
6
CONTINUOUS
10
98.1871
20
-133.817
11
98.1957
21
-133.827
0
LINE
8
BLACK
6
CONTINUOUS
10
98.1957
20
-133.827
11
98.2059
21
-133.836
0
LINE
8
BLACK
6
CONTINUOUS
10
98.2059
20
-133.836
11
98.2126
21
-133.847
0
LINE
8
BLACK
6
CONTINUOUS
10
98.2126
20
-133.847
11
98.2211
21
-133.857
0
LINE
8
BLACK
6
CONTINUOUS
10
98.2211
20
-133.857
11
98.2257
21
-133.87
0
LINE
8
BLACK
6
CONTINUOUS
10
98.2257
20
-133.87
11
98.2257
21
-133.87
0
LINE
8
BLACK
6
CONTINUOUS
10
98.2257
20
-133.87
11
103.447
21
-148.215
0
LINE
8
BLACK
6
CONTINUOUS
10
103.447
20
-148.215
11
103.447
21
-148.215
0
LINE
8
BLACK
6
CONTINUOUS
10
103.447
20
-148.215
11
103.452
21
-148.228
0
LINE
8
BLACK
6
CONTINUOUS
10
103.452
20
-148.228
11
103.452
21
-148.241
0
LINE
8
BLACK
6
CONTINUOUS
10
103.452
20
-148.241
11
103.454
21
-148.254
0
LINE
8
BLACK
6
CONTINUOUS
10
103.454
20
-148.254
11
103.452
21
-148.267
0
LINE
8
BLACK
6
CONTINUOUS
10
103.452
20
-148.267
11
103.452
21
-148.281
0
LINE
8
BLACK
6
CONTINUOUS
10
103.452
20
-148.281
11
103.447
21
-148.293
0
LINE
8
BLACK
6
CONTINUOUS
10
103.447
20
-148.293
11
103.445
21
-148.306
0
LINE
8
BLACK
6
CONTINUOUS
10
103.445
20
-148.306
11
103.438
21
-148.318
0
LINE
8
BLACK
6
CONTINUOUS
10
103.438
20
-148.318
11
103.434
21
-148.33
0
LINE
8
BLACK
6
CONTINUOUS
10
103.434
20
-148.33
11
103.425
21
-148.341
0
LINE
8
BLACK
6
CONTINUOUS
10
103.425
20
-148.341
11
103.418
21
-148.352
0
LINE
8
BLACK
6
CONTINUOUS
10
103.418
20
-148.352
11
103.408
21
-148.361
0
LINE
8
BLACK
6
CONTINUOUS
10
103.408
20
-148.361
11
103.4
21
-148.371
0
LINE
8
BLACK
6
CONTINUOUS
10
103.4
20
-148.371
11
103.388
21
-148.378
0
LINE
8
BLACK
6
CONTINUOUS
10
103.388
20
-148.378
11
103.378
21
-148.386
0
LINE
8
BLACK
6
CONTINUOUS
10
103.378
20
-148.386
11
103.365
21
-148.391
0
LINE
8
BLACK
6
CONTINUOUS
10
103.365
20
-148.391
11
103.365
21
-148.391
0
LINE
8
BLACK
6
CONTINUOUS
10
103.365
20
-148.391
11
89.0197
21
-153.612
0
LINE
8
BLACK
6
CONTINUOUS
10
89.0197
20
-153.612
11
89.0197
21
-153.612
0
LINE
8
BLACK
6
CONTINUOUS
10
89.0197
20
-153.612
11
89.0071
21
-153.617
0
LINE
8
BLACK
6
CONTINUOUS
10
89.0071
20
-153.617
11
88.9938
21
-153.617
0
LINE
8
BLACK
6
CONTINUOUS
10
88.9938
20
-153.617
11
88.9807
21
-153.619
0
LINE
8
BLACK
6
CONTINUOUS
10
88.9807
20
-153.619
11
88.9676
21
-153.617
0
LINE
8
BLACK
6
CONTINUOUS
10
88.9676
20
-153.617
11
88.9542
21
-153.617
0
LINE
8
BLACK
6
CONTINUOUS
10
88.9542
20
-153.617
11
88.9417
21
-153.612
0
LINE
8
BLACK
6
CONTINUOUS
10
88.9417
20
-153.612
11
88.9286
21
-153.61
0
LINE
8
BLACK
6
CONTINUOUS
10
88.9286
20
-153.61
11
88.9171
21
-153.603
0
LINE
8
BLACK
6
CONTINUOUS
10
88.9171
20
-153.603
11
88.9045
21
-153.599
0
LINE
8
BLACK
6
CONTINUOUS
10
88.9045
20
-153.599
11
88.8943
21
-153.59
0
LINE
8
BLACK
6
CONTINUOUS
10
88.8943
20
-153.59
11
88.8828
21
-153.583
0
LINE
8
BLACK
6
CONTINUOUS
10
88.8828
20
-153.583
11
88.8742
21
-153.573
0
LINE
8
BLACK
6
CONTINUOUS
10
88.8742
20
-153.573
11
88.864
21
-153.565
0
LINE
8
BLACK
6
CONTINUOUS
10
88.864
20
-153.565
11
88.8574
21
-153.553
0
LINE
8
BLACK
6
CONTINUOUS
10
88.8574
20
-153.553
11
88.8488
21
-153.543
0
LINE
8
BLACK
6
CONTINUOUS
10
88.8488
20
-153.543
11
88.8442
21
-153.53
0
LINE
8
BLACK
6
CONTINUOUS
10
88.8442
20
-153.53
11
88.8442
21
-153.53
0
LINE
8
BLACK
6
CONTINUOUS
10
88.8442
20
-153.53
11
83.6229
21
-139.185
0
LINE
8
BLACK
6
CONTINUOUS
10
83.6229
20
-139.185
11
83.6229
21
-139.185
0
LINE
8
BLACK
6
CONTINUOUS
10
83.6229
20
-139.185
11
83.6183
21
-139.172
0
LINE
8
BLACK
6
CONTINUOUS
10
83.6183
20
-139.172
11
83.6183
21
-139.159
0
LINE
8
BLACK
6
CONTINUOUS
10
83.6183
20
-139.159
11
83.616
21
-139.146
0
LINE
8
BLACK
6
CONTINUOUS
10
83.616
20
-139.146
11
83.6183
21
-139.133
0
LINE
8
BLACK
6
CONTINUOUS
10
83.6183
20
-139.133
11
83.6183
21
-139.119
0
LINE
8
BLACK
6
CONTINUOUS
10
83.6183
20
-139.119
11
83.6229
21
-139.107
0
LINE
8
BLACK
6
CONTINUOUS
10
83.6229
20
-139.107
11
83.6252
21
-139.094
0
LINE
8
BLACK
6
CONTINUOUS
10
83.6252
20
-139.094
11
83.6318
21
-139.082
0
LINE
8
BLACK
6
CONTINUOUS
10
83.6318
20
-139.082
11
83.6364
21
-139.07
0
LINE
8
BLACK
6
CONTINUOUS
10
83.6364
20
-139.07
11
83.645
21
-139.059
0
LINE
8
BLACK
6
CONTINUOUS
10
83.645
20
-139.059
11
83.6516
21
-139.048
0
LINE
8
BLACK
6
CONTINUOUS
10
83.6516
20
-139.048
11
83.6618
21
-139.039
0
LINE
8
BLACK
6
CONTINUOUS
10
83.6618
20
-139.039
11
83.6704
21
-139.029
0
LINE
8
BLACK
6
CONTINUOUS
10
83.6704
20
-139.029
11
83.6819
21
-139.022
0
LINE
8
BLACK
6
CONTINUOUS
10
83.6819
20
-139.022
11
83.6922
21
-139.014
0
LINE
8
BLACK
6
CONTINUOUS
10
83.6922
20
-139.014
11
83.7047
21
-139.009
0
LINE
8
BLACK
6
CONTINUOUS
10
83.7047
20
-139.009
11
83.7047
21
-139.009
0
LINE
8
BLACK
6
CONTINUOUS
10
83.7047
20
-139.009
11
98.0502
21
-133.788
0
LINE
8
BLACK
6
CONTINUOUS
10
98.0502
20
-133.788
11
98.0503
21
-133.788
0
LINE
8
BLACK
6
CONTINUOUS
10
98.0503
20
-133.788
11
98.0628
21
-133.783
0
LINE
8
BLACK
6
CONTINUOUS
10
98.0628
20
-133.783
11
98.0761
21
-133.783
0
LINE
8
BLACK
6
CONTINUOUS
10
98.0761
20
-133.783
11
98.0892
21
-133.781
0
LINE
8
BLACK
6
CONTINUOUS
10
98.0892
20
-133.781
11
98.1023
21
-133.783
0
LINE
8
BLACK
6
CONTINUOUS
10
83.9606
20
-139.235
11
89.0703
21
-153.274
0
LINE
8
BLACK
6
CONTINUOUS
10
89.0703
20
-153.274
11
103.109
21
-148.165
0
LINE
8
BLACK
6
CONTINUOUS
10
103.109
20
-148.165
11
97.9996
21
-134.126
0
LINE
8
BLACK
6
CONTINUOUS
10
97.9996
20
-134.126
11
83.9606
21
-139.235
0
LINE
8
BLACK
6
CONTINUOUS
10
116.003
20
-127.268
11
116.017
21
-127.268
0
LINE
8
BLACK
6
CONTINUOUS
10
116.017
20
-127.268
11
116.029
21
-127.273
0
LINE
8
BLACK
6
CONTINUOUS
10
116.029
20
-127.273
11
116.042
21
-127.275
0
LINE
8
BLACK
6
CONTINUOUS
10
116.042
20
-127.275
11
116.054
21
-127.281
0
LINE
8
BLACK
6
CONTINUOUS
10
116.054
20
-127.281
11
116.067
21
-127.286
0
LINE
8
BLACK
6
CONTINUOUS
10
116.067
20
-127.286
11
116.077
21
-127.295
0
LINE
8
BLACK
6
CONTINUOUS
10
116.077
20
-127.295
11
116.088
21
-127.301
0
LINE
8
BLACK
6
CONTINUOUS
10
116.088
20
-127.301
11
116.097
21
-127.311
0
LINE
8
BLACK
6
CONTINUOUS
10
116.097
20
-127.311
11
116.107
21
-127.32
0
LINE
8
BLACK
6
CONTINUOUS
10
116.107
20
-127.32
11
116.114
21
-127.332
0
LINE
8
BLACK
6
CONTINUOUS
10
116.114
20
-127.332
11
116.122
21
-127.342
0
LINE
8
BLACK
6
CONTINUOUS
10
116.122
20
-127.342
11
116.127
21
-127.354
0
LINE
8
BLACK
6
CONTINUOUS
10
116.127
20
-127.354
11
116.127
21
-127.354
0
LINE
8
BLACK
6
CONTINUOUS
10
116.127
20
-127.354
11
121.348
21
-141.7
0
LINE
8
BLACK
6
CONTINUOUS
10
121.348
20
-141.7
11
121.348
21
-141.7
0
LINE
8
BLACK
6
CONTINUOUS
10
121.348
20
-141.7
11
121.353
21
-141.712
0
LINE
8
BLACK
6
CONTINUOUS
10
121.353
20
-141.712
11
121.353
21
-141.726
0
LINE
8
BLACK
6
CONTINUOUS
10
121.353
20
-141.726
11
121.355
21
-141.739
0
LINE
8
BLACK
6
CONTINUOUS
10
121.355
20
-141.739
11
121.353
21
-141.752
0
LINE
8
BLACK
6
CONTINUOUS
10
121.353
20
-141.752
11
121.353
21
-141.765
0
LINE
8
BLACK
6
CONTINUOUS
10
121.353
20
-141.765
11
121.348
21
-141.778
0
LINE
8
BLACK
6
CONTINUOUS
10
121.348
20
-141.778
11
121.346
21
-141.791
0
LINE
8
BLACK
6
CONTINUOUS
10
121.346
20
-141.791
11
121.339
21
-141.802
0
LINE
8
BLACK
6
CONTINUOUS
10
121.339
20
-141.802
11
121.335
21
-141.815
0
LINE
8
BLACK
6
CONTINUOUS
10
121.335
20
-141.815
11
121.326
21
-141.825
0
LINE
8
BLACK
6
CONTINUOUS
10
121.326
20
-141.825
11
121.319
21
-141.837
0
LINE
8
BLACK
6
CONTINUOUS
10
121.319
20
-141.837
11
121.309
21
-141.845
0
LINE
8
BLACK
6
CONTINUOUS
10
121.309
20
-141.845
11
121.301
21
-141.856
0
LINE
8
BLACK
6
CONTINUOUS
10
121.301
20
-141.856
11
121.289
21
-141.862
0
LINE
8
BLACK
6
CONTINUOUS
10
121.289
20
-141.862
11
121.279
21
-141.871
0
LINE
8
BLACK
6
CONTINUOUS
10
121.279
20
-141.871
11
121.266
21
-141.875
0
LINE
8
BLACK
6
CONTINUOUS
10
121.266
20
-141.875
11
121.266
21
-141.875
0
LINE
8
BLACK
6
CONTINUOUS
10
121.266
20
-141.875
11
106.921
21
-147.097
0
LINE
8
BLACK
6
CONTINUOUS
10
106.921
20
-147.097
11
106.921
21
-147.097
0
LINE
8
BLACK
6
CONTINUOUS
10
106.921
20
-147.097
11
106.908
21
-147.101
0
LINE
8
BLACK
6
CONTINUOUS
10
106.908
20
-147.101
11
106.895
21
-147.101
0
LINE
8
BLACK
6
CONTINUOUS
10
106.895
20
-147.101
11
106.882
21
-147.104
0
LINE
8
BLACK
6
CONTINUOUS
10
106.882
20
-147.104
11
106.869
21
-147.101
0
LINE
8
BLACK
6
CONTINUOUS
10
106.869
20
-147.101
11
106.855
21
-147.101
0
LINE
8
BLACK
6
CONTINUOUS
10
106.855
20
-147.101
11
106.843
21
-147.097
0
LINE
8
BLACK
6
CONTINUOUS
10
106.843
20
-147.097
11
106.83
21
-147.094
0
LINE
8
BLACK
6
CONTINUOUS
10
106.83
20
-147.094
11
106.818
21
-147.088
0
LINE
8
BLACK
6
CONTINUOUS
10
106.818
20
-147.088
11
106.806
21
-147.083
0
LINE
8
BLACK
6
CONTINUOUS
10
106.806
20
-147.083
11
106.795
21
-147.075
0
LINE
8
BLACK
6
CONTINUOUS
10
106.795
20
-147.075
11
106.784
21
-147.068
0
LINE
8
BLACK
6
CONTINUOUS
10
106.784
20
-147.068
11
106.775
21
-147.058
0
LINE
8
BLACK
6
CONTINUOUS
10
106.775
20
-147.058
11
106.765
21
-147.049
0
LINE
8
BLACK
6
CONTINUOUS
10
106.765
20
-147.049
11
106.758
21
-147.038
0
LINE
8
BLACK
6
CONTINUOUS
10
106.758
20
-147.038
11
106.75
21
-147.027
0
LINE
8
BLACK
6
CONTINUOUS
10
106.75
20
-147.027
11
106.745
21
-147.015
0
LINE
8
BLACK
6
CONTINUOUS
10
106.745
20
-147.015
11
106.745
21
-147.015
0
LINE
8
BLACK
6
CONTINUOUS
10
106.745
20
-147.015
11
101.524
21
-132.669
0
LINE
8
BLACK
6
CONTINUOUS
10
101.524
20
-132.669
11
101.524
21
-132.669
0
LINE
8
BLACK
6
CONTINUOUS
10
101.524
20
-132.669
11
101.519
21
-132.657
0
LINE
8
BLACK
6
CONTINUOUS
10
101.519
20
-132.657
11
101.519
21
-132.643
0
LINE
8
BLACK
6
CONTINUOUS
10
101.519
20
-132.643
11
101.517
21
-132.63
0
LINE
8
BLACK
6
CONTINUOUS
10
101.517
20
-132.63
11
101.519
21
-132.617
0
LINE
8
BLACK
6
CONTINUOUS
10
101.519
20
-132.617
11
101.519
21
-132.604
0
LINE
8
BLACK
6
CONTINUOUS
10
101.519
20
-132.604
11
101.524
21
-132.591
0
LINE
8
BLACK
6
CONTINUOUS
10
101.524
20
-132.591
11
101.526
21
-132.578
0
LINE
8
BLACK
6
CONTINUOUS
10
101.526
20
-132.578
11
101.533
21
-132.567
0
LINE
8
BLACK
6
CONTINUOUS
10
101.533
20
-132.567
11
101.538
21
-132.554
0
LINE
8
BLACK
6
CONTINUOUS
10
101.538
20
-132.554
11
101.546
21
-132.544
0
LINE
8
BLACK
6
CONTINUOUS
10
101.546
20
-132.544
11
101.553
21
-132.532
0
LINE
8
BLACK
6
CONTINUOUS
10
101.553
20
-132.532
11
101.563
21
-132.524
0
LINE
8
BLACK
6
CONTINUOUS
10
101.563
20
-132.524
11
101.572
21
-132.514
0
LINE
8
BLACK
6
CONTINUOUS
10
101.572
20
-132.514
11
101.583
21
-132.507
0
LINE
8
BLACK
6
CONTINUOUS
10
101.583
20
-132.507
11
101.593
21
-132.498
0
LINE
8
BLACK
6
CONTINUOUS
10
101.593
20
-132.498
11
101.606
21
-132.494
0
LINE
8
BLACK
6
CONTINUOUS
10
101.606
20
-132.494
11
101.606
21
-132.494
0
LINE
8
BLACK
6
CONTINUOUS
10
101.606
20
-132.494
11
115.951
21
-127.273
0
LINE
8
BLACK
6
CONTINUOUS
10
115.951
20
-127.273
11
115.951
21
-127.272
0
LINE
8
BLACK
6
CONTINUOUS
10
115.951
20
-127.272
11
115.964
21
-127.268
0
LINE
8
BLACK
6
CONTINUOUS
10
115.964
20
-127.268
11
115.977
21
-127.268
0
LINE
8
BLACK
6
CONTINUOUS
10
115.977
20
-127.268
11
115.99
21
-127.266
0
LINE
8
BLACK
6
CONTINUOUS
10
115.99
20
-127.266
11
116.003
21
-127.268
0
LINE
8
BLACK
6
CONTINUOUS
10
101.862
20
-132.72
11
106.971
21
-146.759
0
LINE
8
BLACK
6
CONTINUOUS
10
106.971
20
-146.759
11
121.01
21
-141.649
0
LINE
8
BLACK
6
CONTINUOUS
10
121.01
20
-141.649
11
115.901
21
-127.61
0
LINE
8
BLACK
6
CONTINUOUS
10
115.901
20
-127.61
11
101.862
21
-132.72
0
LINE
8
BLACK
6
CONTINUOUS
10
140.983
20
-125.58
11
140.996
21
-125.58
0
LINE
8
BLACK
6
CONTINUOUS
10
140.996
20
-125.58
11
141.009
21
-125.585
0
LINE
8
BLACK
6
CONTINUOUS
10
141.009
20
-125.585
11
141.022
21
-125.587
0
LINE
8
BLACK
6
CONTINUOUS
10
141.022
20
-125.587
11
141.034
21
-125.594
0
LINE
8
BLACK
6
CONTINUOUS
10
141.034
20
-125.594
11
141.046
21
-125.598
0
LINE
8
BLACK
6
CONTINUOUS
10
141.046
20
-125.598
11
141.056
21
-125.607
0
LINE
8
BLACK
6
CONTINUOUS
10
141.056
20
-125.607
11
141.068
21
-125.613
0
LINE
8
BLACK
6
CONTINUOUS
10
141.068
20
-125.613
11
141.076
21
-125.624
0
LINE
8
BLACK
6
CONTINUOUS
10
141.076
20
-125.624
11
141.087
21
-125.632
0
LINE
8
BLACK
6
CONTINUOUS
10
141.087
20
-125.632
11
141.093
21
-125.644
0
LINE
8
BLACK
6
CONTINUOUS
10
141.093
20
-125.644
11
141.102
21
-125.654
0
LINE
8
BLACK
6
CONTINUOUS
10
141.102
20
-125.654
11
141.106
21
-125.666
0
LINE
8
BLACK
6
CONTINUOUS
10
141.106
20
-125.666
11
141.113
21
-125.678
0
LINE
8
BLACK
6
CONTINUOUS
10
141.113
20
-125.678
11
141.115
21
-125.691
0
LINE
8
BLACK
6
CONTINUOUS
10
141.115
20
-125.691
11
141.12
21
-125.704
0
LINE
8
BLACK
6
CONTINUOUS
10
141.12
20
-125.704
11
141.12
21
-125.717
0
LINE
8
BLACK
6
CONTINUOUS
10
141.12
20
-125.717
11
141.12
21
-125.717
0
LINE
8
BLACK
6
CONTINUOUS
10
141.12
20
-125.717
11
141.12
21
-140.983
0
LINE
8
BLACK
6
CONTINUOUS
10
141.12
20
-140.983
11
141.12
21
-140.983
0
LINE
8
BLACK
6
CONTINUOUS
10
141.12
20
-140.983
11
141.12
21
-140.996
0
LINE
8
BLACK
6
CONTINUOUS
10
141.12
20
-140.996
11
141.115
21
-141.009
0
LINE
8
BLACK
6
CONTINUOUS
10
141.115
20
-141.009
11
141.113
21
-141.022
0
LINE
8
BLACK
6
CONTINUOUS
10
141.113
20
-141.022
11
141.106
21
-141.034
0
LINE
8
BLACK
6
CONTINUOUS
10
141.106
20
-141.034
11
141.102
21
-141.046
0
LINE
8
BLACK
6
CONTINUOUS
10
141.102
20
-141.046
11
141.093
21
-141.056
0
LINE
8
BLACK
6
CONTINUOUS
10
141.093
20
-141.056
11
141.087
21
-141.068
0
LINE
8
BLACK
6
CONTINUOUS
10
141.087
20
-141.068
11
141.076
21
-141.076
0
LINE
8
BLACK
6
CONTINUOUS
10
141.076
20
-141.076
11
141.068
21
-141.087
0
LINE
8
BLACK
6
CONTINUOUS
10
141.068
20
-141.087
11
141.056
21
-141.093
0
LINE
8
BLACK
6
CONTINUOUS
10
141.056
20
-141.093
11
141.046
21
-141.102
0
LINE
8
BLACK
6
CONTINUOUS
10
141.046
20
-141.102
11
141.034
21
-141.106
0
LINE
8
BLACK
6
CONTINUOUS
10
141.034
20
-141.106
11
141.022
21
-141.113
0
LINE
8
BLACK
6
CONTINUOUS
10
141.022
20
-141.113
11
141.009
21
-141.115
0
LINE
8
BLACK
6
CONTINUOUS
10
141.009
20
-141.115
11
140.996
21
-141.12
0
LINE
8
BLACK
6
CONTINUOUS
10
140.996
20
-141.12
11
140.983
21
-141.12
0
LINE
8
BLACK
6
CONTINUOUS
10
140.983
20
-141.12
11
140.983
21
-141.12
0
LINE
8
BLACK
6
CONTINUOUS
10
140.983
20
-141.12
11
125.717
21
-141.12
0
LINE
8
BLACK
6
CONTINUOUS
10
125.717
20
-141.12
11
125.717
21
-141.12
0
LINE
8
BLACK
6
CONTINUOUS
10
125.717
20
-141.12
11
125.704
21
-141.12
0
LINE
8
BLACK
6
CONTINUOUS
10
125.704
20
-141.12
11
125.691
21
-141.115
0
LINE
8
BLACK
6
CONTINUOUS
10
125.691
20
-141.115
11
125.678
21
-141.113
0
LINE
8
BLACK
6
CONTINUOUS
10
125.678
20
-141.113
11
125.666
21
-141.106
0
LINE
8
BLACK
6
CONTINUOUS
10
125.666
20
-141.106
11
125.654
21
-141.102
0
LINE
8
BLACK
6
CONTINUOUS
10
125.654
20
-141.102
11
125.644
21
-141.093
0
LINE
8
BLACK
6
CONTINUOUS
10
125.644
20
-141.093
11
125.632
21
-141.087
0
LINE
8
BLACK
6
CONTINUOUS
10
125.632
20
-141.087
11
125.624
21
-141.076
0
LINE
8
BLACK
6
CONTINUOUS
10
125.624
20
-141.076
11
125.613
21
-141.068
0
LINE
8
BLACK
6
CONTINUOUS
10
125.613
20
-141.068
11
125.607
21
-141.056
0
LINE
8
BLACK
6
CONTINUOUS
10
125.607
20
-141.056
11
125.598
21
-141.046
0
LINE
8
BLACK
6
CONTINUOUS
10
125.598
20
-141.046
11
125.594
21
-141.034
0
LINE
8
BLACK
6
CONTINUOUS
10
125.594
20
-141.034
11
125.587
21
-141.022
0
LINE
8
BLACK
6
CONTINUOUS
10
125.587
20
-141.022
11
125.585
21
-141.009
0
LINE
8
BLACK
6
CONTINUOUS
10
125.585
20
-141.009
11
125.58
21
-140.996
0
LINE
8
BLACK
6
CONTINUOUS
10
125.58
20
-140.996
11
125.58
21
-140.983
0
LINE
8
BLACK
6
CONTINUOUS
10
125.58
20
-140.983
11
125.58
21
-140.983
0
LINE
8
BLACK
6
CONTINUOUS
10
125.58
20
-140.983
11
125.58
21
-125.717
0
LINE
8
BLACK
6
CONTINUOUS
10
125.58
20
-125.717
11
125.58
21
-125.704
0
LINE
8
BLACK
6
CONTINUOUS
10
125.58
20
-125.704
11
125.585
21
-125.691
0
LINE
8
BLACK
6
CONTINUOUS
10
125.585
20
-125.691
11
125.587
21
-125.678
0
LINE
8
BLACK
6
CONTINUOUS
10
125.587
20
-125.678
11
125.594
21
-125.666
0
LINE
8
BLACK
6
CONTINUOUS
10
125.594
20
-125.666
11
125.598
21
-125.654
0
LINE
8
BLACK
6
CONTINUOUS
10
125.598
20
-125.654
11
125.607
21
-125.644
0
LINE
8
BLACK
6
CONTINUOUS
10
125.607
20
-125.644
11
125.613
21
-125.632
0
LINE
8
BLACK
6
CONTINUOUS
10
125.613
20
-125.632
11
125.624
21
-125.624
0
LINE
8
BLACK
6
CONTINUOUS
10
125.624
20
-125.624
11
125.632
21
-125.613
0
LINE
8
BLACK
6
CONTINUOUS
10
125.632
20
-125.613
11
125.644
21
-125.607
0
LINE
8
BLACK
6
CONTINUOUS
10
125.644
20
-125.607
11
125.654
21
-125.598
0
LINE
8
BLACK
6
CONTINUOUS
10
125.654
20
-125.598
11
125.666
21
-125.594
0
LINE
8
BLACK
6
CONTINUOUS
10
125.666
20
-125.594
11
125.678
21
-125.587
0
LINE
8
BLACK
6
CONTINUOUS
10
125.678
20
-125.587
11
125.691
21
-125.585
0
LINE
8
BLACK
6
CONTINUOUS
10
125.691
20
-125.585
11
125.704
21
-125.58
0
LINE
8
BLACK
6
CONTINUOUS
10
125.704
20
-125.58
11
125.717
21
-125.58
0
LINE
8
BLACK
6
CONTINUOUS
10
125.717
20
-125.58
11
125.717
21
-125.58
0
LINE
8
BLACK
6
CONTINUOUS
10
125.717
20
-125.58
11
140.983
21
-125.58
0
LINE
8
BLACK
6
CONTINUOUS
10
140.983
20
-125.58
11
140.983
21
-125.58
0
LINE
8
BLACK
6
CONTINUOUS
10
125.88
20
-125.88
11
125.88
21
-140.82
0
LINE
8
BLACK
6
CONTINUOUS
10
125.88
20
-140.82
11
140.82
21
-140.82
0
LINE
8
BLACK
6
CONTINUOUS
10
140.82
20
-140.82
11
140.82
21
-125.88
0
LINE
8
BLACK
6
CONTINUOUS
10
140.82
20
-125.88
11
125.88
21
-125.88
0
LINE
8
BLACK
6
CONTINUOUS
10
160.033
20
-125.58
11
160.046
21
-125.58
0
LINE
8
BLACK
6
CONTINUOUS
10
160.046
20
-125.58
11
160.059
21
-125.585
0
LINE
8
BLACK
6
CONTINUOUS
10
160.059
20
-125.585
11
160.072
21
-125.587
0
LINE
8
BLACK
6
CONTINUOUS
10
160.072
20
-125.587
11
160.084
21
-125.594
0
LINE
8
BLACK
6
CONTINUOUS
10
160.084
20
-125.594
11
160.096
21
-125.598
0
LINE
8
BLACK
6
CONTINUOUS
10
160.096
20
-125.598
11
160.106
21
-125.607
0
LINE
8
BLACK
6
CONTINUOUS
10
160.106
20
-125.607
11
160.118
21
-125.613
0
LINE
8
BLACK
6
CONTINUOUS
10
160.118
20
-125.613
11
160.126
21
-125.624
0
LINE
8
BLACK
6
CONTINUOUS
10
160.126
20
-125.624
11
160.137
21
-125.632
0
LINE
8
BLACK
6
CONTINUOUS
10
160.137
20
-125.632
11
160.143
21
-125.644
0
LINE
8
BLACK
6
CONTINUOUS
10
160.143
20
-125.644
11
160.152
21
-125.654
0
LINE
8
BLACK
6
CONTINUOUS
10
160.152
20
-125.654
11
160.156
21
-125.666
0
LINE
8
BLACK
6
CONTINUOUS
10
160.156
20
-125.666
11
160.163
21
-125.678
0
LINE
8
BLACK
6
CONTINUOUS
10
160.163
20
-125.678
11
160.165
21
-125.691
0
LINE
8
BLACK
6
CONTINUOUS
10
160.165
20
-125.691
11
160.17
21
-125.704
0
LINE
8
BLACK
6
CONTINUOUS
10
160.17
20
-125.704
11
160.17
21
-125.717
0
LINE
8
BLACK
6
CONTINUOUS
10
160.17
20
-125.717
11
160.17
21
-125.717
0
LINE
8
BLACK
6
CONTINUOUS
10
160.17
20
-125.717
11
160.17
21
-140.983
0
LINE
8
BLACK
6
CONTINUOUS
10
160.17
20
-140.983
11
160.17
21
-140.983
0
LINE
8
BLACK
6
CONTINUOUS
10
160.17
20
-140.983
11
160.17
21
-140.996
0
LINE
8
BLACK
6
CONTINUOUS
10
160.17
20
-140.996
11
160.165
21
-141.009
0
LINE
8
BLACK
6
CONTINUOUS
10
160.165
20
-141.009
11
160.163
21
-141.022
0
LINE
8
BLACK
6
CONTINUOUS
10
160.163
20
-141.022
11
160.156
21
-141.034
0
LINE
8
BLACK
6
CONTINUOUS
10
160.156
20
-141.034
11
160.152
21
-141.046
0
LINE
8
BLACK
6
CONTINUOUS
10
160.152
20
-141.046
11
160.143
21
-141.056
0
LINE
8
BLACK
6
CONTINUOUS
10
160.143
20
-141.056
11
160.137
21
-141.068
0
LINE
8
BLACK
6
CONTINUOUS
10
160.137
20
-141.068
11
160.126
21
-141.076
0
LINE
8
BLACK
6
CONTINUOUS
10
160.126
20
-141.076
11
160.118
21
-141.087
0
LINE
8
BLACK
6
CONTINUOUS
10
160.118
20
-141.087
11
160.106
21
-141.093
0
LINE
8
BLACK
6
CONTINUOUS
10
160.106
20
-141.093
11
160.096
21
-141.102
0
LINE
8
BLACK
6
CONTINUOUS
10
160.096
20
-141.102
11
160.084
21
-141.106
0
LINE
8
BLACK
6
CONTINUOUS
10
160.084
20
-141.106
11
160.072
21
-141.113
0
LINE
8
BLACK
6
CONTINUOUS
10
160.072
20
-141.113
11
160.059
21
-141.115
0
LINE
8
BLACK
6
CONTINUOUS
10
160.059
20
-141.115
11
160.046
21
-141.12
0
LINE
8
BLACK
6
CONTINUOUS
10
160.046
20
-141.12
11
160.033
21
-141.12
0
LINE
8
BLACK
6
CONTINUOUS
10
160.033
20
-141.12
11
160.033
21
-141.12
0
LINE
8
BLACK
6
CONTINUOUS
10
160.033
20
-141.12
11
144.767
21
-141.12
0
LINE
8
BLACK
6
CONTINUOUS
10
144.767
20
-141.12
11
144.767
21
-141.12
0
LINE
8
BLACK
6
CONTINUOUS
10
144.767
20
-141.12
11
144.754
21
-141.12
0
LINE
8
BLACK
6
CONTINUOUS
10
144.754
20
-141.12
11
144.741
21
-141.115
0
LINE
8
BLACK
6
CONTINUOUS
10
144.741
20
-141.115
11
144.728
21
-141.113
0
LINE
8
BLACK
6
CONTINUOUS
10
144.728
20
-141.113
11
144.716
21
-141.106
0
LINE
8
BLACK
6
CONTINUOUS
10
144.716
20
-141.106
11
144.704
21
-141.102
0
LINE
8
BLACK
6
CONTINUOUS
10
144.704
20
-141.102
11
144.694
21
-141.093
0
LINE
8
BLACK
6
CONTINUOUS
10
144.694
20
-141.093
11
144.682
21
-141.087
0
LINE
8
BLACK
6
CONTINUOUS
10
144.682
20
-141.087
11
144.674
21
-141.076
0
LINE
8
BLACK
6
CONTINUOUS
10
144.674
20
-141.076
11
144.663
21
-141.068
0
LINE
8
BLACK
6
CONTINUOUS
10
144.663
20
-141.068
11
144.657
21
-141.056
0
LINE
8
BLACK
6
CONTINUOUS
10
144.657
20
-141.056
11
144.648
21
-141.046
0
LINE
8
BLACK
6
CONTINUOUS
10
144.648
20
-141.046
11
144.644
21
-141.034
0
LINE
8
BLACK
6
CONTINUOUS
10
144.644
20
-141.034
11
144.637
21
-141.022
0
LINE
8
BLACK
6
CONTINUOUS
10
144.637
20
-141.022
11
144.635
21
-141.009
0
LINE
8
BLACK
6
CONTINUOUS
10
144.635
20
-141.009
11
144.63
21
-140.996
0
LINE
8
BLACK
6
CONTINUOUS
10
144.63
20
-140.996
11
144.63
21
-140.983
0
LINE
8
BLACK
6
CONTINUOUS
10
144.63
20
-140.983
11
144.63
21
-140.983
0
LINE
8
BLACK
6
CONTINUOUS
10
144.63
20
-140.983
11
144.63
21
-125.717
0
LINE
8
BLACK
6
CONTINUOUS
10
144.63
20
-125.717
11
144.63
21
-125.704
0
LINE
8
BLACK
6
CONTINUOUS
10
144.63
20
-125.704
11
144.635
21
-125.691
0
LINE
8
BLACK
6
CONTINUOUS
10
144.635
20
-125.691
11
144.637
21
-125.678
0
LINE
8
BLACK
6
CONTINUOUS
10
144.637
20
-125.678
11
144.644
21
-125.666
0
LINE
8
BLACK
6
CONTINUOUS
10
144.644
20
-125.666
11
144.648
21
-125.654
0
LINE
8
BLACK
6
CONTINUOUS
10
144.648
20
-125.654
11
144.657
21
-125.644
0
LINE
8
BLACK
6
CONTINUOUS
10
144.657
20
-125.644
11
144.663
21
-125.632
0
LINE
8
BLACK
6
CONTINUOUS
10
144.663
20
-125.632
11
144.674
21
-125.624
0
LINE
8
BLACK
6
CONTINUOUS
10
144.674
20
-125.624
11
144.682
21
-125.613
0
LINE
8
BLACK
6
CONTINUOUS
10
144.682
20
-125.613
11
144.694
21
-125.607
0
LINE
8
BLACK
6
CONTINUOUS
10
144.694
20
-125.607
11
144.704
21
-125.598
0
LINE
8
BLACK
6
CONTINUOUS
10
144.704
20
-125.598
11
144.716
21
-125.594
0
LINE
8
BLACK
6
CONTINUOUS
10
144.716
20
-125.594
11
144.728
21
-125.587
0
LINE
8
BLACK
6
CONTINUOUS
10
144.728
20
-125.587
11
144.741
21
-125.585
0
LINE
8
BLACK
6
CONTINUOUS
10
144.741
20
-125.585
11
144.754
21
-125.58
0
LINE
8
BLACK
6
CONTINUOUS
10
144.754
20
-125.58
11
144.767
21
-125.58
0
LINE
8
BLACK
6
CONTINUOUS
10
144.767
20
-125.58
11
144.767
21
-125.58
0
LINE
8
BLACK
6
CONTINUOUS
10
144.767
20
-125.58
11
160.033
21
-125.58
0
LINE
8
BLACK
6
CONTINUOUS
10
160.033
20
-125.58
11
160.033
21
-125.58
0
LINE
8
BLACK
6
CONTINUOUS
10
144.93
20
-125.88
11
144.93
21
-140.82
0
LINE
8
BLACK
6
CONTINUOUS
10
144.93
20
-140.82
11
159.87
21
-140.82
0
LINE
8
BLACK
6
CONTINUOUS
10
159.87
20
-140.82
11
159.87
21
-125.88
0
LINE
8
BLACK
6
CONTINUOUS
10
159.87
20
-125.88
11
144.93
21
-125.88
0
LINE
8
BLACK
6
CONTINUOUS
10
179.083
20
-125.58
11
179.096
21
-125.58
0
LINE
8
BLACK
6
CONTINUOUS
10
179.096
20
-125.58
11
179.109
21
-125.585
0
LINE
8
BLACK
6
CONTINUOUS
10
179.109
20
-125.585
11
179.122
21
-125.587
0
LINE
8
BLACK
6
CONTINUOUS
10
179.122
20
-125.587
11
179.134
21
-125.594
0
LINE
8
BLACK
6
CONTINUOUS
10
179.134
20
-125.594
11
179.146
21
-125.598
0
LINE
8
BLACK
6
CONTINUOUS
10
179.146
20
-125.598
11
179.156
21
-125.607
0
LINE
8
BLACK
6
CONTINUOUS
10
179.156
20
-125.607
11
179.168
21
-125.613
0
LINE
8
BLACK
6
CONTINUOUS
10
179.168
20
-125.613
11
179.176
21
-125.624
0
LINE
8
BLACK
6
CONTINUOUS
10
179.176
20
-125.624
11
179.187
21
-125.632
0
LINE
8
BLACK
6
CONTINUOUS
10
179.187
20
-125.632
11
179.193
21
-125.644
0
LINE
8
BLACK
6
CONTINUOUS
10
179.193
20
-125.644
11
179.202
21
-125.654
0
LINE
8
BLACK
6
CONTINUOUS
10
179.202
20
-125.654
11
179.206
21
-125.666
0
LINE
8
BLACK
6
CONTINUOUS
10
179.206
20
-125.666
11
179.213
21
-125.678
0
LINE
8
BLACK
6
CONTINUOUS
10
179.213
20
-125.678
11
179.215
21
-125.691
0
LINE
8
BLACK
6
CONTINUOUS
10
179.215
20
-125.691
11
179.22
21
-125.704
0
LINE
8
BLACK
6
CONTINUOUS
10
179.22
20
-125.704
11
179.22
21
-125.717
0
LINE
8
BLACK
6
CONTINUOUS
10
179.22
20
-125.717
11
179.22
21
-125.717
0
LINE
8
BLACK
6
CONTINUOUS
10
179.22
20
-125.717
11
179.22
21
-140.983
0
LINE
8
BLACK
6
CONTINUOUS
10
179.22
20
-140.983
11
179.22
21
-140.983
0
LINE
8
BLACK
6
CONTINUOUS
10
179.22
20
-140.983
11
179.22
21
-140.996
0
LINE
8
BLACK
6
CONTINUOUS
10
179.22
20
-140.996
11
179.215
21
-141.009
0
LINE
8
BLACK
6
CONTINUOUS
10
179.215
20
-141.009
11
179.213
21
-141.022
0
LINE
8
BLACK
6
CONTINUOUS
10
179.213
20
-141.022
11
179.206
21
-141.034
0
LINE
8
BLACK
6
CONTINUOUS
10
179.206
20
-141.034
11
179.202
21
-141.046
0
LINE
8
BLACK
6
CONTINUOUS
10
179.202
20
-141.046
11
179.193
21
-141.056
0
LINE
8
BLACK
6
CONTINUOUS
10
179.193
20
-141.056
11
179.187
21
-141.068
0
LINE
8
BLACK
6
CONTINUOUS
10
179.187
20
-141.068
11
179.176
21
-141.076
0
LINE
8
BLACK
6
CONTINUOUS
10
179.176
20
-141.076
11
179.168
21
-141.087
0
LINE
8
BLACK
6
CONTINUOUS
10
179.168
20
-141.087
11
179.156
21
-141.093
0
LINE
8
BLACK
6
CONTINUOUS
10
179.156
20
-141.093
11
179.146
21
-141.102
0
LINE
8
BLACK
6
CONTINUOUS
10
179.146
20
-141.102
11
179.134
21
-141.106
0
LINE
8
BLACK
6
CONTINUOUS
10
179.134
20
-141.106
11
179.122
21
-141.113
0
LINE
8
BLACK
6
CONTINUOUS
10
179.122
20
-141.113
11
179.109
21
-141.115
0
LINE
8
BLACK
6
CONTINUOUS
10
179.109
20
-141.115
11
179.096
21
-141.12
0
LINE
8
BLACK
6
CONTINUOUS
10
179.096
20
-141.12
11
179.083
21
-141.12
0
LINE
8
BLACK
6
CONTINUOUS
10
179.083
20
-141.12
11
179.083
21
-141.12
0
LINE
8
BLACK
6
CONTINUOUS
10
179.083
20
-141.12
11
163.817
21
-141.12
0
LINE
8
BLACK
6
CONTINUOUS
10
163.817
20
-141.12
11
163.817
21
-141.12
0
LINE
8
BLACK
6
CONTINUOUS
10
163.817
20
-141.12
11
163.804
21
-141.12
0
LINE
8
BLACK
6
CONTINUOUS
10
163.804
20
-141.12
11
163.791
21
-141.115
0
LINE
8
BLACK
6
CONTINUOUS
10
163.791
20
-141.115
11
163.778
21
-141.113
0
LINE
8
BLACK
6
CONTINUOUS
10
163.778
20
-141.113
11
163.766
21
-141.106
0
LINE
8
BLACK
6
CONTINUOUS
10
163.766
20
-141.106
11
163.754
21
-141.102
0
LINE
8
BLACK
6
CONTINUOUS
10
163.754
20
-141.102
11
163.744
21
-141.093
0
LINE
8
BLACK
6
CONTINUOUS
10
163.744
20
-141.093
11
163.732
21
-141.087
0
LINE
8
BLACK
6
CONTINUOUS
10
163.732
20
-141.087
11
163.724
21
-141.076
0
LINE
8
BLACK
6
CONTINUOUS
10
163.724
20
-141.076
11
163.713
21
-141.068
0
LINE
8
BLACK
6
CONTINUOUS
10
163.713
20
-141.068
11
163.707
21
-141.056
0
LINE
8
BLACK
6
CONTINUOUS
10
163.707
20
-141.056
11
163.698
21
-141.046
0
LINE
8
BLACK
6
CONTINUOUS
10
163.698
20
-141.046
11
163.694
21
-141.034
0
LINE
8
BLACK
6
CONTINUOUS
10
163.694
20
-141.034
11
163.687
21
-141.022
0
LINE
8
BLACK
6
CONTINUOUS
10
163.687
20
-141.022
11
163.685
21
-141.009
0
LINE
8
BLACK
6
CONTINUOUS
10
163.685
20
-141.009
11
163.68
21
-140.996
0
LINE
8
BLACK
6
CONTINUOUS
10
163.68
20
-140.996
11
163.68
21
-140.983
0
LINE
8
BLACK
6
CONTINUOUS
10
163.68
20
-140.983
11
163.68
21
-140.983
0
LINE
8
BLACK
6
CONTINUOUS
10
163.68
20
-140.983
11
163.68
21
-125.717
0
LINE
8
BLACK
6
CONTINUOUS
10
163.68
20
-125.717
11
163.68
21
-125.704
0
LINE
8
BLACK
6
CONTINUOUS
10
163.68
20
-125.704
11
163.685
21
-125.691
0
LINE
8
BLACK
6
CONTINUOUS
10
163.685
20
-125.691
11
163.687
21
-125.678
0
LINE
8
BLACK
6
CONTINUOUS
10
163.687
20
-125.678
11
163.694
21
-125.666
0
LINE
8
BLACK
6
CONTINUOUS
10
163.694
20
-125.666
11
163.698
21
-125.654
0
LINE
8
BLACK
6
CONTINUOUS
10
163.698
20
-125.654
11
163.707
21
-125.644
0
LINE
8
BLACK
6
CONTINUOUS
10
163.707
20
-125.644
11
163.713
21
-125.632
0
LINE
8
BLACK
6
CONTINUOUS
10
163.713
20
-125.632
11
163.724
21
-125.624
0
LINE
8
BLACK
6
CONTINUOUS
10
163.724
20
-125.624
11
163.732
21
-125.613
0
LINE
8
BLACK
6
CONTINUOUS
10
163.732
20
-125.613
11
163.744
21
-125.607
0
LINE
8
BLACK
6
CONTINUOUS
10
163.744
20
-125.607
11
163.754
21
-125.598
0
LINE
8
BLACK
6
CONTINUOUS
10
163.754
20
-125.598
11
163.766
21
-125.594
0
LINE
8
BLACK
6
CONTINUOUS
10
163.766
20
-125.594
11
163.778
21
-125.587
0
LINE
8
BLACK
6
CONTINUOUS
10
163.778
20
-125.587
11
163.791
21
-125.585
0
LINE
8
BLACK
6
CONTINUOUS
10
163.791
20
-125.585
11
163.804
21
-125.58
0
LINE
8
BLACK
6
CONTINUOUS
10
163.804
20
-125.58
11
163.817
21
-125.58
0
LINE
8
BLACK
6
CONTINUOUS
10
163.817
20
-125.58
11
163.817
21
-125.58
0
LINE
8
BLACK
6
CONTINUOUS
10
163.817
20
-125.58
11
179.083
21
-125.58
0
LINE
8
BLACK
6
CONTINUOUS
10
179.083
20
-125.58
11
179.083
21
-125.58
0
LINE
8
BLACK
6
CONTINUOUS
10
163.98
20
-125.88
11
163.98
21
-140.82
0
LINE
8
BLACK
6
CONTINUOUS
10
163.98
20
-140.82
11
178.92
21
-140.82
0
LINE
8
BLACK
6
CONTINUOUS
10
178.92
20
-140.82
11
178.92
21
-125.88
0
LINE
8
BLACK
6
CONTINUOUS
10
178.92
20
-125.88
11
163.98
21
-125.88
0
LINE
8
BLACK
6
CONTINUOUS
10
198.133
20
-117.96
11
198.146
21
-117.96
0
LINE
8
BLACK
6
CONTINUOUS
10
198.146
20
-117.96
11
198.159
21
-117.965
0
LINE
8
BLACK
6
CONTINUOUS
10
198.159
20
-117.965
11
198.172
21
-117.967
0
LINE
8
BLACK
6
CONTINUOUS
10
198.172
20
-117.967
11
198.184
21
-117.974
0
LINE
8
BLACK
6
CONTINUOUS
10
198.184
20
-117.974
11
198.196
21
-117.978
0
LINE
8
BLACK
6
CONTINUOUS
10
198.196
20
-117.978
11
198.206
21
-117.987
0
LINE
8
BLACK
6
CONTINUOUS
10
198.206
20
-117.987
11
198.218
21
-117.993
0
LINE
8
BLACK
6
CONTINUOUS
10
198.218
20
-117.993
11
198.226
21
-118.004
0
LINE
8
BLACK
6
CONTINUOUS
10
198.226
20
-118.004
11
198.237
21
-118.012
0
LINE
8
BLACK
6
CONTINUOUS
10
198.237
20
-118.012
11
198.243
21
-118.024
0
LINE
8
BLACK
6
CONTINUOUS
10
198.243
20
-118.024
11
198.252
21
-118.034
0
LINE
8
BLACK
6
CONTINUOUS
10
198.252
20
-118.034
11
198.256
21
-118.046
0
LINE
8
BLACK
6
CONTINUOUS
10
198.256
20
-118.046
11
198.263
21
-118.058
0
LINE
8
BLACK
6
CONTINUOUS
10
198.263
20
-118.058
11
198.265
21
-118.071
0
LINE
8
BLACK
6
CONTINUOUS
10
198.265
20
-118.071
11
198.27
21
-118.084
0
LINE
8
BLACK
6
CONTINUOUS
10
198.27
20
-118.084
11
198.27
21
-118.097
0
LINE
8
BLACK
6
CONTINUOUS
10
198.27
20
-118.097
11
198.27
21
-118.097
0
LINE
8
BLACK
6
CONTINUOUS
10
198.27
20
-118.097
11
198.27
21
-133.363
0
LINE
8
BLACK
6
CONTINUOUS
10
198.27
20
-133.363
11
198.27
21
-133.363
0
LINE
8
BLACK
6
CONTINUOUS
10
198.27
20
-133.363
11
198.27
21
-133.376
0
LINE
8
BLACK
6
CONTINUOUS
10
198.27
20
-133.376
11
198.265
21
-133.389
0
LINE
8
BLACK
6
CONTINUOUS
10
198.265
20
-133.389
11
198.263
21
-133.402
0
LINE
8
BLACK
6
CONTINUOUS
10
198.263
20
-133.402
11
198.256
21
-133.414
0
LINE
8
BLACK
6
CONTINUOUS
10
198.256
20
-133.414
11
198.252
21
-133.426
0
LINE
8
BLACK
6
CONTINUOUS
10
198.252
20
-133.426
11
198.243
21
-133.436
0
LINE
8
BLACK
6
CONTINUOUS
10
198.243
20
-133.436
11
198.237
21
-133.448
0
LINE
8
BLACK
6
CONTINUOUS
10
198.237
20
-133.448
11
198.226
21
-133.456
0
LINE
8
BLACK
6
CONTINUOUS
10
198.226
20
-133.456
11
198.218
21
-133.467
0
LINE
8
BLACK
6
CONTINUOUS
10
198.218
20
-133.467
11
198.206
21
-133.473
0
LINE
8
BLACK
6
CONTINUOUS
10
198.206
20
-133.473
11
198.196
21
-133.482
0
LINE
8
BLACK
6
CONTINUOUS
10
198.196
20
-133.482
11
198.184
21
-133.486
0
LINE
8
BLACK
6
CONTINUOUS
10
198.184
20
-133.486
11
198.172
21
-133.493
0
LINE
8
BLACK
6
CONTINUOUS
10
198.172
20
-133.493
11
198.159
21
-133.495
0
LINE
8
BLACK
6
CONTINUOUS
10
198.159
20
-133.495
11
198.146
21
-133.5
0
LINE
8
BLACK
6
CONTINUOUS
10
198.146
20
-133.5
11
198.133
21
-133.5
0
LINE
8
BLACK
6
CONTINUOUS
10
198.133
20
-133.5
11
198.133
21
-133.5
0
LINE
8
BLACK
6
CONTINUOUS
10
198.133
20
-133.5
11
182.867
21
-133.5
0
LINE
8
BLACK
6
CONTINUOUS
10
182.867
20
-133.5
11
182.867
21
-133.5
0
LINE
8
BLACK
6
CONTINUOUS
10
182.867
20
-133.5
11
182.854
21
-133.5
0
LINE
8
BLACK
6
CONTINUOUS
10
182.854
20
-133.5
11
182.841
21
-133.495
0
LINE
8
BLACK
6
CONTINUOUS
10
182.841
20
-133.495
11
182.828
21
-133.493
0
LINE
8
BLACK
6
CONTINUOUS
10
182.828
20
-133.493
11
182.816
21
-133.486
0
LINE
8
BLACK
6
CONTINUOUS
10
182.816
20
-133.486
11
182.804
21
-133.482
0
LINE
8
BLACK
6
CONTINUOUS
10
182.804
20
-133.482
11
182.794
21
-133.473
0
LINE
8
BLACK
6
CONTINUOUS
10
182.794
20
-133.473
11
182.782
21
-133.467
0
LINE
8
BLACK
6
CONTINUOUS
10
182.782
20
-133.467
11
182.774
21
-133.456
0
LINE
8
BLACK
6
CONTINUOUS
10
182.774
20
-133.456
11
182.763
21
-133.448
0
LINE
8
BLACK
6
CONTINUOUS
10
182.763
20
-133.448
11
182.757
21
-133.436
0
LINE
8
BLACK
6
CONTINUOUS
10
182.757
20
-133.436
11
182.748
21
-133.426
0
LINE
8
BLACK
6
CONTINUOUS
10
182.748
20
-133.426
11
182.744
21
-133.414
0
LINE
8
BLACK
6
CONTINUOUS
10
182.744
20
-133.414
11
182.737
21
-133.402
0
LINE
8
BLACK
6
CONTINUOUS
10
182.737
20
-133.402
11
182.735
21
-133.389
0
LINE
8
BLACK
6
CONTINUOUS
10
182.735
20
-133.389
11
182.73
21
-133.376
0
LINE
8
BLACK
6
CONTINUOUS
10
182.73
20
-133.376
11
182.73
21
-133.363
0
LINE
8
BLACK
6
CONTINUOUS
10
182.73
20
-133.363
11
182.73
21
-133.363
0
LINE
8
BLACK
6
CONTINUOUS
10
182.73
20
-133.363
11
182.73
21
-118.097
0
LINE
8
BLACK
6
CONTINUOUS
10
182.73
20
-118.097
11
182.73
21
-118.084
0
LINE
8
BLACK
6
CONTINUOUS
10
182.73
20
-118.084
11
182.735
21
-118.071
0
LINE
8
BLACK
6
CONTINUOUS
10
182.735
20
-118.071
11
182.737
21
-118.058
0
LINE
8
BLACK
6
CONTINUOUS
10
182.737
20
-118.058
11
182.744
21
-118.046
0
LINE
8
BLACK
6
CONTINUOUS
10
182.744
20
-118.046
11
182.748
21
-118.034
0
LINE
8
BLACK
6
CONTINUOUS
10
182.748
20
-118.034
11
182.757
21
-118.024
0
LINE
8
BLACK
6
CONTINUOUS
10
182.757
20
-118.024
11
182.763
21
-118.012
0
LINE
8
BLACK
6
CONTINUOUS
10
182.763
20
-118.012
11
182.774
21
-118.004
0
LINE
8
BLACK
6
CONTINUOUS
10
182.774
20
-118.004
11
182.782
21
-117.993
0
LINE
8
BLACK
6
CONTINUOUS
10
182.782
20
-117.993
11
182.794
21
-117.987
0
LINE
8
BLACK
6
CONTINUOUS
10
182.794
20
-117.987
11
182.804
21
-117.978
0
LINE
8
BLACK
6
CONTINUOUS
10
182.804
20
-117.978
11
182.816
21
-117.974
0
LINE
8
BLACK
6
CONTINUOUS
10
182.816
20
-117.974
11
182.828
21
-117.967
0
LINE
8
BLACK
6
CONTINUOUS
10
182.828
20
-117.967
11
182.841
21
-117.965
0
LINE
8
BLACK
6
CONTINUOUS
10
182.841
20
-117.965
11
182.854
21
-117.96
0
LINE
8
BLACK
6
CONTINUOUS
10
182.854
20
-117.96
11
182.867
21
-117.96
0
LINE
8
BLACK
6
CONTINUOUS
10
182.867
20
-117.96
11
182.867
21
-117.96
0
LINE
8
BLACK
6
CONTINUOUS
10
182.867
20
-117.96
11
198.133
21
-117.96
0
LINE
8
BLACK
6
CONTINUOUS
10
198.133
20
-117.96
11
198.133
21
-117.96
0
LINE
8
BLACK
6
CONTINUOUS
10
183.03
20
-118.26
11
183.03
21
-133.2
0
LINE
8
BLACK
6
CONTINUOUS
10
183.03
20
-133.2
11
197.97
21
-133.2
0
LINE
8
BLACK
6
CONTINUOUS
10
197.97
20
-133.2
11
197.97
21
-118.26
0
LINE
8
BLACK
6
CONTINUOUS
10
197.97
20
-118.26
11
183.03
21
-118.26
0
LINE
8
BLACK
6
CONTINUOUS
10
217.183
20
-117.96
11
217.196
21
-117.96
0
LINE
8
BLACK
6
CONTINUOUS
10
217.196
20
-117.96
11
217.209
21
-117.965
0
LINE
8
BLACK
6
CONTINUOUS
10
217.209
20
-117.965
11
217.222
21
-117.967
0
LINE
8
BLACK
6
CONTINUOUS
10
217.222
20
-117.967
11
217.234
21
-117.974
0
LINE
8
BLACK
6
CONTINUOUS
10
217.234
20
-117.974
11
217.246
21
-117.978
0
LINE
8
BLACK
6
CONTINUOUS
10
217.246
20
-117.978
11
217.256
21
-117.987
0
LINE
8
BLACK
6
CONTINUOUS
10
217.256
20
-117.987
11
217.268
21
-117.993
0
LINE
8
BLACK
6
CONTINUOUS
10
217.268
20
-117.993
11
217.276
21
-118.004
0
LINE
8
BLACK
6
CONTINUOUS
10
217.276
20
-118.004
11
217.287
21
-118.012
0
LINE
8
BLACK
6
CONTINUOUS
10
217.287
20
-118.012
11
217.293
21
-118.024
0
LINE
8
BLACK
6
CONTINUOUS
10
217.293
20
-118.024
11
217.302
21
-118.034
0
LINE
8
BLACK
6
CONTINUOUS
10
217.302
20
-118.034
11
217.306
21
-118.046
0
LINE
8
BLACK
6
CONTINUOUS
10
217.306
20
-118.046
11
217.313
21
-118.058
0
LINE
8
BLACK
6
CONTINUOUS
10
217.313
20
-118.058
11
217.315
21
-118.071
0
LINE
8
BLACK
6
CONTINUOUS
10
217.315
20
-118.071
11
217.32
21
-118.084
0
LINE
8
BLACK
6
CONTINUOUS
10
217.32
20
-118.084
11
217.32
21
-118.097
0
LINE
8
BLACK
6
CONTINUOUS
10
217.32
20
-118.097
11
217.32
21
-118.097
0
LINE
8
BLACK
6
CONTINUOUS
10
217.32
20
-118.097
11
217.32
21
-133.363
0
LINE
8
BLACK
6
CONTINUOUS
10
217.32
20
-133.363
11
217.32
21
-133.363
0
LINE
8
BLACK
6
CONTINUOUS
10
217.32
20
-133.363
11
217.32
21
-133.376
0
LINE
8
BLACK
6
CONTINUOUS
10
217.32
20
-133.376
11
217.315
21
-133.389
0
LINE
8
BLACK
6
CONTINUOUS
10
217.315
20
-133.389
11
217.313
21
-133.402
0
LINE
8
BLACK
6
CONTINUOUS
10
217.313
20
-133.402
11
217.306
21
-133.414
0
LINE
8
BLACK
6
CONTINUOUS
10
217.306
20
-133.414
11
217.302
21
-133.426
0
LINE
8
BLACK
6
CONTINUOUS
10
217.302
20
-133.426
11
217.293
21
-133.436
0
LINE
8
BLACK
6
CONTINUOUS
10
217.293
20
-133.436
11
217.287
21
-133.448
0
LINE
8
BLACK
6
CONTINUOUS
10
217.287
20
-133.448
11
217.276
21
-133.456
0
LINE
8
BLACK
6
CONTINUOUS
10
217.276
20
-133.456
11
217.268
21
-133.467
0
LINE
8
BLACK
6
CONTINUOUS
10
217.268
20
-133.467
11
217.256
21
-133.473
0
LINE
8
BLACK
6
CONTINUOUS
10
217.256
20
-133.473
11
217.246
21
-133.482
0
LINE
8
BLACK
6
CONTINUOUS
10
217.246
20
-133.482
11
217.234
21
-133.486
0
LINE
8
BLACK
6
CONTINUOUS
10
217.234
20
-133.486
11
217.222
21
-133.493
0
LINE
8
BLACK
6
CONTINUOUS
10
217.222
20
-133.493
11
217.209
21
-133.495
0
LINE
8
BLACK
6
CONTINUOUS
10
217.209
20
-133.495
11
217.196
21
-133.5
0
LINE
8
BLACK
6
CONTINUOUS
10
217.196
20
-133.5
11
217.183
21
-133.5
0
LINE
8
BLACK
6
CONTINUOUS
10
217.183
20
-133.5
11
217.183
21
-133.5
0
LINE
8
BLACK
6
CONTINUOUS
10
217.183
20
-133.5
11
201.917
21
-133.5
0
LINE
8
BLACK
6
CONTINUOUS
10
201.917
20
-133.5
11
201.917
21
-133.5
0
LINE
8
BLACK
6
CONTINUOUS
10
201.917
20
-133.5
11
201.904
21
-133.5
0
LINE
8
BLACK
6
CONTINUOUS
10
201.904
20
-133.5
11
201.891
21
-133.495
0
LINE
8
BLACK
6
CONTINUOUS
10
201.891
20
-133.495
11
201.878
21
-133.493
0
LINE
8
BLACK
6
CONTINUOUS
10
201.878
20
-133.493
11
201.866
21
-133.486
0
LINE
8
BLACK
6
CONTINUOUS
10
201.866
20
-133.486
11
201.854
21
-133.482
0
LINE
8
BLACK
6
CONTINUOUS
10
201.854
20
-133.482
11
201.844
21
-133.473
0
LINE
8
BLACK
6
CONTINUOUS
10
201.844
20
-133.473
11
201.832
21
-133.467
0
LINE
8
BLACK
6
CONTINUOUS
10
201.832
20
-133.467
11
201.824
21
-133.456
0
LINE
8
BLACK
6
CONTINUOUS
10
201.824
20
-133.456
11
201.813
21
-133.448
0
LINE
8
BLACK
6
CONTINUOUS
10
201.813
20
-133.448
11
201.807
21
-133.436
0
LINE
8
BLACK
6
CONTINUOUS
10
201.807
20
-133.436
11
201.798
21
-133.426
0
LINE
8
BLACK
6
CONTINUOUS
10
201.798
20
-133.426
11
201.794
21
-133.414
0
LINE
8
BLACK
6
CONTINUOUS
10
201.794
20
-133.414
11
201.787
21
-133.402
0
LINE
8
BLACK
6
CONTINUOUS
10
201.787
20
-133.402
11
201.785
21
-133.389
0
LINE
8
BLACK
6
CONTINUOUS
10
201.785
20
-133.389
11
201.78
21
-133.376
0
LINE
8
BLACK
6
CONTINUOUS
10
201.78
20
-133.376
11
201.78
21
-133.363
0
LINE
8
BLACK
6
CONTINUOUS
10
201.78
20
-133.363
11
201.78
21
-133.363
0
LINE
8
BLACK
6
CONTINUOUS
10
201.78
20
-133.363
11
201.78
21
-118.097
0
LINE
8
BLACK
6
CONTINUOUS
10
201.78
20
-118.097
11
201.78
21
-118.084
0
LINE
8
BLACK
6
CONTINUOUS
10
201.78
20
-118.084
11
201.785
21
-118.071
0
LINE
8
BLACK
6
CONTINUOUS
10
201.785
20
-118.071
11
201.787
21
-118.058
0
LINE
8
BLACK
6
CONTINUOUS
10
201.787
20
-118.058
11
201.794
21
-118.046
0
LINE
8
BLACK
6
CONTINUOUS
10
201.794
20
-118.046
11
201.798
21
-118.034
0
LINE
8
BLACK
6
CONTINUOUS
10
201.798
20
-118.034
11
201.807
21
-118.024
0
LINE
8
BLACK
6
CONTINUOUS
10
201.807
20
-118.024
11
201.813
21
-118.012
0
LINE
8
BLACK
6
CONTINUOUS
10
201.813
20
-118.012
11
201.824
21
-118.004
0
LINE
8
BLACK
6
CONTINUOUS
10
201.824
20
-118.004
11
201.832
21
-117.993
0
LINE
8
BLACK
6
CONTINUOUS
10
201.832
20
-117.993
11
201.844
21
-117.987
0
LINE
8
BLACK
6
CONTINUOUS
10
201.844
20
-117.987
11
201.854
21
-117.978
0
LINE
8
BLACK
6
CONTINUOUS
10
201.854
20
-117.978
11
201.866
21
-117.974
0
LINE
8
BLACK
6
CONTINUOUS
10
201.866
20
-117.974
11
201.878
21
-117.967
0
LINE
8
BLACK
6
CONTINUOUS
10
201.878
20
-117.967
11
201.891
21
-117.965
0
LINE
8
BLACK
6
CONTINUOUS
10
201.891
20
-117.965
11
201.904
21
-117.96
0
LINE
8
BLACK
6
CONTINUOUS
10
201.904
20
-117.96
11
201.917
21
-117.96
0
LINE
8
BLACK
6
CONTINUOUS
10
201.917
20
-117.96
11
201.917
21
-117.96
0
LINE
8
BLACK
6
CONTINUOUS
10
201.917
20
-117.96
11
217.183
21
-117.96
0
LINE
8
BLACK
6
CONTINUOUS
10
217.183
20
-117.96
11
217.183
21
-117.96
0
LINE
8
BLACK
6
CONTINUOUS
10
202.08
20
-118.26
11
202.08
21
-133.2
0
LINE
8
BLACK
6
CONTINUOUS
10
202.08
20
-133.2
11
217.02
21
-133.2
0
LINE
8
BLACK
6
CONTINUOUS
10
217.02
20
-133.2
11
217.02
21
-118.26
0
LINE
8
BLACK
6
CONTINUOUS
10
217.02
20
-118.26
11
202.08
21
-118.26
0
LINE
8
BLACK
6
CONTINUOUS
10
98.6299
20
-113.303
11
98.6433
21
-113.303
0
LINE
8
BLACK
6
CONTINUOUS
10
98.6433
20
-113.303
11
98.6558
21
-113.308
0
LINE
8
BLACK
6
CONTINUOUS
10
98.6558
20
-113.308
11
98.6689
21
-113.31
0
LINE
8
BLACK
6
CONTINUOUS
10
98.6689
20
-113.31
11
98.6804
21
-113.316
0
LINE
8
BLACK
6
CONTINUOUS
10
98.6804
20
-113.316
11
98.693
21
-113.321
0
LINE
8
BLACK
6
CONTINUOUS
10
98.693
20
-113.321
11
98.7032
21
-113.33
0
LINE
8
BLACK
6
CONTINUOUS
10
98.7032
20
-113.33
11
98.7147
21
-113.336
0
LINE
8
BLACK
6
CONTINUOUS
10
98.7147
20
-113.336
11
98.7233
21
-113.346
0
LINE
8
BLACK
6
CONTINUOUS
10
98.7233
20
-113.346
11
98.7335
21
-113.355
0
LINE
8
BLACK
6
CONTINUOUS
10
98.7335
20
-113.355
11
98.7402
21
-113.367
0
LINE
8
BLACK
6
CONTINUOUS
10
98.7402
20
-113.367
11
98.7487
21
-113.377
0
LINE
8
BLACK
6
CONTINUOUS
10
98.7487
20
-113.377
11
98.7533
21
-113.389
0
LINE
8
BLACK
6
CONTINUOUS
10
98.7533
20
-113.389
11
98.7533
21
-113.389
0
LINE
8
BLACK
6
CONTINUOUS
10
98.7533
20
-113.389
11
103.975
21
-127.735
0
LINE
8
BLACK
6
CONTINUOUS
10
103.975
20
-127.735
11
103.975
21
-127.735
0
LINE
8
BLACK
6
CONTINUOUS
10
103.975
20
-127.735
11
103.979
21
-127.747
0
LINE
8
BLACK
6
CONTINUOUS
10
103.979
20
-127.747
11
103.979
21
-127.761
0
LINE
8
BLACK
6
CONTINUOUS
10
103.979
20
-127.761
11
103.982
21
-127.774
0
LINE
8
BLACK
6
CONTINUOUS
10
103.982
20
-127.774
11
103.979
21
-127.787
0
LINE
8
BLACK
6
CONTINUOUS
10
103.979
20
-127.787
11
103.979
21
-127.8
0
LINE
8
BLACK
6
CONTINUOUS
10
103.979
20
-127.8
11
103.975
21
-127.813
0
LINE
8
BLACK
6
CONTINUOUS
10
103.975
20
-127.813
11
103.972
21
-127.826
0
LINE
8
BLACK
6
CONTINUOUS
10
103.972
20
-127.826
11
103.966
21
-127.838
0
LINE
8
BLACK
6
CONTINUOUS
10
103.966
20
-127.838
11
103.961
21
-127.85
0
LINE
8
BLACK
6
CONTINUOUS
10
103.961
20
-127.85
11
103.953
21
-127.86
0
LINE
8
BLACK
6
CONTINUOUS
10
103.953
20
-127.86
11
103.946
21
-127.872
0
LINE
8
BLACK
6
CONTINUOUS
10
103.946
20
-127.872
11
103.936
21
-127.88
0
LINE
8
BLACK
6
CONTINUOUS
10
103.936
20
-127.88
11
103.927
21
-127.891
0
LINE
8
BLACK
6
CONTINUOUS
10
103.927
20
-127.891
11
103.916
21
-127.897
0
LINE
8
BLACK
6
CONTINUOUS
10
103.916
20
-127.897
11
103.905
21
-127.906
0
LINE
8
BLACK
6
CONTINUOUS
10
103.905
20
-127.906
11
103.893
21
-127.91
0
LINE
8
BLACK
6
CONTINUOUS
10
103.893
20
-127.91
11
103.893
21
-127.91
0
LINE
8
BLACK
6
CONTINUOUS
10
103.893
20
-127.91
11
89.5473
21
-133.132
0
LINE
8
BLACK
6
CONTINUOUS
10
89.5473
20
-133.132
11
89.5473
21
-133.132
0
LINE
8
BLACK
6
CONTINUOUS
10
89.5473
20
-133.132
11
89.5347
21
-133.136
0
LINE
8
BLACK
6
CONTINUOUS
10
89.5347
20
-133.136
11
89.5214
21
-133.136
0
LINE
8
BLACK
6
CONTINUOUS
10
89.5214
20
-133.136
11
89.5083
21
-133.139
0
LINE
8
BLACK
6
CONTINUOUS
10
89.5083
20
-133.139
11
89.4952
21
-133.136
0
LINE
8
BLACK
6
CONTINUOUS
10
89.4952
20
-133.136
11
89.4818
21
-133.136
0
LINE
8
BLACK
6
CONTINUOUS
10
89.4818
20
-133.136
11
89.4693
21
-133.132
0
LINE
8
BLACK
6
CONTINUOUS
10
89.4693
20
-133.132
11
89.4562
21
-133.129
0
LINE
8
BLACK
6
CONTINUOUS
10
89.4562
20
-133.129
11
89.4447
21
-133.123
0
LINE
8
BLACK
6
CONTINUOUS
10
89.4447
20
-133.123
11
89.4321
21
-133.118
0
LINE
8
BLACK
6
CONTINUOUS
10
89.4321
20
-133.118
11
89.4219
21
-133.11
0
LINE
8
BLACK
6
CONTINUOUS
10
89.4219
20
-133.11
11
89.4104
21
-133.103
0
LINE
8
BLACK
6
CONTINUOUS
10
89.4104
20
-133.103
11
89.4018
21
-133.093
0
LINE
8
BLACK
6
CONTINUOUS
10
89.4018
20
-133.093
11
89.3916
21
-133.084
0
LINE
8
BLACK
6
CONTINUOUS
10
89.3916
20
-133.084
11
89.3849
21
-133.073
0
LINE
8
BLACK
6
CONTINUOUS
10
89.3849
20
-133.073
11
89.3764
21
-133.062
0
LINE
8
BLACK
6
CONTINUOUS
10
89.3764
20
-133.062
11
89.3718
21
-133.05
0
LINE
8
BLACK
6
CONTINUOUS
10
89.3718
20
-133.05
11
89.3718
21
-133.05
0
LINE
8
BLACK
6
CONTINUOUS
10
89.3718
20
-133.05
11
84.1505
21
-118.704
0
LINE
8
BLACK
6
CONTINUOUS
10
84.1505
20
-118.704
11
84.1505
21
-118.704
0
LINE
8
BLACK
6
CONTINUOUS
10
84.1505
20
-118.704
11
84.1459
21
-118.692
0
LINE
8
BLACK
6
CONTINUOUS
10
84.1459
20
-118.692
11
84.1459
21
-118.678
0
LINE
8
BLACK
6
CONTINUOUS
10
84.1459
20
-118.678
11
84.1436
21
-118.665
0
LINE
8
BLACK
6
CONTINUOUS
10
84.1436
20
-118.665
11
84.1459
21
-118.652
0
LINE
8
BLACK
6
CONTINUOUS
10
84.1459
20
-118.652
11
84.1459
21
-118.639
0
LINE
8
BLACK
6
CONTINUOUS
10
84.1459
20
-118.639
11
84.1505
21
-118.626
0
LINE
8
BLACK
6
CONTINUOUS
10
84.1505
20
-118.626
11
84.1528
21
-118.613
0
LINE
8
BLACK
6
CONTINUOUS
10
84.1528
20
-118.613
11
84.1594
21
-118.602
0
LINE
8
BLACK
6
CONTINUOUS
10
84.1594
20
-118.602
11
84.164
21
-118.589
0
LINE
8
BLACK
6
CONTINUOUS
10
84.164
20
-118.589
11
84.1726
21
-118.579
0
LINE
8
BLACK
6
CONTINUOUS
10
84.1726
20
-118.579
11
84.1792
21
-118.567
0
LINE
8
BLACK
6
CONTINUOUS
10
84.1792
20
-118.567
11
84.1894
21
-118.559
0
LINE
8
BLACK
6
CONTINUOUS
10
84.1894
20
-118.559
11
84.198
21
-118.549
0
LINE
8
BLACK
6
CONTINUOUS
10
84.198
20
-118.549
11
84.2095
21
-118.542
0
LINE
8
BLACK
6
CONTINUOUS
10
84.2095
20
-118.542
11
84.2197
21
-118.533
0
LINE
8
BLACK
6
CONTINUOUS
10
84.2197
20
-118.533
11
84.2323
21
-118.529
0
LINE
8
BLACK
6
CONTINUOUS
10
84.2323
20
-118.529
11
84.2323
21
-118.529
0
LINE
8
BLACK
6
CONTINUOUS
10
84.2323
20
-118.529
11
98.5778
21
-113.308
0
LINE
8
BLACK
6
CONTINUOUS
10
98.5778
20
-113.308
11
98.5778
21
-113.308
0
LINE
8
BLACK
6
CONTINUOUS
10
98.5778
20
-113.308
11
98.5904
21
-113.303
0
LINE
8
BLACK
6
CONTINUOUS
10
98.5904
20
-113.303
11
98.6037
21
-113.303
0
LINE
8
BLACK
6
CONTINUOUS
10
98.6037
20
-113.303
11
98.6168
21
-113.301
0
LINE
8
BLACK
6
CONTINUOUS
10
98.6168
20
-113.301
11
98.6299
21
-113.303
0
LINE
8
BLACK
6
CONTINUOUS
10
84.4882
20
-118.755
11
89.5979
21
-132.794
0
LINE
8
BLACK
6
CONTINUOUS
10
89.5979
20
-132.794
11
103.637
21
-127.684
0
LINE
8
BLACK
6
CONTINUOUS
10
103.637
20
-127.684
11
98.5272
21
-113.645
0
LINE
8
BLACK
6
CONTINUOUS
10
98.5272
20
-113.645
11
84.4882
21
-118.755
0
LINE
8
BLACK
6
CONTINUOUS
10
179.083
20
-106.53
11
179.096
21
-106.53
0
LINE
8
BLACK
6
CONTINUOUS
10
179.096
20
-106.53
11
179.109
21
-106.535
0
LINE
8
BLACK
6
CONTINUOUS
10
179.109
20
-106.535
11
179.122
21
-106.537
0
LINE
8
BLACK
6
CONTINUOUS
10
179.122
20
-106.537
11
179.134
21
-106.544
0
LINE
8
BLACK
6
CONTINUOUS
10
179.134
20
-106.544
11
179.146
21
-106.548
0
LINE
8
BLACK
6
CONTINUOUS
10
179.146
20
-106.548
11
179.156
21
-106.557
0
LINE
8
BLACK
6
CONTINUOUS
10
179.156
20
-106.557
11
179.168
21
-106.563
0
LINE
8
BLACK
6
CONTINUOUS
10
179.168
20
-106.563
11
179.176
21
-106.574
0
LINE
8
BLACK
6
CONTINUOUS
10
179.176
20
-106.574
11
179.187
21
-106.582
0
LINE
8
BLACK
6
CONTINUOUS
10
179.187
20
-106.582
11
179.193
21
-106.594
0
LINE
8
BLACK
6
CONTINUOUS
10
179.193
20
-106.594
11
179.202
21
-106.604
0
LINE
8
BLACK
6
CONTINUOUS
10
179.202
20
-106.604
11
179.206
21
-106.616
0
LINE
8
BLACK
6
CONTINUOUS
10
179.206
20
-106.616
11
179.213
21
-106.628
0
LINE
8
BLACK
6
CONTINUOUS
10
179.213
20
-106.628
11
179.215
21
-106.641
0
LINE
8
BLACK
6
CONTINUOUS
10
179.215
20
-106.641
11
179.22
21
-106.654
0
LINE
8
BLACK
6
CONTINUOUS
10
179.22
20
-106.654
11
179.22
21
-106.667
0
LINE
8
BLACK
6
CONTINUOUS
10
179.22
20
-106.667
11
179.22
21
-106.667
0
LINE
8
BLACK
6
CONTINUOUS
10
179.22
20
-106.667
11
179.22
21
-121.933
0
LINE
8
BLACK
6
CONTINUOUS
10
179.22
20
-121.933
11
179.22
21
-121.933
0
LINE
8
BLACK
6
CONTINUOUS
10
179.22
20
-121.933
11
179.22
21
-121.946
0
LINE
8
BLACK
6
CONTINUOUS
10
179.22
20
-121.946
11
179.215
21
-121.959
0
LINE
8
BLACK
6
CONTINUOUS
10
179.215
20
-121.959
11
179.213
21
-121.972
0
LINE
8
BLACK
6
CONTINUOUS
10
179.213
20
-121.972
11
179.206
21
-121.984
0
LINE
8
BLACK
6
CONTINUOUS
10
179.206
20
-121.984
11
179.202
21
-121.996
0
LINE
8
BLACK
6
CONTINUOUS
10
179.202
20
-121.996
11
179.193
21
-122.006
0
LINE
8
BLACK
6
CONTINUOUS
10
179.193
20
-122.006
11
179.187
21
-122.018
0
LINE
8
BLACK
6
CONTINUOUS
10
179.187
20
-122.018
11
179.176
21
-122.026
0
LINE
8
BLACK
6
CONTINUOUS
10
179.176
20
-122.026
11
179.168
21
-122.037
0
LINE
8
BLACK
6
CONTINUOUS
10
179.168
20
-122.037
11
179.156
21
-122.043
0
LINE
8
BLACK
6
CONTINUOUS
10
179.156
20
-122.043
11
179.146
21
-122.052
0
LINE
8
BLACK
6
CONTINUOUS
10
179.146
20
-122.052
11
179.134
21
-122.056
0
LINE
8
BLACK
6
CONTINUOUS
10
179.134
20
-122.056
11
179.122
21
-122.063
0
LINE
8
BLACK
6
CONTINUOUS
10
179.122
20
-122.063
11
179.109
21
-122.065
0
LINE
8
BLACK
6
CONTINUOUS
10
179.109
20
-122.065
11
179.096
21
-122.07
0
LINE
8
BLACK
6
CONTINUOUS
10
179.096
20
-122.07
11
179.083
21
-122.07
0
LINE
8
BLACK
6
CONTINUOUS
10
179.083
20
-122.07
11
179.083
21
-122.07
0
LINE
8
BLACK
6
CONTINUOUS
10
179.083
20
-122.07
11
163.817
21
-122.07
0
LINE
8
BLACK
6
CONTINUOUS
10
163.817
20
-122.07
11
163.817
21
-122.07
0
LINE
8
BLACK
6
CONTINUOUS
10
163.817
20
-122.07
11
163.804
21
-122.07
0
LINE
8
BLACK
6
CONTINUOUS
10
163.804
20
-122.07
11
163.791
21
-122.065
0
LINE
8
BLACK
6
CONTINUOUS
10
163.791
20
-122.065
11
163.778
21
-122.063
0
LINE
8
BLACK
6
CONTINUOUS
10
163.778
20
-122.063
11
163.766
21
-122.056
0
LINE
8
BLACK
6
CONTINUOUS
10
163.766
20
-122.056
11
163.754
21
-122.052
0
LINE
8
BLACK
6
CONTINUOUS
10
163.754
20
-122.052
11
163.744
21
-122.043
0
LINE
8
BLACK
6
CONTINUOUS
10
163.744
20
-122.043
11
163.732
21
-122.037
0
LINE
8
BLACK
6
CONTINUOUS
10
163.732
20
-122.037
11
163.724
21
-122.026
0
LINE
8
BLACK
6
CONTINUOUS
10
163.724
20
-122.026
11
163.713
21
-122.018
0
LINE
8
BLACK
6
CONTINUOUS
10
163.713
20
-122.018
11
163.707
21
-122.006
0
LINE
8
BLACK
6
CONTINUOUS
10
163.707
20
-122.006
11
163.698
21
-121.996
0
LINE
8
BLACK
6
CONTINUOUS
10
163.698
20
-121.996
11
163.694
21
-121.984
0
LINE
8
BLACK
6
CONTINUOUS
10
163.694
20
-121.984
11
163.687
21
-121.972
0
LINE
8
BLACK
6
CONTINUOUS
10
163.687
20
-121.972
11
163.685
21
-121.959
0
LINE
8
BLACK
6
CONTINUOUS
10
163.685
20
-121.959
11
163.68
21
-121.946
0
LINE
8
BLACK
6
CONTINUOUS
10
163.68
20
-121.946
11
163.68
21
-121.933
0
LINE
8
BLACK
6
CONTINUOUS
10
163.68
20
-121.933
11
163.68
21
-121.933
0
LINE
8
BLACK
6
CONTINUOUS
10
163.68
20
-121.933
11
163.68
21
-106.667
0
LINE
8
BLACK
6
CONTINUOUS
10
163.68
20
-106.667
11
163.68
21
-106.654
0
LINE
8
BLACK
6
CONTINUOUS
10
163.68
20
-106.654
11
163.685
21
-106.641
0
LINE
8
BLACK
6
CONTINUOUS
10
163.685
20
-106.641
11
163.687
21
-106.628
0
LINE
8
BLACK
6
CONTINUOUS
10
163.687
20
-106.628
11
163.694
21
-106.616
0
LINE
8
BLACK
6
CONTINUOUS
10
163.694
20
-106.616
11
163.698
21
-106.604
0
LINE
8
BLACK
6
CONTINUOUS
10
163.698
20
-106.604
11
163.707
21
-106.594
0
LINE
8
BLACK
6
CONTINUOUS
10
163.707
20
-106.594
11
163.713
21
-106.582
0
LINE
8
BLACK
6
CONTINUOUS
10
163.713
20
-106.582
11
163.724
21
-106.574
0
LINE
8
BLACK
6
CONTINUOUS
10
163.724
20
-106.574
11
163.732
21
-106.563
0
LINE
8
BLACK
6
CONTINUOUS
10
163.732
20
-106.563
11
163.744
21
-106.557
0
LINE
8
BLACK
6
CONTINUOUS
10
163.744
20
-106.557
11
163.754
21
-106.548
0
LINE
8
BLACK
6
CONTINUOUS
10
163.754
20
-106.548
11
163.766
21
-106.544
0
LINE
8
BLACK
6
CONTINUOUS
10
163.766
20
-106.544
11
163.778
21
-106.537
0
LINE
8
BLACK
6
CONTINUOUS
10
163.778
20
-106.537
11
163.791
21
-106.535
0
LINE
8
BLACK
6
CONTINUOUS
10
163.791
20
-106.535
11
163.804
21
-106.53
0
LINE
8
BLACK
6
CONTINUOUS
10
163.804
20
-106.53
11
163.817
21
-106.53
0
LINE
8
BLACK
6
CONTINUOUS
10
163.817
20
-106.53
11
163.817
21
-106.53
0
LINE
8
BLACK
6
CONTINUOUS
10
163.817
20
-106.53
11
179.083
21
-106.53
0
LINE
8
BLACK
6
CONTINUOUS
10
179.083
20
-106.53
11
179.083
21
-106.53
0
LINE
8
BLACK
6
CONTINUOUS
10
163.98
20
-106.83
11
163.98
21
-121.77
0
LINE
8
BLACK
6
CONTINUOUS
10
163.98
20
-121.77
11
178.92
21
-121.77
0
LINE
8
BLACK
6
CONTINUOUS
10
178.92
20
-121.77
11
178.92
21
-106.83
0
LINE
8
BLACK
6
CONTINUOUS
10
178.92
20
-106.83
11
163.98
21
-106.83
0
LINE
8
BLACK
6
CONTINUOUS
10
121.933
20
-106.53
11
121.946
21
-106.53
0
LINE
8
BLACK
6
CONTINUOUS
10
121.946
20
-106.53
11
121.959
21
-106.535
0
LINE
8
BLACK
6
CONTINUOUS
10
121.959
20
-106.535
11
121.972
21
-106.537
0
LINE
8
BLACK
6
CONTINUOUS
10
121.972
20
-106.537
11
121.984
21
-106.544
0
LINE
8
BLACK
6
CONTINUOUS
10
121.984
20
-106.544
11
121.996
21
-106.548
0
LINE
8
BLACK
6
CONTINUOUS
10
121.996
20
-106.548
11
122.006
21
-106.557
0
LINE
8
BLACK
6
CONTINUOUS
10
122.006
20
-106.557
11
122.018
21
-106.563
0
LINE
8
BLACK
6
CONTINUOUS
10
122.018
20
-106.563
11
122.026
21
-106.574
0
LINE
8
BLACK
6
CONTINUOUS
10
122.026
20
-106.574
11
122.037
21
-106.582
0
LINE
8
BLACK
6
CONTINUOUS
10
122.037
20
-106.582
11
122.043
21
-106.594
0
LINE
8
BLACK
6
CONTINUOUS
10
122.043
20
-106.594
11
122.052
21
-106.604
0
LINE
8
BLACK
6
CONTINUOUS
10
122.052
20
-106.604
11
122.056
21
-106.616
0
LINE
8
BLACK
6
CONTINUOUS
10
122.056
20
-106.616
11
122.063
21
-106.628
0
LINE
8
BLACK
6
CONTINUOUS
10
122.063
20
-106.628
11
122.065
21
-106.641
0
LINE
8
BLACK
6
CONTINUOUS
10
122.065
20
-106.641
11
122.07
21
-106.654
0
LINE
8
BLACK
6
CONTINUOUS
10
122.07
20
-106.654
11
122.07
21
-106.667
0
LINE
8
BLACK
6
CONTINUOUS
10
122.07
20
-106.667
11
122.07
21
-106.667
0
LINE
8
BLACK
6
CONTINUOUS
10
122.07
20
-106.667
11
122.07
21
-121.933
0
LINE
8
BLACK
6
CONTINUOUS
10
122.07
20
-121.933
11
122.07
21
-121.933
0
LINE
8
BLACK
6
CONTINUOUS
10
122.07
20
-121.933
11
122.07
21
-121.946
0
LINE
8
BLACK
6
CONTINUOUS
10
122.07
20
-121.946
11
122.065
21
-121.959
0
LINE
8
BLACK
6
CONTINUOUS
10
122.065
20
-121.959
11
122.063
21
-121.972
0
LINE
8
BLACK
6
CONTINUOUS
10
122.063
20
-121.972
11
122.056
21
-121.984
0
LINE
8
BLACK
6
CONTINUOUS
10
122.056
20
-121.984
11
122.052
21
-121.996
0
LINE
8
BLACK
6
CONTINUOUS
10
122.052
20
-121.996
11
122.043
21
-122.006
0
LINE
8
BLACK
6
CONTINUOUS
10
122.043
20
-122.006
11
122.037
21
-122.018
0
LINE
8
BLACK
6
CONTINUOUS
10
122.037
20
-122.018
11
122.026
21
-122.026
0
LINE
8
BLACK
6
CONTINUOUS
10
122.026
20
-122.026
11
122.018
21
-122.037
0
LINE
8
BLACK
6
CONTINUOUS
10
122.018
20
-122.037
11
122.006
21
-122.043
0
LINE
8
BLACK
6
CONTINUOUS
10
122.006
20
-122.043
11
121.996
21
-122.052
0
LINE
8
BLACK
6
CONTINUOUS
10
121.996
20
-122.052
11
121.984
21
-122.056
0
LINE
8
BLACK
6
CONTINUOUS
10
121.984
20
-122.056
11
121.972
21
-122.063
0
LINE
8
BLACK
6
CONTINUOUS
10
121.972
20
-122.063
11
121.959
21
-122.065
0
LINE
8
BLACK
6
CONTINUOUS
10
121.959
20
-122.065
11
121.946
21
-122.07
0
LINE
8
BLACK
6
CONTINUOUS
10
121.946
20
-122.07
11
121.933
21
-122.07
0
LINE
8
BLACK
6
CONTINUOUS
10
121.933
20
-122.07
11
121.933
21
-122.07
0
LINE
8
BLACK
6
CONTINUOUS
10
121.933
20
-122.07
11
106.667
21
-122.07
0
LINE
8
BLACK
6
CONTINUOUS
10
106.667
20
-122.07
11
106.667
21
-122.07
0
LINE
8
BLACK
6
CONTINUOUS
10
106.667
20
-122.07
11
106.654
21
-122.07
0
LINE
8
BLACK
6
CONTINUOUS
10
106.654
20
-122.07
11
106.641
21
-122.065
0
LINE
8
BLACK
6
CONTINUOUS
10
106.641
20
-122.065
11
106.628
21
-122.063
0
LINE
8
BLACK
6
CONTINUOUS
10
106.628
20
-122.063
11
106.616
21
-122.056
0
LINE
8
BLACK
6
CONTINUOUS
10
106.616
20
-122.056
11
106.604
21
-122.052
0
LINE
8
BLACK
6
CONTINUOUS
10
106.604
20
-122.052
11
106.594
21
-122.043
0
LINE
8
BLACK
6
CONTINUOUS
10
106.594
20
-122.043
11
106.582
21
-122.037
0
LINE
8
BLACK
6
CONTINUOUS
10
106.582
20
-122.037
11
106.574
21
-122.026
0
LINE
8
BLACK
6
CONTINUOUS
10
106.574
20
-122.026
11
106.563
21
-122.018
0
LINE
8
BLACK
6
CONTINUOUS
10
106.563
20
-122.018
11
106.557
21
-122.006
0
LINE
8
BLACK
6
CONTINUOUS
10
106.557
20
-122.006
11
106.548
21
-121.996
0
LINE
8
BLACK
6
CONTINUOUS
10
106.548
20
-121.996
11
106.544
21
-121.984
0
LINE
8
BLACK
6
CONTINUOUS
10
106.544
20
-121.984
11
106.537
21
-121.972
0
LINE
8
BLACK
6
CONTINUOUS
10
106.537
20
-121.972
11
106.535
21
-121.959
0
LINE
8
BLACK
6
CONTINUOUS
10
106.535
20
-121.959
11
106.53
21
-121.946
0
LINE
8
BLACK
6
CONTINUOUS
10
106.53
20
-121.946
11
106.53
21
-121.933
0
LINE
8
BLACK
6
CONTINUOUS
10
106.53
20
-121.933
11
106.53
21
-121.933
0
LINE
8
BLACK
6
CONTINUOUS
10
106.53
20
-121.933
11
106.53
21
-106.667
0
LINE
8
BLACK
6
CONTINUOUS
10
106.53
20
-106.667
11
106.53
21
-106.654
0
LINE
8
BLACK
6
CONTINUOUS
10
106.53
20
-106.654
11
106.535
21
-106.641
0
LINE
8
BLACK
6
CONTINUOUS
10
106.535
20
-106.641
11
106.537
21
-106.628
0
LINE
8
BLACK
6
CONTINUOUS
10
106.537
20
-106.628
11
106.544
21
-106.616
0
LINE
8
BLACK
6
CONTINUOUS
10
106.544
20
-106.616
11
106.548
21
-106.604
0
LINE
8
BLACK
6
CONTINUOUS
10
106.548
20
-106.604
11
106.557
21
-106.594
0
LINE
8
BLACK
6
CONTINUOUS
10
106.557
20
-106.594
11
106.563
21
-106.582
0
LINE
8
BLACK
6
CONTINUOUS
10
106.563
20
-106.582
11
106.574
21
-106.574
0
LINE
8
BLACK
6
CONTINUOUS
10
106.574
20
-106.574
11
106.582
21
-106.563
0
LINE
8
BLACK
6
CONTINUOUS
10
106.582
20
-106.563
11
106.594
21
-106.557
0
LINE
8
BLACK
6
CONTINUOUS
10
106.594
20
-106.557
11
106.604
21
-106.548
0
LINE
8
BLACK
6
CONTINUOUS
10
106.604
20
-106.548
11
106.616
21
-106.544
0
LINE
8
BLACK
6
CONTINUOUS
10
106.616
20
-106.544
11
106.628
21
-106.537
0
LINE
8
BLACK
6
CONTINUOUS
10
106.628
20
-106.537
11
106.641
21
-106.535
0
LINE
8
BLACK
6
CONTINUOUS
10
106.641
20
-106.535
11
106.654
21
-106.53
0
LINE
8
BLACK
6
CONTINUOUS
10
106.654
20
-106.53
11
106.667
21
-106.53
0
LINE
8
BLACK
6
CONTINUOUS
10
106.667
20
-106.53
11
106.667
21
-106.53
0
LINE
8
BLACK
6
CONTINUOUS
10
106.667
20
-106.53
11
121.933
21
-106.53
0
LINE
8
BLACK
6
CONTINUOUS
10
121.933
20
-106.53
11
121.933
21
-106.53
0
LINE
8
BLACK
6
CONTINUOUS
10
106.83
20
-106.83
11
106.83
21
-121.77
0
LINE
8
BLACK
6
CONTINUOUS
10
106.83
20
-121.77
11
121.77
21
-121.77
0
LINE
8
BLACK
6
CONTINUOUS
10
121.77
20
-121.77
11
121.77
21
-106.83
0
LINE
8
BLACK
6
CONTINUOUS
10
121.77
20
-106.83
11
106.83
21
-106.83
0
LINE
8
BLACK
6
CONTINUOUS
10
140.983
20
-106.53
11
140.996
21
-106.53
0
LINE
8
BLACK
6
CONTINUOUS
10
140.996
20
-106.53
11
141.009
21
-106.535
0
LINE
8
BLACK
6
CONTINUOUS
10
141.009
20
-106.535
11
141.022
21
-106.537
0
LINE
8
BLACK
6
CONTINUOUS
10
141.022
20
-106.537
11
141.034
21
-106.544
0
LINE
8
BLACK
6
CONTINUOUS
10
141.034
20
-106.544
11
141.046
21
-106.548
0
LINE
8
BLACK
6
CONTINUOUS
10
141.046
20
-106.548
11
141.056
21
-106.557
0
LINE
8
BLACK
6
CONTINUOUS
10
141.056
20
-106.557
11
141.068
21
-106.563
0
LINE
8
BLACK
6
CONTINUOUS
10
141.068
20
-106.563
11
141.076
21
-106.574
0
LINE
8
BLACK
6
CONTINUOUS
10
141.076
20
-106.574
11
141.087
21
-106.582
0
LINE
8
BLACK
6
CONTINUOUS
10
141.087
20
-106.582
11
141.093
21
-106.594
0
LINE
8
BLACK
6
CONTINUOUS
10
141.093
20
-106.594
11
141.102
21
-106.604
0
LINE
8
BLACK
6
CONTINUOUS
10
141.102
20
-106.604
11
141.106
21
-106.616
0
LINE
8
BLACK
6
CONTINUOUS
10
141.106
20
-106.616
11
141.113
21
-106.628
0
LINE
8
BLACK
6
CONTINUOUS
10
141.113
20
-106.628
11
141.115
21
-106.641
0
LINE
8
BLACK
6
CONTINUOUS
10
141.115
20
-106.641
11
141.12
21
-106.654
0
LINE
8
BLACK
6
CONTINUOUS
10
141.12
20
-106.654
11
141.12
21
-106.667
0
LINE
8
BLACK
6
CONTINUOUS
10
141.12
20
-106.667
11
141.12
21
-106.667
0
LINE
8
BLACK
6
CONTINUOUS
10
141.12
20
-106.667
11
141.12
21
-121.933
0
LINE
8
BLACK
6
CONTINUOUS
10
141.12
20
-121.933
11
141.12
21
-121.933
0
LINE
8
BLACK
6
CONTINUOUS
10
141.12
20
-121.933
11
141.12
21
-121.946
0
LINE
8
BLACK
6
CONTINUOUS
10
141.12
20
-121.946
11
141.115
21
-121.959
0
LINE
8
BLACK
6
CONTINUOUS
10
141.115
20
-121.959
11
141.113
21
-121.972
0
LINE
8
BLACK
6
CONTINUOUS
10
141.113
20
-121.972
11
141.106
21
-121.984
0
LINE
8
BLACK
6
CONTINUOUS
10
141.106
20
-121.984
11
141.102
21
-121.996
0
LINE
8
BLACK
6
CONTINUOUS
10
141.102
20
-121.996
11
141.093
21
-122.006
0
LINE
8
BLACK
6
CONTINUOUS
10
141.093
20
-122.006
11
141.087
21
-122.018
0
LINE
8
BLACK
6
CONTINUOUS
10
141.087
20
-122.018
11
141.076
21
-122.026
0
LINE
8
BLACK
6
CONTINUOUS
10
141.076
20
-122.026
11
141.068
21
-122.037
0
LINE
8
BLACK
6
CONTINUOUS
10
141.068
20
-122.037
11
141.056
21
-122.043
0
LINE
8
BLACK
6
CONTINUOUS
10
141.056
20
-122.043
11
141.046
21
-122.052
0
LINE
8
BLACK
6
CONTINUOUS
10
141.046
20
-122.052
11
141.034
21
-122.056
0
LINE
8
BLACK
6
CONTINUOUS
10
141.034
20
-122.056
11
141.022
21
-122.063
0
LINE
8
BLACK
6
CONTINUOUS
10
141.022
20
-122.063
11
141.009
21
-122.065
0
LINE
8
BLACK
6
CONTINUOUS
10
141.009
20
-122.065
11
140.996
21
-122.07
0
LINE
8
BLACK
6
CONTINUOUS
10
140.996
20
-122.07
11
140.983
21
-122.07
0
LINE
8
BLACK
6
CONTINUOUS
10
140.983
20
-122.07
11
140.983
21
-122.07
0
LINE
8
BLACK
6
CONTINUOUS
10
140.983
20
-122.07
11
125.717
21
-122.07
0
LINE
8
BLACK
6
CONTINUOUS
10
125.717
20
-122.07
11
125.717
21
-122.07
0
LINE
8
BLACK
6
CONTINUOUS
10
125.717
20
-122.07
11
125.704
21
-122.07
0
LINE
8
BLACK
6
CONTINUOUS
10
125.704
20
-122.07
11
125.691
21
-122.065
0
LINE
8
BLACK
6
CONTINUOUS
10
125.691
20
-122.065
11
125.678
21
-122.063
0
LINE
8
BLACK
6
CONTINUOUS
10
125.678
20
-122.063
11
125.666
21
-122.056
0
LINE
8
BLACK
6
CONTINUOUS
10
125.666
20
-122.056
11
125.654
21
-122.052
0
LINE
8
BLACK
6
CONTINUOUS
10
125.654
20
-122.052
11
125.644
21
-122.043
0
LINE
8
BLACK
6
CONTINUOUS
10
125.644
20
-122.043
11
125.632
21
-122.037
0
LINE
8
BLACK
6
CONTINUOUS
10
125.632
20
-122.037
11
125.624
21
-122.026
0
LINE
8
BLACK
6
CONTINUOUS
10
125.624
20
-122.026
11
125.613
21
-122.018
0
LINE
8
BLACK
6
CONTINUOUS
10
125.613
20
-122.018
11
125.607
21
-122.006
0
LINE
8
BLACK
6
CONTINUOUS
10
125.607
20
-122.006
11
125.598
21
-121.996
0
LINE
8
BLACK
6
CONTINUOUS
10
125.598
20
-121.996
11
125.594
21
-121.984
0
LINE
8
BLACK
6
CONTINUOUS
10
125.594
20
-121.984
11
125.587
21
-121.972
0
LINE
8
BLACK
6
CONTINUOUS
10
125.587
20
-121.972
11
125.585
21
-121.959
0
LINE
8
BLACK
6
CONTINUOUS
10
125.585
20
-121.959
11
125.58
21
-121.946
0
LINE
8
BLACK
6
CONTINUOUS
10
125.58
20
-121.946
11
125.58
21
-121.933
0
LINE
8
BLACK
6
CONTINUOUS
10
125.58
20
-121.933
11
125.58
21
-121.933
0
LINE
8
BLACK
6
CONTINUOUS
10
125.58
20
-121.933
11
125.58
21
-106.667
0
LINE
8
BLACK
6
CONTINUOUS
10
125.58
20
-106.667
11
125.58
21
-106.654
0
LINE
8
BLACK
6
CONTINUOUS
10
125.58
20
-106.654
11
125.585
21
-106.641
0
LINE
8
BLACK
6
CONTINUOUS
10
125.585
20
-106.641
11
125.587
21
-106.628
0
LINE
8
BLACK
6
CONTINUOUS
10
125.587
20
-106.628
11
125.594
21
-106.616
0
LINE
8
BLACK
6
CONTINUOUS
10
125.594
20
-106.616
11
125.598
21
-106.604
0
LINE
8
BLACK
6
CONTINUOUS
10
125.598
20
-106.604
11
125.607
21
-106.594
0
LINE
8
BLACK
6
CONTINUOUS
10
125.607
20
-106.594
11
125.613
21
-106.582
0
LINE
8
BLACK
6
CONTINUOUS
10
125.613
20
-106.582
11
125.624
21
-106.574
0
LINE
8
BLACK
6
CONTINUOUS
10
125.624
20
-106.574
11
125.632
21
-106.563
0
LINE
8
BLACK
6
CONTINUOUS
10
125.632
20
-106.563
11
125.644
21
-106.557
0
LINE
8
BLACK
6
CONTINUOUS
10
125.644
20
-106.557
11
125.654
21
-106.548
0
LINE
8
BLACK
6
CONTINUOUS
10
125.654
20
-106.548
11
125.666
21
-106.544
0
LINE
8
BLACK
6
CONTINUOUS
10
125.666
20
-106.544
11
125.678
21
-106.537
0
LINE
8
BLACK
6
CONTINUOUS
10
125.678
20
-106.537
11
125.691
21
-106.535
0
LINE
8
BLACK
6
CONTINUOUS
10
125.691
20
-106.535
11
125.704
21
-106.53
0
LINE
8
BLACK
6
CONTINUOUS
10
125.704
20
-106.53
11
125.717
21
-106.53
0
LINE
8
BLACK
6
CONTINUOUS
10
125.717
20
-106.53
11
125.717
21
-106.53
0
LINE
8
BLACK
6
CONTINUOUS
10
125.717
20
-106.53
11
140.983
21
-106.53
0
LINE
8
BLACK
6
CONTINUOUS
10
140.983
20
-106.53
11
140.983
21
-106.53
0
LINE
8
BLACK
6
CONTINUOUS
10
125.88
20
-106.83
11
125.88
21
-121.77
0
LINE
8
BLACK
6
CONTINUOUS
10
125.88
20
-121.77
11
140.82
21
-121.77
0
LINE
8
BLACK
6
CONTINUOUS
10
140.82
20
-121.77
11
140.82
21
-106.83
0
LINE
8
BLACK
6
CONTINUOUS
10
140.82
20
-106.83
11
125.88
21
-106.83
0
LINE
8
BLACK
6
CONTINUOUS
10
160.033
20
-101.45
11
160.046
21
-101.45
0
LINE
8
BLACK
6
CONTINUOUS
10
160.046
20
-101.45
11
160.059
21
-101.455
0
LINE
8
BLACK
6
CONTINUOUS
10
160.059
20
-101.455
11
160.072
21
-101.457
0
LINE
8
BLACK
6
CONTINUOUS
10
160.072
20
-101.457
11
160.084
21
-101.464
0
LINE
8
BLACK
6
CONTINUOUS
10
160.084
20
-101.464
11
160.096
21
-101.468
0
LINE
8
BLACK
6
CONTINUOUS
10
160.096
20
-101.468
11
160.106
21
-101.477
0
LINE
8
BLACK
6
CONTINUOUS
10
160.106
20
-101.477
11
160.118
21
-101.483
0
LINE
8
BLACK
6
CONTINUOUS
10
160.118
20
-101.483
11
160.126
21
-101.494
0
LINE
8
BLACK
6
CONTINUOUS
10
160.126
20
-101.494
11
160.137
21
-101.502
0
LINE
8
BLACK
6
CONTINUOUS
10
160.137
20
-101.502
11
160.143
21
-101.514
0
LINE
8
BLACK
6
CONTINUOUS
10
160.143
20
-101.514
11
160.152
21
-101.524
0
LINE
8
BLACK
6
CONTINUOUS
10
160.152
20
-101.524
11
160.156
21
-101.536
0
LINE
8
BLACK
6
CONTINUOUS
10
160.156
20
-101.536
11
160.163
21
-101.548
0
LINE
8
BLACK
6
CONTINUOUS
10
160.163
20
-101.548
11
160.165
21
-101.561
0
LINE
8
BLACK
6
CONTINUOUS
10
160.165
20
-101.561
11
160.17
21
-101.574
0
LINE
8
BLACK
6
CONTINUOUS
10
160.17
20
-101.574
11
160.17
21
-101.587
0
LINE
8
BLACK
6
CONTINUOUS
10
160.17
20
-101.587
11
160.17
21
-101.587
0
LINE
8
BLACK
6
CONTINUOUS
10
160.17
20
-101.587
11
160.17
21
-116.853
0
LINE
8
BLACK
6
CONTINUOUS
10
160.17
20
-116.853
11
160.17
21
-116.853
0
LINE
8
BLACK
6
CONTINUOUS
10
160.17
20
-116.853
11
160.17
21
-116.866
0
LINE
8
BLACK
6
CONTINUOUS
10
160.17
20
-116.866
11
160.165
21
-116.879
0
LINE
8
BLACK
6
CONTINUOUS
10
160.165
20
-116.879
11
160.163
21
-116.892
0
LINE
8
BLACK
6
CONTINUOUS
10
160.163
20
-116.892
11
160.156
21
-116.904
0
LINE
8
BLACK
6
CONTINUOUS
10
160.156
20
-116.904
11
160.152
21
-116.916
0
LINE
8
BLACK
6
CONTINUOUS
10
160.152
20
-116.916
11
160.143
21
-116.926
0
LINE
8
BLACK
6
CONTINUOUS
10
160.143
20
-116.926
11
160.137
21
-116.938
0
LINE
8
BLACK
6
CONTINUOUS
10
160.137
20
-116.938
11
160.126
21
-116.946
0
LINE
8
BLACK
6
CONTINUOUS
10
160.126
20
-116.946
11
160.118
21
-116.957
0
LINE
8
BLACK
6
CONTINUOUS
10
160.118
20
-116.957
11
160.106
21
-116.963
0
LINE
8
BLACK
6
CONTINUOUS
10
160.106
20
-116.963
11
160.096
21
-116.972
0
LINE
8
BLACK
6
CONTINUOUS
10
160.096
20
-116.972
11
160.084
21
-116.976
0
LINE
8
BLACK
6
CONTINUOUS
10
160.084
20
-116.976
11
160.072
21
-116.983
0
LINE
8
BLACK
6
CONTINUOUS
10
160.072
20
-116.983
11
160.059
21
-116.985
0
LINE
8
BLACK
6
CONTINUOUS
10
160.059
20
-116.985
11
160.046
21
-116.99
0
LINE
8
BLACK
6
CONTINUOUS
10
160.046
20
-116.99
11
160.033
21
-116.99
0
LINE
8
BLACK
6
CONTINUOUS
10
160.033
20
-116.99
11
160.033
21
-116.99
0
LINE
8
BLACK
6
CONTINUOUS
10
160.033
20
-116.99
11
144.767
21
-116.99
0
LINE
8
BLACK
6
CONTINUOUS
10
144.767
20
-116.99
11
144.767
21
-116.99
0
LINE
8
BLACK
6
CONTINUOUS
10
144.767
20
-116.99
11
144.754
21
-116.99
0
LINE
8
BLACK
6
CONTINUOUS
10
144.754
20
-116.99
11
144.741
21
-116.985
0
LINE
8
BLACK
6
CONTINUOUS
10
144.741
20
-116.985
11
144.728
21
-116.983
0
LINE
8
BLACK
6
CONTINUOUS
10
144.728
20
-116.983
11
144.716
21
-116.976
0
LINE
8
BLACK
6
CONTINUOUS
10
144.716
20
-116.976
11
144.704
21
-116.972
0
LINE
8
BLACK
6
CONTINUOUS
10
144.704
20
-116.972
11
144.694
21
-116.963
0
LINE
8
BLACK
6
CONTINUOUS
10
144.694
20
-116.963
11
144.682
21
-116.957
0
LINE
8
BLACK
6
CONTINUOUS
10
144.682
20
-116.957
11
144.674
21
-116.946
0
LINE
8
BLACK
6
CONTINUOUS
10
144.674
20
-116.946
11
144.663
21
-116.938
0
LINE
8
BLACK
6
CONTINUOUS
10
144.663
20
-116.938
11
144.657
21
-116.926
0
LINE
8
BLACK
6
CONTINUOUS
10
144.657
20
-116.926
11
144.648
21
-116.916
0
LINE
8
BLACK
6
CONTINUOUS
10
144.648
20
-116.916
11
144.644
21
-116.904
0
LINE
8
BLACK
6
CONTINUOUS
10
144.644
20
-116.904
11
144.637
21
-116.892
0
LINE
8
BLACK
6
CONTINUOUS
10
144.637
20
-116.892
11
144.635
21
-116.879
0
LINE
8
BLACK
6
CONTINUOUS
10
144.635
20
-116.879
11
144.63
21
-116.866
0
LINE
8
BLACK
6
CONTINUOUS
10
144.63
20
-116.866
11
144.63
21
-116.853
0
LINE
8
BLACK
6
CONTINUOUS
10
144.63
20
-116.853
11
144.63
21
-116.853
0
LINE
8
BLACK
6
CONTINUOUS
10
144.63
20
-116.853
11
144.63
21
-101.587
0
LINE
8
BLACK
6
CONTINUOUS
10
144.63
20
-101.587
11
144.63
21
-101.574
0
LINE
8
BLACK
6
CONTINUOUS
10
144.63
20
-101.574
11
144.635
21
-101.561
0
LINE
8
BLACK
6
CONTINUOUS
10
144.635
20
-101.561
11
144.637
21
-101.548
0
LINE
8
BLACK
6
CONTINUOUS
10
144.637
20
-101.548
11
144.644
21
-101.536
0
LINE
8
BLACK
6
CONTINUOUS
10
144.644
20
-101.536
11
144.648
21
-101.524
0
LINE
8
BLACK
6
CONTINUOUS
10
144.648
20
-101.524
11
144.657
21
-101.514
0
LINE
8
BLACK
6
CONTINUOUS
10
144.657
20
-101.514
11
144.663
21
-101.502
0
LINE
8
BLACK
6
CONTINUOUS
10
144.663
20
-101.502
11
144.674
21
-101.494
0
LINE
8
BLACK
6
CONTINUOUS
10
144.674
20
-101.494
11
144.682
21
-101.483
0
LINE
8
BLACK
6
CONTINUOUS
10
144.682
20
-101.483
11
144.694
21
-101.477
0
LINE
8
BLACK
6
CONTINUOUS
10
144.694
20
-101.477
11
144.704
21
-101.468
0
LINE
8
BLACK
6
CONTINUOUS
10
144.704
20
-101.468
11
144.716
21
-101.464
0
LINE
8
BLACK
6
CONTINUOUS
10
144.716
20
-101.464
11
144.728
21
-101.457
0
LINE
8
BLACK
6
CONTINUOUS
10
144.728
20
-101.457
11
144.741
21
-101.455
0
LINE
8
BLACK
6
CONTINUOUS
10
144.741
20
-101.455
11
144.754
21
-101.45
0
LINE
8
BLACK
6
CONTINUOUS
10
144.754
20
-101.45
11
144.767
21
-101.45
0
LINE
8
BLACK
6
CONTINUOUS
10
144.767
20
-101.45
11
144.767
21
-101.45
0
LINE
8
BLACK
6
CONTINUOUS
10
144.767
20
-101.45
11
160.033
21
-101.45
0
LINE
8
BLACK
6
CONTINUOUS
10
160.033
20
-101.45
11
160.033
21
-101.45
0
LINE
8
BLACK
6
CONTINUOUS
10
144.93
20
-101.75
11
144.93
21
-116.69
0
LINE
8
BLACK
6
CONTINUOUS
10
144.93
20
-116.69
11
159.87
21
-116.69
0
LINE
8
BLACK
6
CONTINUOUS
10
159.87
20
-116.69
11
159.87
21
-101.75
0
LINE
8
BLACK
6
CONTINUOUS
10
159.87
20
-101.75
11
144.93
21
-101.75
0
LINE
8
BLACK
6
CONTINUOUS
10
198.133
20
-98.91
11
198.146
21
-98.91
0
LINE
8
BLACK
6
CONTINUOUS
10
198.146
20
-98.91
11
198.159
21
-98.9146
0
LINE
8
BLACK
6
CONTINUOUS
10
198.159
20
-98.9146
11
198.172
21
-98.9169
0
LINE
8
BLACK
6
CONTINUOUS
10
198.172
20
-98.9169
11
198.184
21
-98.9235
0
LINE
8
BLACK
6
CONTINUOUS
10
198.184
20
-98.9235
11
198.196
21
-98.9281
0
LINE
8
BLACK
6
CONTINUOUS
10
198.196
20
-98.9281
11
198.206
21
-98.9367
0
LINE
8
BLACK
6
CONTINUOUS
10
198.206
20
-98.9367
11
198.218
21
-98.9433
0
LINE
8
BLACK
6
CONTINUOUS
10
198.218
20
-98.9433
11
198.226
21
-98.9535
0
LINE
8
BLACK
6
CONTINUOUS
10
198.226
20
-98.9535
11
198.237
21
-98.9621
0
LINE
8
BLACK
6
CONTINUOUS
10
198.237
20
-98.9621
11
198.243
21
-98.9736
0
LINE
8
BLACK
6
CONTINUOUS
10
198.243
20
-98.9736
11
198.252
21
-98.9838
0
LINE
8
BLACK
6
CONTINUOUS
10
198.252
20
-98.9838
11
198.256
21
-98.9964
0
LINE
8
BLACK
6
CONTINUOUS
10
198.256
20
-98.9964
11
198.263
21
-99.0079
0
LINE
8
BLACK
6
CONTINUOUS
10
198.263
20
-99.0079
11
198.265
21
-99.021
0
LINE
8
BLACK
6
CONTINUOUS
10
198.265
20
-99.021
11
198.27
21
-99.0336
0
LINE
8
BLACK
6
CONTINUOUS
10
198.27
20
-99.0336
11
198.27
21
-99.0469
0
LINE
8
BLACK
6
CONTINUOUS
10
198.27
20
-99.0469
11
198.27
21
-99.0469
0
LINE
8
BLACK
6
CONTINUOUS
10
198.27
20
-99.0469
11
198.27
21
-114.313
0
LINE
8
BLACK
6
CONTINUOUS
10
198.27
20
-114.313
11
198.27
21
-114.313
0
LINE
8
BLACK
6
CONTINUOUS
10
198.27
20
-114.313
11
198.27
21
-114.326
0
LINE
8
BLACK
6
CONTINUOUS
10
198.27
20
-114.326
11
198.265
21
-114.339
0
LINE
8
BLACK
6
CONTINUOUS
10
198.265
20
-114.339
11
198.263
21
-114.352
0
LINE
8
BLACK
6
CONTINUOUS
10
198.263
20
-114.352
11
198.256
21
-114.364
0
LINE
8
BLACK
6
CONTINUOUS
10
198.256
20
-114.364
11
198.252
21
-114.376
0
LINE
8
BLACK
6
CONTINUOUS
10
198.252
20
-114.376
11
198.243
21
-114.386
0
LINE
8
BLACK
6
CONTINUOUS
10
198.243
20
-114.386
11
198.237
21
-114.398
0
LINE
8
BLACK
6
CONTINUOUS
10
198.237
20
-114.398
11
198.226
21
-114.406
0
LINE
8
BLACK
6
CONTINUOUS
10
198.226
20
-114.406
11
198.218
21
-114.417
0
LINE
8
BLACK
6
CONTINUOUS
10
198.218
20
-114.417
11
198.206
21
-114.423
0
LINE
8
BLACK
6
CONTINUOUS
10
198.206
20
-114.423
11
198.196
21
-114.432
0
LINE
8
BLACK
6
CONTINUOUS
10
198.196
20
-114.432
11
198.184
21
-114.436
0
LINE
8
BLACK
6
CONTINUOUS
10
198.184
20
-114.436
11
198.172
21
-114.443
0
LINE
8
BLACK
6
CONTINUOUS
10
198.172
20
-114.443
11
198.159
21
-114.445
0
LINE
8
BLACK
6
CONTINUOUS
10
198.159
20
-114.445
11
198.146
21
-114.45
0
LINE
8
BLACK
6
CONTINUOUS
10
198.146
20
-114.45
11
198.133
21
-114.45
0
LINE
8
BLACK
6
CONTINUOUS
10
198.133
20
-114.45
11
198.133
21
-114.45
0
LINE
8
BLACK
6
CONTINUOUS
10
198.133
20
-114.45
11
182.867
21
-114.45
0
LINE
8
BLACK
6
CONTINUOUS
10
182.867
20
-114.45
11
182.867
21
-114.45
0
LINE
8
BLACK
6
CONTINUOUS
10
182.867
20
-114.45
11
182.854
21
-114.45
0
LINE
8
BLACK
6
CONTINUOUS
10
182.854
20
-114.45
11
182.841
21
-114.445
0
LINE
8
BLACK
6
CONTINUOUS
10
182.841
20
-114.445
11
182.828
21
-114.443
0
LINE
8
BLACK
6
CONTINUOUS
10
182.828
20
-114.443
11
182.816
21
-114.436
0
LINE
8
BLACK
6
CONTINUOUS
10
182.816
20
-114.436
11
182.804
21
-114.432
0
LINE
8
BLACK
6
CONTINUOUS
10
182.804
20
-114.432
11
182.794
21
-114.423
0
LINE
8
BLACK
6
CONTINUOUS
10
182.794
20
-114.423
11
182.782
21
-114.417
0
LINE
8
BLACK
6
CONTINUOUS
10
182.782
20
-114.417
11
182.774
21
-114.406
0
LINE
8
BLACK
6
CONTINUOUS
10
182.774
20
-114.406
11
182.763
21
-114.398
0
LINE
8
BLACK
6
CONTINUOUS
10
182.763
20
-114.398
11
182.757
21
-114.386
0
LINE
8
BLACK
6
CONTINUOUS
10
182.757
20
-114.386
11
182.748
21
-114.376
0
LINE
8
BLACK
6
CONTINUOUS
10
182.748
20
-114.376
11
182.744
21
-114.364
0
LINE
8
BLACK
6
CONTINUOUS
10
182.744
20
-114.364
11
182.737
21
-114.352
0
LINE
8
BLACK
6
CONTINUOUS
10
182.737
20
-114.352
11
182.735
21
-114.339
0
LINE
8
BLACK
6
CONTINUOUS
10
182.735
20
-114.339
11
182.73
21
-114.326
0
LINE
8
BLACK
6
CONTINUOUS
10
182.73
20
-114.326
11
182.73
21
-114.313
0
LINE
8
BLACK
6
CONTINUOUS
10
182.73
20
-114.313
11
182.73
21
-114.313
0
LINE
8
BLACK
6
CONTINUOUS
10
182.73
20
-114.313
11
182.73
21
-99.0469
0
LINE
8
BLACK
6
CONTINUOUS
10
182.73
20
-99.0469
11
182.73
21
-99.0336
0
LINE
8
BLACK
6
CONTINUOUS
10
182.73
20
-99.0336
11
182.735
21
-99.021
0
LINE
8
BLACK
6
CONTINUOUS
10
182.735
20
-99.021
11
182.737
21
-99.0079
0
LINE
8
BLACK
6
CONTINUOUS
10
182.737
20
-99.0079
11
182.744
21
-98.9964
0
LINE
8
BLACK
6
CONTINUOUS
10
182.744
20
-98.9964
11
182.748
21
-98.9838
0
LINE
8
BLACK
6
CONTINUOUS
10
182.748
20
-98.9838
11
182.757
21
-98.9736
0
LINE
8
BLACK
6
CONTINUOUS
10
182.757
20
-98.9736
11
182.763
21
-98.9621
0
LINE
8
BLACK
6
CONTINUOUS
10
182.763
20
-98.9621
11
182.774
21
-98.9535
0
LINE
8
BLACK
6
CONTINUOUS
10
182.774
20
-98.9535
11
182.782
21
-98.9433
0
LINE
8
BLACK
6
CONTINUOUS
10
182.782
20
-98.9433
11
182.794
21
-98.9367
0
LINE
8
BLACK
6
CONTINUOUS
10
182.794
20
-98.9367
11
182.804
21
-98.9281
0
LINE
8
BLACK
6
CONTINUOUS
10
182.804
20
-98.9281
11
182.816
21
-98.9235
0
LINE
8
BLACK
6
CONTINUOUS
10
182.816
20
-98.9235
11
182.828
21
-98.9169
0
LINE
8
BLACK
6
CONTINUOUS
10
182.828
20
-98.9169
11
182.841
21
-98.9146
0
LINE
8
BLACK
6
CONTINUOUS
10
182.841
20
-98.9146
11
182.854
21
-98.91
0
LINE
8
BLACK
6
CONTINUOUS
10
182.854
20
-98.91
11
182.867
21
-98.91
0
LINE
8
BLACK
6
CONTINUOUS
10
182.867
20
-98.91
11
182.867
21
-98.91
0
LINE
8
BLACK
6
CONTINUOUS
10
182.867
20
-98.91
11
198.133
21
-98.91
0
LINE
8
BLACK
6
CONTINUOUS
10
198.133
20
-98.91
11
198.133
21
-98.91
0
LINE
8
BLACK
6
CONTINUOUS
10
183.03
20
-99.21
11
183.03
21
-114.15
0
LINE
8
BLACK
6
CONTINUOUS
10
183.03
20
-114.15
11
197.97
21
-114.15
0
LINE
8
BLACK
6
CONTINUOUS
10
197.97
20
-114.15
11
197.97
21
-99.21
0
LINE
8
BLACK
6
CONTINUOUS
10
197.97
20
-99.21
11
183.03
21
-99.21
0
LINE
8
BLACK
6
CONTINUOUS
10
217.183
20
-98.91
11
217.196
21
-98.91
0
LINE
8
BLACK
6
CONTINUOUS
10
217.196
20
-98.91
11
217.209
21
-98.9146
0
LINE
8
BLACK
6
CONTINUOUS
10
217.209
20
-98.9146
11
217.222
21
-98.9169
0
LINE
8
BLACK
6
CONTINUOUS
10
217.222
20
-98.9169
11
217.234
21
-98.9235
0
LINE
8
BLACK
6
CONTINUOUS
10
217.234
20
-98.9235
11
217.246
21
-98.9281
0
LINE
8
BLACK
6
CONTINUOUS
10
217.246
20
-98.9281
11
217.256
21
-98.9367
0
LINE
8
BLACK
6
CONTINUOUS
10
217.256
20
-98.9367
11
217.268
21
-98.9433
0
LINE
8
BLACK
6
CONTINUOUS
10
217.268
20
-98.9433
11
217.276
21
-98.9535
0
LINE
8
BLACK
6
CONTINUOUS
10
217.276
20
-98.9535
11
217.287
21
-98.9621
0
LINE
8
BLACK
6
CONTINUOUS
10
217.287
20
-98.9621
11
217.293
21
-98.9736
0
LINE
8
BLACK
6
CONTINUOUS
10
217.293
20
-98.9736
11
217.302
21
-98.9838
0
LINE
8
BLACK
6
CONTINUOUS
10
217.302
20
-98.9838
11
217.306
21
-98.9964
0
LINE
8
BLACK
6
CONTINUOUS
10
217.306
20
-98.9964
11
217.313
21
-99.0079
0
LINE
8
BLACK
6
CONTINUOUS
10
217.313
20
-99.0079
11
217.315
21
-99.021
0
LINE
8
BLACK
6
CONTINUOUS
10
217.315
20
-99.021
11
217.32
21
-99.0336
0
LINE
8
BLACK
6
CONTINUOUS
10
217.32
20
-99.0336
11
217.32
21
-99.0469
0
LINE
8
BLACK
6
CONTINUOUS
10
217.32
20
-99.0469
11
217.32
21
-99.0469
0
LINE
8
BLACK
6
CONTINUOUS
10
217.32
20
-99.0469
11
217.32
21
-114.313
0
LINE
8
BLACK
6
CONTINUOUS
10
217.32
20
-114.313
11
217.32
21
-114.313
0
LINE
8
BLACK
6
CONTINUOUS
10
217.32
20
-114.313
11
217.32
21
-114.326
0
LINE
8
BLACK
6
CONTINUOUS
10
217.32
20
-114.326
11
217.315
21
-114.339
0
LINE
8
BLACK
6
CONTINUOUS
10
217.315
20
-114.339
11
217.313
21
-114.352
0
LINE
8
BLACK
6
CONTINUOUS
10
217.313
20
-114.352
11
217.306
21
-114.364
0
LINE
8
BLACK
6
CONTINUOUS
10
217.306
20
-114.364
11
217.302
21
-114.376
0
LINE
8
BLACK
6
CONTINUOUS
10
217.302
20
-114.376
11
217.293
21
-114.386
0
LINE
8
BLACK
6
CONTINUOUS
10
217.293
20
-114.386
11
217.287
21
-114.398
0
LINE
8
BLACK
6
CONTINUOUS
10
217.287
20
-114.398
11
217.276
21
-114.406
0
LINE
8
BLACK
6
CONTINUOUS
10
217.276
20
-114.406
11
217.268
21
-114.417
0
LINE
8
BLACK
6
CONTINUOUS
10
217.268
20
-114.417
11
217.256
21
-114.423
0
LINE
8
BLACK
6
CONTINUOUS
10
217.256
20
-114.423
11
217.246
21
-114.432
0
LINE
8
BLACK
6
CONTINUOUS
10
217.246
20
-114.432
11
217.234
21
-114.436
0
LINE
8
BLACK
6
CONTINUOUS
10
217.234
20
-114.436
11
217.222
21
-114.443
0
LINE
8
BLACK
6
CONTINUOUS
10
217.222
20
-114.443
11
217.209
21
-114.445
0
LINE
8
BLACK
6
CONTINUOUS
10
217.209
20
-114.445
11
217.196
21
-114.45
0
LINE
8
BLACK
6
CONTINUOUS
10
217.196
20
-114.45
11
217.183
21
-114.45
0
LINE
8
BLACK
6
CONTINUOUS
10
217.183
20
-114.45
11
217.183
21
-114.45
0
LINE
8
BLACK
6
CONTINUOUS
10
217.183
20
-114.45
11
201.917
21
-114.45
0
LINE
8
BLACK
6
CONTINUOUS
10
201.917
20
-114.45
11
201.917
21
-114.45
0
LINE
8
BLACK
6
CONTINUOUS
10
201.917
20
-114.45
11
201.904
21
-114.45
0
LINE
8
BLACK
6
CONTINUOUS
10
201.904
20
-114.45
11
201.891
21
-114.445
0
LINE
8
BLACK
6
CONTINUOUS
10
201.891
20
-114.445
11
201.878
21
-114.443
0
LINE
8
BLACK
6
CONTINUOUS
10
201.878
20
-114.443
11
201.866
21
-114.436
0
LINE
8
BLACK
6
CONTINUOUS
10
201.866
20
-114.436
11
201.854
21
-114.432
0
LINE
8
BLACK
6
CONTINUOUS
10
201.854
20
-114.432
11
201.844
21
-114.423
0
LINE
8
BLACK
6
CONTINUOUS
10
201.844
20
-114.423
11
201.832
21
-114.417
0
LINE
8
BLACK
6
CONTINUOUS
10
201.832
20
-114.417
11
201.824
21
-114.406
0
LINE
8
BLACK
6
CONTINUOUS
10
201.824
20
-114.406
11
201.813
21
-114.398
0
LINE
8
BLACK
6
CONTINUOUS
10
201.813
20
-114.398
11
201.807
21
-114.386
0
LINE
8
BLACK
6
CONTINUOUS
10
201.807
20
-114.386
11
201.798
21
-114.376
0
LINE
8
BLACK
6
CONTINUOUS
10
201.798
20
-114.376
11
201.794
21
-114.364
0
LINE
8
BLACK
6
CONTINUOUS
10
201.794
20
-114.364
11
201.787
21
-114.352
0
LINE
8
BLACK
6
CONTINUOUS
10
201.787
20
-114.352
11
201.785
21
-114.339
0
LINE
8
BLACK
6
CONTINUOUS
10
201.785
20
-114.339
11
201.78
21
-114.326
0
LINE
8
BLACK
6
CONTINUOUS
10
201.78
20
-114.326
11
201.78
21
-114.313
0
LINE
8
BLACK
6
CONTINUOUS
10
201.78
20
-114.313
11
201.78
21
-114.313
0
LINE
8
BLACK
6
CONTINUOUS
10
201.78
20
-114.313
11
201.78
21
-99.0469
0
LINE
8
BLACK
6
CONTINUOUS
10
201.78
20
-99.0469
11
201.78
21
-99.0336
0
LINE
8
BLACK
6
CONTINUOUS
10
201.78
20
-99.0336
11
201.785
21
-99.021
0
LINE
8
BLACK
6
CONTINUOUS
10
201.785
20
-99.021
11
201.787
21
-99.0079
0
LINE
8
BLACK
6
CONTINUOUS
10
201.787
20
-99.0079
11
201.794
21
-98.9964
0
LINE
8
BLACK
6
CONTINUOUS
10
201.794
20
-98.9964
11
201.798
21
-98.9838
0
LINE
8
BLACK
6
CONTINUOUS
10
201.798
20
-98.9838
11
201.807
21
-98.9736
0
LINE
8
BLACK
6
CONTINUOUS
10
201.807
20
-98.9736
11
201.813
21
-98.9621
0
LINE
8
BLACK
6
CONTINUOUS
10
201.813
20
-98.9621
11
201.824
21
-98.9535
0
LINE
8
BLACK
6
CONTINUOUS
10
201.824
20
-98.9535
11
201.832
21
-98.9433
0
LINE
8
BLACK
6
CONTINUOUS
10
201.832
20
-98.9433
11
201.844
21
-98.9367
0
LINE
8
BLACK
6
CONTINUOUS
10
201.844
20
-98.9367
11
201.854
21
-98.9281
0
LINE
8
BLACK
6
CONTINUOUS
10
201.854
20
-98.9281
11
201.866
21
-98.9235
0
LINE
8
BLACK
6
CONTINUOUS
10
201.866
20
-98.9235
11
201.878
21
-98.9169
0
LINE
8
BLACK
6
CONTINUOUS
10
201.878
20
-98.9169
11
201.891
21
-98.9146
0
LINE
8
BLACK
6
CONTINUOUS
10
201.891
20
-98.9146
11
201.904
21
-98.91
0
LINE
8
BLACK
6
CONTINUOUS
10
201.904
20
-98.91
11
201.917
21
-98.91
0
LINE
8
BLACK
6
CONTINUOUS
10
201.917
20
-98.91
11
201.917
21
-98.91
0
LINE
8
BLACK
6
CONTINUOUS
10
201.917
20
-98.91
11
217.183
21
-98.91
0
LINE
8
BLACK
6
CONTINUOUS
10
217.183
20
-98.91
11
217.183
21
-98.91
0
LINE
8
BLACK
6
CONTINUOUS
10
202.08
20
-99.21
11
202.08
21
-114.15
0
LINE
8
BLACK
6
CONTINUOUS
10
202.08
20
-114.15
11
217.02
21
-114.15
0
LINE
8
BLACK
6
CONTINUOUS
10
217.02
20
-114.15
11
217.02
21
-99.21
0
LINE
8
BLACK
6
CONTINUOUS
10
217.02
20
-99.21
11
202.08
21
-99.21
0
LINE
8
BLACK
6
CONTINUOUS
10
121.933
20
-87.48
11
121.946
21
-87.48
0
LINE
8
BLACK
6
CONTINUOUS
10
121.946
20
-87.48
11
121.959
21
-87.4846
0
LINE
8
BLACK
6
CONTINUOUS
10
121.959
20
-87.4846
11
121.972
21
-87.4869
0
LINE
8
BLACK
6
CONTINUOUS
10
121.972
20
-87.4869
11
121.984
21
-87.4935
0
LINE
8
BLACK
6
CONTINUOUS
10
121.984
20
-87.4935
11
121.996
21
-87.4981
0
LINE
8
BLACK
6
CONTINUOUS
10
121.996
20
-87.4981
11
122.006
21
-87.5067
0
LINE
8
BLACK
6
CONTINUOUS
10
122.006
20
-87.5067
11
122.018
21
-87.5133
0
LINE
8
BLACK
6
CONTINUOUS
10
122.018
20
-87.5133
11
122.026
21
-87.5235
0
LINE
8
BLACK
6
CONTINUOUS
10
122.026
20
-87.5235
11
122.037
21
-87.5321
0
LINE
8
BLACK
6
CONTINUOUS
10
122.037
20
-87.5321
11
122.043
21
-87.5436
0
LINE
8
BLACK
6
CONTINUOUS
10
122.043
20
-87.5436
11
122.052
21
-87.5538
0
LINE
8
BLACK
6
CONTINUOUS
10
122.052
20
-87.5538
11
122.056
21
-87.5664
0
LINE
8
BLACK
6
CONTINUOUS
10
122.056
20
-87.5664
11
122.063
21
-87.5779
0
LINE
8
BLACK
6
CONTINUOUS
10
122.063
20
-87.5779
11
122.065
21
-87.591
0
LINE
8
BLACK
6
CONTINUOUS
10
122.065
20
-87.591
11
122.07
21
-87.6036
0
LINE
8
BLACK
6
CONTINUOUS
10
122.07
20
-87.6036
11
122.07
21
-87.6169
0
LINE
8
BLACK
6
CONTINUOUS
10
122.07
20
-87.6169
11
122.07
21
-87.6169
0
LINE
8
BLACK
6
CONTINUOUS
10
122.07
20
-87.6169
11
122.07
21
-102.883
0
LINE
8
BLACK
6
CONTINUOUS
10
122.07
20
-102.883
11
122.07
21
-102.883
0
LINE
8
BLACK
6
CONTINUOUS
10
122.07
20
-102.883
11
122.07
21
-102.896
0
LINE
8
BLACK
6
CONTINUOUS
10
122.07
20
-102.896
11
122.065
21
-102.909
0
LINE
8
BLACK
6
CONTINUOUS
10
122.065
20
-102.909
11
122.063
21
-102.922
0
LINE
8
BLACK
6
CONTINUOUS
10
122.063
20
-102.922
11
122.056
21
-102.934
0
LINE
8
BLACK
6
CONTINUOUS
10
122.056
20
-102.934
11
122.052
21
-102.946
0
LINE
8
BLACK
6
CONTINUOUS
10
122.052
20
-102.946
11
122.043
21
-102.956
0
LINE
8
BLACK
6
CONTINUOUS
10
122.043
20
-102.956
11
122.037
21
-102.968
0
LINE
8
BLACK
6
CONTINUOUS
10
122.037
20
-102.968
11
122.026
21
-102.976
0
LINE
8
BLACK
6
CONTINUOUS
10
122.026
20
-102.976
11
122.018
21
-102.987
0
LINE
8
BLACK
6
CONTINUOUS
10
122.018
20
-102.987
11
122.006
21
-102.993
0
LINE
8
BLACK
6
CONTINUOUS
10
122.006
20
-102.993
11
121.996
21
-103.002
0
LINE
8
BLACK
6
CONTINUOUS
10
121.996
20
-103.002
11
121.984
21
-103.006
0
LINE
8
BLACK
6
CONTINUOUS
10
121.984
20
-103.006
11
121.972
21
-103.013
0
LINE
8
BLACK
6
CONTINUOUS
10
121.972
20
-103.013
11
121.959
21
-103.015
0
LINE
8
BLACK
6
CONTINUOUS
10
121.959
20
-103.015
11
121.946
21
-103.02
0
LINE
8
BLACK
6
CONTINUOUS
10
121.946
20
-103.02
11
121.933
21
-103.02
0
LINE
8
BLACK
6
CONTINUOUS
10
121.933
20
-103.02
11
121.933
21
-103.02
0
LINE
8
BLACK
6
CONTINUOUS
10
121.933
20
-103.02
11
106.667
21
-103.02
0
LINE
8
BLACK
6
CONTINUOUS
10
106.667
20
-103.02
11
106.667
21
-103.02
0
LINE
8
BLACK
6
CONTINUOUS
10
106.667
20
-103.02
11
106.654
21
-103.02
0
LINE
8
BLACK
6
CONTINUOUS
10
106.654
20
-103.02
11
106.641
21
-103.015
0
LINE
8
BLACK
6
CONTINUOUS
10
106.641
20
-103.015
11
106.628
21
-103.013
0
LINE
8
BLACK
6
CONTINUOUS
10
106.628
20
-103.013
11
106.616
21
-103.006
0
LINE
8
BLACK
6
CONTINUOUS
10
106.616
20
-103.006
11
106.604
21
-103.002
0
LINE
8
BLACK
6
CONTINUOUS
10
106.604
20
-103.002
11
106.594
21
-102.993
0
LINE
8
BLACK
6
CONTINUOUS
10
106.594
20
-102.993
11
106.582
21
-102.987
0
LINE
8
BLACK
6
CONTINUOUS
10
106.582
20
-102.987
11
106.574
21
-102.976
0
LINE
8
BLACK
6
CONTINUOUS
10
106.574
20
-102.976
11
106.563
21
-102.968
0
LINE
8
BLACK
6
CONTINUOUS
10
106.563
20
-102.968
11
106.557
21
-102.956
0
LINE
8
BLACK
6
CONTINUOUS
10
106.557
20
-102.956
11
106.548
21
-102.946
0
LINE
8
BLACK
6
CONTINUOUS
10
106.548
20
-102.946
11
106.544
21
-102.934
0
LINE
8
BLACK
6
CONTINUOUS
10
106.544
20
-102.934
11
106.537
21
-102.922
0
LINE
8
BLACK
6
CONTINUOUS
10
106.537
20
-102.922
11
106.535
21
-102.909
0
LINE
8
BLACK
6
CONTINUOUS
10
106.535
20
-102.909
11
106.53
21
-102.896
0
LINE
8
BLACK
6
CONTINUOUS
10
106.53
20
-102.896
11
106.53
21
-102.883
0
LINE
8
BLACK
6
CONTINUOUS
10
106.53
20
-102.883
11
106.53
21
-102.883
0
LINE
8
BLACK
6
CONTINUOUS
10
106.53
20
-102.883
11
106.53
21
-87.6169
0
LINE
8
BLACK
6
CONTINUOUS
10
106.53
20
-87.6169
11
106.53
21
-87.6036
0
LINE
8
BLACK
6
CONTINUOUS
10
106.53
20
-87.6036
11
106.535
21
-87.591
0
LINE
8
BLACK
6
CONTINUOUS
10
106.535
20
-87.591
11
106.537
21
-87.5779
0
LINE
8
BLACK
6
CONTINUOUS
10
106.537
20
-87.5779
11
106.544
21
-87.5664
0
LINE
8
BLACK
6
CONTINUOUS
10
106.544
20
-87.5664
11
106.548
21
-87.5538
0
LINE
8
BLACK
6
CONTINUOUS
10
106.548
20
-87.5538
11
106.557
21
-87.5436
0
LINE
8
BLACK
6
CONTINUOUS
10
106.557
20
-87.5436
11
106.563
21
-87.5321
0
LINE
8
BLACK
6
CONTINUOUS
10
106.563
20
-87.5321
11
106.574
21
-87.5235
0
LINE
8
BLACK
6
CONTINUOUS
10
106.574
20
-87.5235
11
106.582
21
-87.5133
0
LINE
8
BLACK
6
CONTINUOUS
10
106.582
20
-87.5133
11
106.594
21
-87.5067
0
LINE
8
BLACK
6
CONTINUOUS
10
106.594
20
-87.5067
11
106.604
21
-87.4981
0
LINE
8
BLACK
6
CONTINUOUS
10
106.604
20
-87.4981
11
106.616
21
-87.4935
0
LINE
8
BLACK
6
CONTINUOUS
10
106.616
20
-87.4935
11
106.628
21
-87.4869
0
LINE
8
BLACK
6
CONTINUOUS
10
106.628
20
-87.4869
11
106.641
21
-87.4846
0
LINE
8
BLACK
6
CONTINUOUS
10
106.641
20
-87.4846
11
106.654
21
-87.48
0
LINE
8
BLACK
6
CONTINUOUS
10
106.654
20
-87.48
11
106.667
21
-87.48
0
LINE
8
BLACK
6
CONTINUOUS
10
106.667
20
-87.48
11
106.667
21
-87.48
0
LINE
8
BLACK
6
CONTINUOUS
10
106.667
20
-87.48
11
121.933
21
-87.48
0
LINE
8
BLACK
6
CONTINUOUS
10
121.933
20
-87.48
11
121.933
21
-87.48
0
LINE
8
BLACK
6
CONTINUOUS
10
106.83
20
-87.78
11
106.83
21
-102.72
0
LINE
8
BLACK
6
CONTINUOUS
10
106.83
20
-102.72
11
121.77
21
-102.72
0
LINE
8
BLACK
6
CONTINUOUS
10
121.77
20
-102.72
11
121.77
21
-87.78
0
LINE
8
BLACK
6
CONTINUOUS
10
121.77
20
-87.78
11
106.83
21
-87.78
0
LINE
8
BLACK
6
CONTINUOUS
10
179.083
20
-87.48
11
179.096
21
-87.48
0
LINE
8
BLACK
6
CONTINUOUS
10
179.096
20
-87.48
11
179.109
21
-87.4846
0
LINE
8
BLACK
6
CONTINUOUS
10
179.109
20
-87.4846
11
179.122
21
-87.4869
0
LINE
8
BLACK
6
CONTINUOUS
10
179.122
20
-87.4869
11
179.134
21
-87.4935
0
LINE
8
BLACK
6
CONTINUOUS
10
179.134
20
-87.4935
11
179.146
21
-87.4981
0
LINE
8
BLACK
6
CONTINUOUS
10
179.146
20
-87.4981
11
179.156
21
-87.5067
0
LINE
8
BLACK
6
CONTINUOUS
10
179.156
20
-87.5067
11
179.168
21
-87.5133
0
LINE
8
BLACK
6
CONTINUOUS
10
179.168
20
-87.5133
11
179.176
21
-87.5235
0
LINE
8
BLACK
6
CONTINUOUS
10
179.176
20
-87.5235
11
179.187
21
-87.5321
0
LINE
8
BLACK
6
CONTINUOUS
10
179.187
20
-87.5321
11
179.193
21
-87.5436
0
LINE
8
BLACK
6
CONTINUOUS
10
179.193
20
-87.5436
11
179.202
21
-87.5538
0
LINE
8
BLACK
6
CONTINUOUS
10
179.202
20
-87.5538
11
179.206
21
-87.5664
0
LINE
8
BLACK
6
CONTINUOUS
10
179.206
20
-87.5664
11
179.213
21
-87.5779
0
LINE
8
BLACK
6
CONTINUOUS
10
179.213
20
-87.5779
11
179.215
21
-87.591
0
LINE
8
BLACK
6
CONTINUOUS
10
179.215
20
-87.591
11
179.22
21
-87.6036
0
LINE
8
BLACK
6
CONTINUOUS
10
179.22
20
-87.6036
11
179.22
21
-87.6169
0
LINE
8
BLACK
6
CONTINUOUS
10
179.22
20
-87.6169
11
179.22
21
-87.6169
0
LINE
8
BLACK
6
CONTINUOUS
10
179.22
20
-87.6169
11
179.22
21
-102.883
0
LINE
8
BLACK
6
CONTINUOUS
10
179.22
20
-102.883
11
179.22
21
-102.883
0
LINE
8
BLACK
6
CONTINUOUS
10
179.22
20
-102.883
11
179.22
21
-102.896
0
LINE
8
BLACK
6
CONTINUOUS
10
179.22
20
-102.896
11
179.215
21
-102.909
0
LINE
8
BLACK
6
CONTINUOUS
10
179.215
20
-102.909
11
179.213
21
-102.922
0
LINE
8
BLACK
6
CONTINUOUS
10
179.213
20
-102.922
11
179.206
21
-102.934
0
LINE
8
BLACK
6
CONTINUOUS
10
179.206
20
-102.934
11
179.202
21
-102.946
0
LINE
8
BLACK
6
CONTINUOUS
10
179.202
20
-102.946
11
179.193
21
-102.956
0
LINE
8
BLACK
6
CONTINUOUS
10
179.193
20
-102.956
11
179.187
21
-102.968
0
LINE
8
BLACK
6
CONTINUOUS
10
179.187
20
-102.968
11
179.176
21
-102.976
0
LINE
8
BLACK
6
CONTINUOUS
10
179.176
20
-102.976
11
179.168
21
-102.987
0
LINE
8
BLACK
6
CONTINUOUS
10
179.168
20
-102.987
11
179.156
21
-102.993
0
LINE
8
BLACK
6
CONTINUOUS
10
179.156
20
-102.993
11
179.146
21
-103.002
0
LINE
8
BLACK
6
CONTINUOUS
10
179.146
20
-103.002
11
179.134
21
-103.006
0
LINE
8
BLACK
6
CONTINUOUS
10
179.134
20
-103.006
11
179.122
21
-103.013
0
LINE
8
BLACK
6
CONTINUOUS
10
179.122
20
-103.013
11
179.109
21
-103.015
0
LINE
8
BLACK
6
CONTINUOUS
10
179.109
20
-103.015
11
179.096
21
-103.02
0
LINE
8
BLACK
6
CONTINUOUS
10
179.096
20
-103.02
11
179.083
21
-103.02
0
LINE
8
BLACK
6
CONTINUOUS
10
179.083
20
-103.02
11
179.083
21
-103.02
0
LINE
8
BLACK
6
CONTINUOUS
10
179.083
20
-103.02
11
163.817
21
-103.02
0
LINE
8
BLACK
6
CONTINUOUS
10
163.817
20
-103.02
11
163.817
21
-103.02
0
LINE
8
BLACK
6
CONTINUOUS
10
163.817
20
-103.02
11
163.804
21
-103.02
0
LINE
8
BLACK
6
CONTINUOUS
10
163.804
20
-103.02
11
163.791
21
-103.015
0
LINE
8
BLACK
6
CONTINUOUS
10
163.791
20
-103.015
11
163.778
21
-103.013
0
LINE
8
BLACK
6
CONTINUOUS
10
163.778
20
-103.013
11
163.766
21
-103.006
0
LINE
8
BLACK
6
CONTINUOUS
10
163.766
20
-103.006
11
163.754
21
-103.002
0
LINE
8
BLACK
6
CONTINUOUS
10
163.754
20
-103.002
11
163.744
21
-102.993
0
LINE
8
BLACK
6
CONTINUOUS
10
163.744
20
-102.993
11
163.732
21
-102.987
0
LINE
8
BLACK
6
CONTINUOUS
10
163.732
20
-102.987
11
163.724
21
-102.976
0
LINE
8
BLACK
6
CONTINUOUS
10
163.724
20
-102.976
11
163.713
21
-102.968
0
LINE
8
BLACK
6
CONTINUOUS
10
163.713
20
-102.968
11
163.707
21
-102.956
0
LINE
8
BLACK
6
CONTINUOUS
10
163.707
20
-102.956
11
163.698
21
-102.946
0
LINE
8
BLACK
6
CONTINUOUS
10
163.698
20
-102.946
11
163.694
21
-102.934
0
LINE
8
BLACK
6
CONTINUOUS
10
163.694
20
-102.934
11
163.687
21
-102.922
0
LINE
8
BLACK
6
CONTINUOUS
10
163.687
20
-102.922
11
163.685
21
-102.909
0
LINE
8
BLACK
6
CONTINUOUS
10
163.685
20
-102.909
11
163.68
21
-102.896
0
LINE
8
BLACK
6
CONTINUOUS
10
163.68
20
-102.896
11
163.68
21
-102.883
0
LINE
8
BLACK
6
CONTINUOUS
10
163.68
20
-102.883
11
163.68
21
-102.883
0
LINE
8
BLACK
6
CONTINUOUS
10
163.68
20
-102.883
11
163.68
21
-87.6169
0
LINE
8
BLACK
6
CONTINUOUS
10
163.68
20
-87.6169
11
163.68
21
-87.6036
0
LINE
8
BLACK
6
CONTINUOUS
10
163.68
20
-87.6036
11
163.685
21
-87.591
0
LINE
8
BLACK
6
CONTINUOUS
10
163.685
20
-87.591
11
163.687
21
-87.5779
0
LINE
8
BLACK
6
CONTINUOUS
10
163.687
20
-87.5779
11
163.694
21
-87.5664
0
LINE
8
BLACK
6
CONTINUOUS
10
163.694
20
-87.5664
11
163.698
21
-87.5538
0
LINE
8
BLACK
6
CONTINUOUS
10
163.698
20
-87.5538
11
163.707
21
-87.5436
0
LINE
8
BLACK
6
CONTINUOUS
10
163.707
20
-87.5436
11
163.713
21
-87.5321
0
LINE
8
BLACK
6
CONTINUOUS
10
163.713
20
-87.5321
11
163.724
21
-87.5235
0
LINE
8
BLACK
6
CONTINUOUS
10
163.724
20
-87.5235
11
163.732
21
-87.5133
0
LINE
8
BLACK
6
CONTINUOUS
10
163.732
20
-87.5133
11
163.744
21
-87.5067
0
LINE
8
BLACK
6
CONTINUOUS
10
163.744
20
-87.5067
11
163.754
21
-87.4981
0
LINE
8
BLACK
6
CONTINUOUS
10
163.754
20
-87.4981
11
163.766
21
-87.4935
0
LINE
8
BLACK
6
CONTINUOUS
10
163.766
20
-87.4935
11
163.778
21
-87.4869
0
LINE
8
BLACK
6
CONTINUOUS
10
163.778
20
-87.4869
11
163.791
21
-87.4846
0
LINE
8
BLACK
6
CONTINUOUS
10
163.791
20
-87.4846
11
163.804
21
-87.48
0
LINE
8
BLACK
6
CONTINUOUS
10
163.804
20
-87.48
11
163.817
21
-87.48
0
LINE
8
BLACK
6
CONTINUOUS
10
163.817
20
-87.48
11
163.817
21
-87.48
0
LINE
8
BLACK
6
CONTINUOUS
10
163.817
20
-87.48
11
179.083
21
-87.48
0
LINE
8
BLACK
6
CONTINUOUS
10
179.083
20
-87.48
11
179.083
21
-87.48
0
LINE
8
BLACK
6
CONTINUOUS
10
163.98
20
-87.78
11
163.98
21
-102.72
0
LINE
8
BLACK
6
CONTINUOUS
10
163.98
20
-102.72
11
178.92
21
-102.72
0
LINE
8
BLACK
6
CONTINUOUS
10
178.92
20
-102.72
11
178.92
21
-87.78
0
LINE
8
BLACK
6
CONTINUOUS
10
178.92
20
-87.78
11
163.98
21
-87.78
0
LINE
8
BLACK
6
CONTINUOUS
10
140.983
20
-87.48
11
140.996
21
-87.48
0
LINE
8
BLACK
6
CONTINUOUS
10
140.996
20
-87.48
11
141.009
21
-87.4846
0
LINE
8
BLACK
6
CONTINUOUS
10
141.009
20
-87.4846
11
141.022
21
-87.4869
0
LINE
8
BLACK
6
CONTINUOUS
10
141.022
20
-87.4869
11
141.034
21
-87.4935
0
LINE
8
BLACK
6
CONTINUOUS
10
141.034
20
-87.4935
11
141.046
21
-87.4981
0
LINE
8
BLACK
6
CONTINUOUS
10
141.046
20
-87.4981
11
141.056
21
-87.5067
0
LINE
8
BLACK
6
CONTINUOUS
10
141.056
20
-87.5067
11
141.068
21
-87.5133
0
LINE
8
BLACK
6
CONTINUOUS
10
141.068
20
-87.5133
11
141.076
21
-87.5235
0
LINE
8
BLACK
6
CONTINUOUS
10
141.076
20
-87.5235
11
141.087
21
-87.5321
0
LINE
8
BLACK
6
CONTINUOUS
10
141.087
20
-87.5321
11
141.093
21
-87.5436
0
LINE
8
BLACK
6
CONTINUOUS
10
141.093
20
-87.5436
11
141.102
21
-87.5538
0
LINE
8
BLACK
6
CONTINUOUS
10
141.102
20
-87.5538
11
141.106
21
-87.5664
0
LINE
8
BLACK
6
CONTINUOUS
10
141.106
20
-87.5664
11
141.113
21
-87.5779
0
LINE
8
BLACK
6
CONTINUOUS
10
141.113
20
-87.5779
11
141.115
21
-87.591
0
LINE
8
BLACK
6
CONTINUOUS
10
141.115
20
-87.591
11
141.12
21
-87.6036
0
LINE
8
BLACK
6
CONTINUOUS
10
141.12
20
-87.6036
11
141.12
21
-87.6169
0
LINE
8
BLACK
6
CONTINUOUS
10
141.12
20
-87.6169
11
141.12
21
-87.6169
0
LINE
8
BLACK
6
CONTINUOUS
10
141.12
20
-87.6169
11
141.12
21
-102.883
0
LINE
8
BLACK
6
CONTINUOUS
10
141.12
20
-102.883
11
141.12
21
-102.883
0
LINE
8
BLACK
6
CONTINUOUS
10
141.12
20
-102.883
11
141.12
21
-102.896
0
LINE
8
BLACK
6
CONTINUOUS
10
141.12
20
-102.896
11
141.115
21
-102.909
0
LINE
8
BLACK
6
CONTINUOUS
10
141.115
20
-102.909
11
141.113
21
-102.922
0
LINE
8
BLACK
6
CONTINUOUS
10
141.113
20
-102.922
11
141.106
21
-102.934
0
LINE
8
BLACK
6
CONTINUOUS
10
141.106
20
-102.934
11
141.102
21
-102.946
0
LINE
8
BLACK
6
CONTINUOUS
10
141.102
20
-102.946
11
141.093
21
-102.956
0
LINE
8
BLACK
6
CONTINUOUS
10
141.093
20
-102.956
11
141.087
21
-102.968
0
LINE
8
BLACK
6
CONTINUOUS
10
141.087
20
-102.968
11
141.076
21
-102.976
0
LINE
8
BLACK
6
CONTINUOUS
10
141.076
20
-102.976
11
141.068
21
-102.987
0
LINE
8
BLACK
6
CONTINUOUS
10
141.068
20
-102.987
11
141.056
21
-102.993
0
LINE
8
BLACK
6
CONTINUOUS
10
141.056
20
-102.993
11
141.046
21
-103.002
0
LINE
8
BLACK
6
CONTINUOUS
10
141.046
20
-103.002
11
141.034
21
-103.006
0
LINE
8
BLACK
6
CONTINUOUS
10
141.034
20
-103.006
11
141.022
21
-103.013
0
LINE
8
BLACK
6
CONTINUOUS
10
141.022
20
-103.013
11
141.009
21
-103.015
0
LINE
8
BLACK
6
CONTINUOUS
10
141.009
20
-103.015
11
140.996
21
-103.02
0
LINE
8
BLACK
6
CONTINUOUS
10
140.996
20
-103.02
11
140.983
21
-103.02
0
LINE
8
BLACK
6
CONTINUOUS
10
140.983
20
-103.02
11
140.983
21
-103.02
0
LINE
8
BLACK
6
CONTINUOUS
10
140.983
20
-103.02
11
125.717
21
-103.02
0
LINE
8
BLACK
6
CONTINUOUS
10
125.717
20
-103.02
11
125.717
21
-103.02
0
LINE
8
BLACK
6
CONTINUOUS
10
125.717
20
-103.02
11
125.704
21
-103.02
0
LINE
8
BLACK
6
CONTINUOUS
10
125.704
20
-103.02
11
125.691
21
-103.015
0
LINE
8
BLACK
6
CONTINUOUS
10
125.691
20
-103.015
11
125.678
21
-103.013
0
LINE
8
BLACK
6
CONTINUOUS
10
125.678
20
-103.013
11
125.666
21
-103.006
0
LINE
8
BLACK
6
CONTINUOUS
10
125.666
20
-103.006
11
125.654
21
-103.002
0
LINE
8
BLACK
6
CONTINUOUS
10
125.654
20
-103.002
11
125.644
21
-102.993
0
LINE
8
BLACK
6
CONTINUOUS
10
125.644
20
-102.993
11
125.632
21
-102.987
0
LINE
8
BLACK
6
CONTINUOUS
10
125.632
20
-102.987
11
125.624
21
-102.976
0
LINE
8
BLACK
6
CONTINUOUS
10
125.624
20
-102.976
11
125.613
21
-102.968
0
LINE
8
BLACK
6
CONTINUOUS
10
125.613
20
-102.968
11
125.607
21
-102.956
0
LINE
8
BLACK
6
CONTINUOUS
10
125.607
20
-102.956
11
125.598
21
-102.946
0
LINE
8
BLACK
6
CONTINUOUS
10
125.598
20
-102.946
11
125.594
21
-102.934
0
LINE
8
BLACK
6
CONTINUOUS
10
125.594
20
-102.934
11
125.587
21
-102.922
0
LINE
8
BLACK
6
CONTINUOUS
10
125.587
20
-102.922
11
125.585
21
-102.909
0
LINE
8
BLACK
6
CONTINUOUS
10
125.585
20
-102.909
11
125.58
21
-102.896
0
LINE
8
BLACK
6
CONTINUOUS
10
125.58
20
-102.896
11
125.58
21
-102.883
0
LINE
8
BLACK
6
CONTINUOUS
10
125.58
20
-102.883
11
125.58
21
-102.883
0
LINE
8
BLACK
6
CONTINUOUS
10
125.58
20
-102.883
11
125.58
21
-87.6169
0
LINE
8
BLACK
6
CONTINUOUS
10
125.58
20
-87.6169
11
125.58
21
-87.6036
0
LINE
8
BLACK
6
CONTINUOUS
10
125.58
20
-87.6036
11
125.585
21
-87.591
0
LINE
8
BLACK
6
CONTINUOUS
10
125.585
20
-87.591
11
125.587
21
-87.5779
0
LINE
8
BLACK
6
CONTINUOUS
10
125.587
20
-87.5779
11
125.594
21
-87.5664
0
LINE
8
BLACK
6
CONTINUOUS
10
125.594
20
-87.5664
11
125.598
21
-87.5538
0
LINE
8
BLACK
6
CONTINUOUS
10
125.598
20
-87.5538
11
125.607
21
-87.5436
0
LINE
8
BLACK
6
CONTINUOUS
10
125.607
20
-87.5436
11
125.613
21
-87.5321
0
LINE
8
BLACK
6
CONTINUOUS
10
125.613
20
-87.5321
11
125.624
21
-87.5235
0
LINE
8
BLACK
6
CONTINUOUS
10
125.624
20
-87.5235
11
125.632
21
-87.5133
0
LINE
8
BLACK
6
CONTINUOUS
10
125.632
20
-87.5133
11
125.644
21
-87.5067
0
LINE
8
BLACK
6
CONTINUOUS
10
125.644
20
-87.5067
11
125.654
21
-87.4981
0
LINE
8
BLACK
6
CONTINUOUS
10
125.654
20
-87.4981
11
125.666
21
-87.4935
0
LINE
8
BLACK
6
CONTINUOUS
10
125.666
20
-87.4935
11
125.678
21
-87.4869
0
LINE
8
BLACK
6
CONTINUOUS
10
125.678
20
-87.4869
11
125.691
21
-87.4846
0
LINE
8
BLACK
6
CONTINUOUS
10
125.691
20
-87.4846
11
125.704
21
-87.48
0
LINE
8
BLACK
6
CONTINUOUS
10
125.704
20
-87.48
11
125.717
21
-87.48
0
LINE
8
BLACK
6
CONTINUOUS
10
125.717
20
-87.48
11
125.717
21
-87.48
0
LINE
8
BLACK
6
CONTINUOUS
10
125.717
20
-87.48
11
140.983
21
-87.48
0
LINE
8
BLACK
6
CONTINUOUS
10
140.983
20
-87.48
11
140.983
21
-87.48
0
LINE
8
BLACK
6
CONTINUOUS
10
125.88
20
-87.78
11
125.88
21
-102.72
0
LINE
8
BLACK
6
CONTINUOUS
10
125.88
20
-102.72
11
140.82
21
-102.72
0
LINE
8
BLACK
6
CONTINUOUS
10
140.82
20
-102.72
11
140.82
21
-87.78
0
LINE
8
BLACK
6
CONTINUOUS
10
140.82
20
-87.78
11
125.88
21
-87.78
0
LINE
8
BLACK
6
CONTINUOUS
10
160.033
20
-82.4
11
160.046
21
-82.4
0
LINE
8
BLACK
6
CONTINUOUS
10
160.046
20
-82.4
11
160.059
21
-82.4046
0
LINE
8
BLACK
6
CONTINUOUS
10
160.059
20
-82.4046
11
160.072
21
-82.4069
0
LINE
8
BLACK
6
CONTINUOUS
10
160.072
20
-82.4069
11
160.084
21
-82.4135
0
LINE
8
BLACK
6
CONTINUOUS
10
160.084
20
-82.4135
11
160.096
21
-82.4181
0
LINE
8
BLACK
6
CONTINUOUS
10
160.096
20
-82.4181
11
160.106
21
-82.4267
0
LINE
8
BLACK
6
CONTINUOUS
10
160.106
20
-82.4267
11
160.118
21
-82.4333
0
LINE
8
BLACK
6
CONTINUOUS
10
160.118
20
-82.4333
11
160.126
21
-82.4435
0
LINE
8
BLACK
6
CONTINUOUS
10
160.126
20
-82.4435
11
160.137
21
-82.4521
0
LINE
8
BLACK
6
CONTINUOUS
10
160.137
20
-82.4521
11
160.143
21
-82.4636
0
LINE
8
BLACK
6
CONTINUOUS
10
160.143
20
-82.4636
11
160.152
21
-82.4738
0
LINE
8
BLACK
6
CONTINUOUS
10
160.152
20
-82.4738
11
160.156
21
-82.4864
0
LINE
8
BLACK
6
CONTINUOUS
10
160.156
20
-82.4864
11
160.163
21
-82.4979
0
LINE
8
BLACK
6
CONTINUOUS
10
160.163
20
-82.4979
11
160.165
21
-82.511
0
LINE
8
BLACK
6
CONTINUOUS
10
160.165
20
-82.511
11
160.17
21
-82.5236
0
LINE
8
BLACK
6
CONTINUOUS
10
160.17
20
-82.5236
11
160.17
21
-82.5369
0
LINE
8
BLACK
6
CONTINUOUS
10
160.17
20
-82.5369
11
160.17
21
-82.5369
0
LINE
8
BLACK
6
CONTINUOUS
10
160.17
20
-82.5369
11
160.17
21
-97.8031
0
LINE
8
BLACK
6
CONTINUOUS
10
160.17
20
-97.8031
11
160.17
21
-97.8031
0
LINE
8
BLACK
6
CONTINUOUS
10
160.17
20
-97.8031
11
160.17
21
-97.8164
0
LINE
8
BLACK
6
CONTINUOUS
10
160.17
20
-97.8164
11
160.165
21
-97.829
0
LINE
8
BLACK
6
CONTINUOUS
10
160.165
20
-97.829
11
160.163
21
-97.8421
0
LINE
8
BLACK
6
CONTINUOUS
10
160.163
20
-97.8421
11
160.156
21
-97.8536
0
LINE
8
BLACK
6
CONTINUOUS
10
160.156
20
-97.8536
11
160.152
21
-97.8662
0
LINE
8
BLACK
6
CONTINUOUS
10
160.152
20
-97.8662
11
160.143
21
-97.8764
0
LINE
8
BLACK
6
CONTINUOUS
10
160.143
20
-97.8764
11
160.137
21
-97.8879
0
LINE
8
BLACK
6
CONTINUOUS
10
160.137
20
-97.8879
11
160.126
21
-97.8965
0
LINE
8
BLACK
6
CONTINUOUS
10
160.126
20
-97.8965
11
160.118
21
-97.9067
0
LINE
8
BLACK
6
CONTINUOUS
10
160.118
20
-97.9067
11
160.106
21
-97.9133
0
LINE
8
BLACK
6
CONTINUOUS
10
160.106
20
-97.9133
11
160.096
21
-97.9219
0
LINE
8
BLACK
6
CONTINUOUS
10
160.096
20
-97.9219
11
160.084
21
-97.9265
0
LINE
8
BLACK
6
CONTINUOUS
10
160.084
20
-97.9265
11
160.072
21
-97.9331
0
LINE
8
BLACK
6
CONTINUOUS
10
160.072
20
-97.9331
11
160.059
21
-97.9354
0
LINE
8
BLACK
6
CONTINUOUS
10
160.059
20
-97.9354
11
160.046
21
-97.94
0
LINE
8
BLACK
6
CONTINUOUS
10
160.046
20
-97.94
11
160.033
21
-97.94
0
LINE
8
BLACK
6
CONTINUOUS
10
160.033
20
-97.94
11
160.033
21
-97.94
0
LINE
8
BLACK
6
CONTINUOUS
10
160.033
20
-97.94
11
144.767
21
-97.94
0
LINE
8
BLACK
6
CONTINUOUS
10
144.767
20
-97.94
11
144.767
21
-97.94
0
LINE
8
BLACK
6
CONTINUOUS
10
144.767
20
-97.94
11
144.754
21
-97.94
0
LINE
8
BLACK
6
CONTINUOUS
10
144.754
20
-97.94
11
144.741
21
-97.9354
0
LINE
8
BLACK
6
CONTINUOUS
10
144.741
20
-97.9354
11
144.728
21
-97.9331
0
LINE
8
BLACK
6
CONTINUOUS
10
144.728
20
-97.9331
11
144.716
21
-97.9265
0
LINE
8
BLACK
6
CONTINUOUS
10
144.716
20
-97.9265
11
144.704
21
-97.9219
0
LINE
8
BLACK
6
CONTINUOUS
10
144.704
20
-97.9219
11
144.694
21
-97.9133
0
LINE
8
BLACK
6
CONTINUOUS
10
144.694
20
-97.9133
11
144.682
21
-97.9067
0
LINE
8
BLACK
6
CONTINUOUS
10
144.682
20
-97.9067
11
144.674
21
-97.8965
0
LINE
8
BLACK
6
CONTINUOUS
10
144.674
20
-97.8965
11
144.663
21
-97.8879
0
LINE
8
BLACK
6
CONTINUOUS
10
144.663
20
-97.8879
11
144.657
21
-97.8764
0
LINE
8
BLACK
6
CONTINUOUS
10
144.657
20
-97.8764
11
144.648
21
-97.8662
0
LINE
8
BLACK
6
CONTINUOUS
10
144.648
20
-97.8662
11
144.644
21
-97.8536
0
LINE
8
BLACK
6
CONTINUOUS
10
144.644
20
-97.8536
11
144.637
21
-97.8421
0
LINE
8
BLACK
6
CONTINUOUS
10
144.637
20
-97.8421
11
144.635
21
-97.829
0
LINE
8
BLACK
6
CONTINUOUS
10
144.635
20
-97.829
11
144.63
21
-97.8164
0
LINE
8
BLACK
6
CONTINUOUS
10
144.63
20
-97.8164
11
144.63
21
-97.8031
0
LINE
8
BLACK
6
CONTINUOUS
10
144.63
20
-97.8031
11
144.63
21
-97.8031
0
LINE
8
BLACK
6
CONTINUOUS
10
144.63
20
-97.8031
11
144.63
21
-82.5369
0
LINE
8
BLACK
6
CONTINUOUS
10
144.63
20
-82.5369
11
144.63
21
-82.5236
0
LINE
8
BLACK
6
CONTINUOUS
10
144.63
20
-82.5236
11
144.635
21
-82.511
0
LINE
8
BLACK
6
CONTINUOUS
10
144.635
20
-82.511
11
144.637
21
-82.4979
0
LINE
8
BLACK
6
CONTINUOUS
10
144.637
20
-82.4979
11
144.644
21
-82.4864
0
LINE
8
BLACK
6
CONTINUOUS
10
144.644
20
-82.4864
11
144.648
21
-82.4738
0
LINE
8
BLACK
6
CONTINUOUS
10
144.648
20
-82.4738
11
144.657
21
-82.4636
0
LINE
8
BLACK
6
CONTINUOUS
10
144.657
20
-82.4636
11
144.663
21
-82.4521
0
LINE
8
BLACK
6
CONTINUOUS
10
144.663
20
-82.4521
11
144.674
21
-82.4435
0
LINE
8
BLACK
6
CONTINUOUS
10
144.674
20
-82.4435
11
144.682
21
-82.4333
0
LINE
8
BLACK
6
CONTINUOUS
10
144.682
20
-82.4333
11
144.694
21
-82.4267
0
LINE
8
BLACK
6
CONTINUOUS
10
144.694
20
-82.4267
11
144.704
21
-82.4181
0
LINE
8
BLACK
6
CONTINUOUS
10
144.704
20
-82.4181
11
144.716
21
-82.4135
0
LINE
8
BLACK
6
CONTINUOUS
10
144.716
20
-82.4135
11
144.728
21
-82.4069
0
LINE
8
BLACK
6
CONTINUOUS
10
144.728
20
-82.4069
11
144.741
21
-82.4046
0
LINE
8
BLACK
6
CONTINUOUS
10
144.741
20
-82.4046
11
144.754
21
-82.4
0
LINE
8
BLACK
6
CONTINUOUS
10
144.754
20
-82.4
11
144.767
21
-82.4
0
LINE
8
BLACK
6
CONTINUOUS
10
144.767
20
-82.4
11
144.767
21
-82.4
0
LINE
8
BLACK
6
CONTINUOUS
10
144.767
20
-82.4
11
160.033
21
-82.4
0
LINE
8
BLACK
6
CONTINUOUS
10
160.033
20
-82.4
11
160.033
21
-82.4
0
LINE
8
BLACK
6
CONTINUOUS
10
144.93
20
-82.7
11
144.93
21
-97.64
0
LINE
8
BLACK
6
CONTINUOUS
10
144.93
20
-97.64
11
159.87
21
-97.64
0
LINE
8
BLACK
6
CONTINUOUS
10
159.87
20
-97.64
11
159.87
21
-82.7
0
LINE
8
BLACK
6
CONTINUOUS
10
159.87
20
-82.7
11
144.93
21
-82.7
0
LINE
8
BLACK
6
CONTINUOUS
10
217.183
20
-79.86
11
217.196
21
-79.86
0
LINE
8
BLACK
6
CONTINUOUS
10
217.196
20
-79.86
11
217.209
21
-79.8646
0
LINE
8
BLACK
6
CONTINUOUS
10
217.209
20
-79.8646
11
217.222
21
-79.8669
0
LINE
8
BLACK
6
CONTINUOUS
10
217.222
20
-79.8669
11
217.234
21
-79.8735
0
LINE
8
BLACK
6
CONTINUOUS
10
217.234
20
-79.8735
11
217.246
21
-79.8781
0
LINE
8
BLACK
6
CONTINUOUS
10
217.246
20
-79.8781
11
217.256
21
-79.8867
0
LINE
8
BLACK
6
CONTINUOUS
10
217.256
20
-79.8867
11
217.268
21
-79.8933
0
LINE
8
BLACK
6
CONTINUOUS
10
217.268
20
-79.8933
11
217.276
21
-79.9035
0
LINE
8
BLACK
6
CONTINUOUS
10
217.276
20
-79.9035
11
217.287
21
-79.9121
0
LINE
8
BLACK
6
CONTINUOUS
10
217.287
20
-79.9121
11
217.293
21
-79.9236
0
LINE
8
BLACK
6
CONTINUOUS
10
217.293
20
-79.9236
11
217.302
21
-79.9338
0
LINE
8
BLACK
6
CONTINUOUS
10
217.302
20
-79.9338
11
217.306
21
-79.9464
0
LINE
8
BLACK
6
CONTINUOUS
10
217.306
20
-79.9464
11
217.313
21
-79.9579
0
LINE
8
BLACK
6
CONTINUOUS
10
217.313
20
-79.9579
11
217.315
21
-79.971
0
LINE
8
BLACK
6
CONTINUOUS
10
217.315
20
-79.971
11
217.32
21
-79.9836
0
LINE
8
BLACK
6
CONTINUOUS
10
217.32
20
-79.9836
11
217.32
21
-79.9969
0
LINE
8
BLACK
6
CONTINUOUS
10
217.32
20
-79.9969
11
217.32
21
-79.9969
0
LINE
8
BLACK
6
CONTINUOUS
10
217.32
20
-79.9969
11
217.32
21
-95.2631
0
LINE
8
BLACK
6
CONTINUOUS
10
217.32
20
-95.2631
11
217.32
21
-95.2631
0
LINE
8
BLACK
6
CONTINUOUS
10
217.32
20
-95.2631
11
217.32
21
-95.2764
0
LINE
8
BLACK
6
CONTINUOUS
10
217.32
20
-95.2764
11
217.315
21
-95.289
0
LINE
8
BLACK
6
CONTINUOUS
10
217.315
20
-95.289
11
217.313
21
-95.3021
0
LINE
8
BLACK
6
CONTINUOUS
10
217.313
20
-95.3021
11
217.306
21
-95.3136
0
LINE
8
BLACK
6
CONTINUOUS
10
217.306
20
-95.3136
11
217.302
21
-95.3262
0
LINE
8
BLACK
6
CONTINUOUS
10
217.302
20
-95.3262
11
217.293
21
-95.3364
0
LINE
8
BLACK
6
CONTINUOUS
10
217.293
20
-95.3364
11
217.287
21
-95.3479
0
LINE
8
BLACK
6
CONTINUOUS
10
217.287
20
-95.3479
11
217.276
21
-95.3565
0
LINE
8
BLACK
6
CONTINUOUS
10
217.276
20
-95.3565
11
217.268
21
-95.3667
0
LINE
8
BLACK
6
CONTINUOUS
10
217.268
20
-95.3667
11
217.256
21
-95.3733
0
LINE
8
BLACK
6
CONTINUOUS
10
217.256
20
-95.3733
11
217.246
21
-95.3819
0
LINE
8
BLACK
6
CONTINUOUS
10
217.246
20
-95.3819
11
217.234
21
-95.3865
0
LINE
8
BLACK
6
CONTINUOUS
10
217.234
20
-95.3865
11
217.222
21
-95.3931
0
LINE
8
BLACK
6
CONTINUOUS
10
217.222
20
-95.3931
11
217.209
21
-95.3954
0
LINE
8
BLACK
6
CONTINUOUS
10
217.209
20
-95.3954
11
217.196
21
-95.4
0
LINE
8
BLACK
6
CONTINUOUS
10
217.196
20
-95.4
11
217.183
21
-95.4
0
LINE
8
BLACK
6
CONTINUOUS
10
217.183
20
-95.4
11
217.183
21
-95.4
0
LINE
8
BLACK
6
CONTINUOUS
10
217.183
20
-95.4
11
201.917
21
-95.4
0
LINE
8
BLACK
6
CONTINUOUS
10
201.917
20
-95.4
11
201.917
21
-95.4
0
LINE
8
BLACK
6
CONTINUOUS
10
201.917
20
-95.4
11
201.904
21
-95.4
0
LINE
8
BLACK
6
CONTINUOUS
10
201.904
20
-95.4
11
201.891
21
-95.3954
0
LINE
8
BLACK
6
CONTINUOUS
10
201.891
20
-95.3954
11
201.878
21
-95.3931
0
LINE
8
BLACK
6
CONTINUOUS
10
201.878
20
-95.3931
11
201.866
21
-95.3865
0
LINE
8
BLACK
6
CONTINUOUS
10
201.866
20
-95.3865
11
201.854
21
-95.3819
0
LINE
8
BLACK
6
CONTINUOUS
10
201.854
20
-95.3819
11
201.844
21
-95.3733
0
LINE
8
BLACK
6
CONTINUOUS
10
201.844
20
-95.3733
11
201.832
21
-95.3667
0
LINE
8
BLACK
6
CONTINUOUS
10
201.832
20
-95.3667
11
201.824
21
-95.3565
0
LINE
8
BLACK
6
CONTINUOUS
10
201.824
20
-95.3565
11
201.813
21
-95.3479
0
LINE
8
BLACK
6
CONTINUOUS
10
201.813
20
-95.3479
11
201.807
21
-95.3364
0
LINE
8
BLACK
6
CONTINUOUS
10
201.807
20
-95.3364
11
201.798
21
-95.3262
0
LINE
8
BLACK
6
CONTINUOUS
10
201.798
20
-95.3262
11
201.794
21
-95.3136
0
LINE
8
BLACK
6
CONTINUOUS
10
201.794
20
-95.3136
11
201.787
21
-95.3021
0
LINE
8
BLACK
6
CONTINUOUS
10
201.787
20
-95.3021
11
201.785
21
-95.289
0
LINE
8
BLACK
6
CONTINUOUS
10
201.785
20
-95.289
11
201.78
21
-95.2764
0
LINE
8
BLACK
6
CONTINUOUS
10
201.78
20
-95.2764
11
201.78
21
-95.2631
0
LINE
8
BLACK
6
CONTINUOUS
10
201.78
20
-95.2631
11
201.78
21
-95.2631
0
LINE
8
BLACK
6
CONTINUOUS
10
201.78
20
-95.2631
11
201.78
21
-79.9969
0
LINE
8
BLACK
6
CONTINUOUS
10
201.78
20
-79.9969
11
201.78
21
-79.9836
0
LINE
8
BLACK
6
CONTINUOUS
10
201.78
20
-79.9836
11
201.785
21
-79.971
0
LINE
8
BLACK
6
CONTINUOUS
10
201.785
20
-79.971
11
201.787
21
-79.9579
0
LINE
8
BLACK
6
CONTINUOUS
10
201.787
20
-79.9579
11
201.794
21
-79.9464
0
LINE
8
BLACK
6
CONTINUOUS
10
201.794
20
-79.9464
11
201.798
21
-79.9338
0
LINE
8
BLACK
6
CONTINUOUS
10
201.798
20
-79.9338
11
201.807
21
-79.9236
0
LINE
8
BLACK
6
CONTINUOUS
10
201.807
20
-79.9236
11
201.813
21
-79.9121
0
LINE
8
BLACK
6
CONTINUOUS
10
201.813
20
-79.9121
11
201.824
21
-79.9035
0
LINE
8
BLACK
6
CONTINUOUS
10
201.824
20
-79.9035
11
201.832
21
-79.8933
0
LINE
8
BLACK
6
CONTINUOUS
10
201.832
20
-79.8933
11
201.844
21
-79.8867
0
LINE
8
BLACK
6
CONTINUOUS
10
201.844
20
-79.8867
11
201.854
21
-79.8781
0
LINE
8
BLACK
6
CONTINUOUS
10
201.854
20
-79.8781
11
201.866
21
-79.8735
0
LINE
8
BLACK
6
CONTINUOUS
10
201.866
20
-79.8735
11
201.878
21
-79.8669
0
LINE
8
BLACK
6
CONTINUOUS
10
201.878
20
-79.8669
11
201.891
21
-79.8646
0
LINE
8
BLACK
6
CONTINUOUS
10
201.891
20
-79.8646
11
201.904
21
-79.86
0
LINE
8
BLACK
6
CONTINUOUS
10
201.904
20
-79.86
11
201.917
21
-79.86
0
LINE
8
BLACK
6
CONTINUOUS
10
201.917
20
-79.86
11
201.917
21
-79.86
0
LINE
8
BLACK
6
CONTINUOUS
10
201.917
20
-79.86
11
217.183
21
-79.86
0
LINE
8
BLACK
6
CONTINUOUS
10
217.183
20
-79.86
11
217.183
21
-79.86
0
LINE
8
BLACK
6
CONTINUOUS
10
202.08
20
-80.16
11
202.08
21
-95.1
0
LINE
8
BLACK
6
CONTINUOUS
10
202.08
20
-95.1
11
217.02
21
-95.1
0
LINE
8
BLACK
6
CONTINUOUS
10
217.02
20
-95.1
11
217.02
21
-80.16
0
LINE
8
BLACK
6
CONTINUOUS
10
217.02
20
-80.16
11
202.08
21
-80.16
0
LINE
8
BLACK
6
CONTINUOUS
10
198.133
20
-79.86
11
198.146
21
-79.86
0
LINE
8
BLACK
6
CONTINUOUS
10
198.146
20
-79.86
11
198.159
21
-79.8646
0
LINE
8
BLACK
6
CONTINUOUS
10
198.159
20
-79.8646
11
198.172
21
-79.8669
0
LINE
8
BLACK
6
CONTINUOUS
10
198.172
20
-79.8669
11
198.184
21
-79.8735
0
LINE
8
BLACK
6
CONTINUOUS
10
198.184
20
-79.8735
11
198.196
21
-79.8781
0
LINE
8
BLACK
6
CONTINUOUS
10
198.196
20
-79.8781
11
198.206
21
-79.8867
0
LINE
8
BLACK
6
CONTINUOUS
10
198.206
20
-79.8867
11
198.218
21
-79.8933
0
LINE
8
BLACK
6
CONTINUOUS
10
198.218
20
-79.8933
11
198.226
21
-79.9035
0
LINE
8
BLACK
6
CONTINUOUS
10
198.226
20
-79.9035
11
198.237
21
-79.9121
0
LINE
8
BLACK
6
CONTINUOUS
10
198.237
20
-79.9121
11
198.243
21
-79.9236
0
LINE
8
BLACK
6
CONTINUOUS
10
198.243
20
-79.9236
11
198.252
21
-79.9338
0
LINE
8
BLACK
6
CONTINUOUS
10
198.252
20
-79.9338
11
198.256
21
-79.9464
0
LINE
8
BLACK
6
CONTINUOUS
10
198.256
20
-79.9464
11
198.263
21
-79.9579
0
LINE
8
BLACK
6
CONTINUOUS
10
198.263
20
-79.9579
11
198.265
21
-79.971
0
LINE
8
BLACK
6
CONTINUOUS
10
198.265
20
-79.971
11
198.27
21
-79.9836
0
LINE
8
BLACK
6
CONTINUOUS
10
198.27
20
-79.9836
11
198.27
21
-79.9969
0
LINE
8
BLACK
6
CONTINUOUS
10
198.27
20
-79.9969
11
198.27
21
-79.9969
0
LINE
8
BLACK
6
CONTINUOUS
10
198.27
20
-79.9969
11
198.27
21
-95.2631
0
LINE
8
BLACK
6
CONTINUOUS
10
198.27
20
-95.2631
11
198.27
21
-95.2631
0
LINE
8
BLACK
6
CONTINUOUS
10
198.27
20
-95.2631
11
198.27
21
-95.2764
0
LINE
8
BLACK
6
CONTINUOUS
10
198.27
20
-95.2764
11
198.265
21
-95.289
0
LINE
8
BLACK
6
CONTINUOUS
10
198.265
20
-95.289
11
198.263
21
-95.3021
0
LINE
8
BLACK
6
CONTINUOUS
10
198.263
20
-95.3021
11
198.256
21
-95.3136
0
LINE
8
BLACK
6
CONTINUOUS
10
198.256
20
-95.3136
11
198.252
21
-95.3262
0
LINE
8
BLACK
6
CONTINUOUS
10
198.252
20
-95.3262
11
198.243
21
-95.3364
0
LINE
8
BLACK
6
CONTINUOUS
10
198.243
20
-95.3364
11
198.237
21
-95.3479
0
LINE
8
BLACK
6
CONTINUOUS
10
198.237
20
-95.3479
11
198.226
21
-95.3565
0
LINE
8
BLACK
6
CONTINUOUS
10
198.226
20
-95.3565
11
198.218
21
-95.3667
0
LINE
8
BLACK
6
CONTINUOUS
10
198.218
20
-95.3667
11
198.206
21
-95.3733
0
LINE
8
BLACK
6
CONTINUOUS
10
198.206
20
-95.3733
11
198.196
21
-95.3819
0
LINE
8
BLACK
6
CONTINUOUS
10
198.196
20
-95.3819
11
198.184
21
-95.3865
0
LINE
8
BLACK
6
CONTINUOUS
10
198.184
20
-95.3865
11
198.172
21
-95.3931
0
LINE
8
BLACK
6
CONTINUOUS
10
198.172
20
-95.3931
11
198.159
21
-95.3954
0
LINE
8
BLACK
6
CONTINUOUS
10
198.159
20
-95.3954
11
198.146
21
-95.4
0
LINE
8
BLACK
6
CONTINUOUS
10
198.146
20
-95.4
11
198.133
21
-95.4
0
LINE
8
BLACK
6
CONTINUOUS
10
198.133
20
-95.4
11
198.133
21
-95.4
0
LINE
8
BLACK
6
CONTINUOUS
10
198.133
20
-95.4
11
182.867
21
-95.4
0
LINE
8
BLACK
6
CONTINUOUS
10
182.867
20
-95.4
11
182.867
21
-95.4
0
LINE
8
BLACK
6
CONTINUOUS
10
182.867
20
-95.4
11
182.854
21
-95.4
0
LINE
8
BLACK
6
CONTINUOUS
10
182.854
20
-95.4
11
182.841
21
-95.3954
0
LINE
8
BLACK
6
CONTINUOUS
10
182.841
20
-95.3954
11
182.828
21
-95.3931
0
LINE
8
BLACK
6
CONTINUOUS
10
182.828
20
-95.3931
11
182.816
21
-95.3865
0
LINE
8
BLACK
6
CONTINUOUS
10
182.816
20
-95.3865
11
182.804
21
-95.3819
0
LINE
8
BLACK
6
CONTINUOUS
10
182.804
20
-95.3819
11
182.794
21
-95.3733
0
LINE
8
BLACK
6
CONTINUOUS
10
182.794
20
-95.3733
11
182.782
21
-95.3667
0
LINE
8
BLACK
6
CONTINUOUS
10
182.782
20
-95.3667
11
182.774
21
-95.3565
0
LINE
8
BLACK
6
CONTINUOUS
10
182.774
20
-95.3565
11
182.763
21
-95.3479
0
LINE
8
BLACK
6
CONTINUOUS
10
182.763
20
-95.3479
11
182.757
21
-95.3364
0
LINE
8
BLACK
6
CONTINUOUS
10
182.757
20
-95.3364
11
182.748
21
-95.3262
0
LINE
8
BLACK
6
CONTINUOUS
10
182.748
20
-95.3262
11
182.744
21
-95.3136
0
LINE
8
BLACK
6
CONTINUOUS
10
182.744
20
-95.3136
11
182.737
21
-95.3021
0
LINE
8
BLACK
6
CONTINUOUS
10
182.737
20
-95.3021
11
182.735
21
-95.289
0
LINE
8
BLACK
6
CONTINUOUS
10
182.735
20
-95.289
11
182.73
21
-95.2764
0
LINE
8
BLACK
6
CONTINUOUS
10
182.73
20
-95.2764
11
182.73
21
-95.2631
0
LINE
8
BLACK
6
CONTINUOUS
10
182.73
20
-95.2631
11
182.73
21
-95.2631
0
LINE
8
BLACK
6
CONTINUOUS
10
182.73
20
-95.2631
11
182.73
21
-79.9969
0
LINE
8
BLACK
6
CONTINUOUS
10
182.73
20
-79.9969
11
182.73
21
-79.9836
0
LINE
8
BLACK
6
CONTINUOUS
10
182.73
20
-79.9836
11
182.735
21
-79.971
0
LINE
8
BLACK
6
CONTINUOUS
10
182.735
20
-79.971
11
182.737
21
-79.9579
0
LINE
8
BLACK
6
CONTINUOUS
10
182.737
20
-79.9579
11
182.744
21
-79.9464
0
LINE
8
BLACK
6
CONTINUOUS
10
182.744
20
-79.9464
11
182.748
21
-79.9338
0
LINE
8
BLACK
6
CONTINUOUS
10
182.748
20
-79.9338
11
182.757
21
-79.9236
0
LINE
8
BLACK
6
CONTINUOUS
10
182.757
20
-79.9236
11
182.763
21
-79.9121
0
LINE
8
BLACK
6
CONTINUOUS
10
182.763
20
-79.9121
11
182.774
21
-79.9035
0
LINE
8
BLACK
6
CONTINUOUS
10
182.774
20
-79.9035
11
182.782
21
-79.8933
0
LINE
8
BLACK
6
CONTINUOUS
10
182.782
20
-79.8933
11
182.794
21
-79.8867
0
LINE
8
BLACK
6
CONTINUOUS
10
182.794
20
-79.8867
11
182.804
21
-79.8781
0
LINE
8
BLACK
6
CONTINUOUS
10
182.804
20
-79.8781
11
182.816
21
-79.8735
0
LINE
8
BLACK
6
CONTINUOUS
10
182.816
20
-79.8735
11
182.828
21
-79.8669
0
LINE
8
BLACK
6
CONTINUOUS
10
182.828
20
-79.8669
11
182.841
21
-79.8646
0
LINE
8
BLACK
6
CONTINUOUS
10
182.841
20
-79.8646
11
182.854
21
-79.86
0
LINE
8
BLACK
6
CONTINUOUS
10
182.854
20
-79.86
11
182.867
21
-79.86
0
LINE
8
BLACK
6
CONTINUOUS
10
182.867
20
-79.86
11
182.867
21
-79.86
0
LINE
8
BLACK
6
CONTINUOUS
10
182.867
20
-79.86
11
198.133
21
-79.86
0
LINE
8
BLACK
6
CONTINUOUS
10
198.133
20
-79.86
11
198.133
21
-79.86
0
LINE
8
BLACK
6
CONTINUOUS
10
183.03
20
-80.16
11
183.03
21
-95.1
0
LINE
8
BLACK
6
CONTINUOUS
10
183.03
20
-95.1
11
197.97
21
-95.1
0
LINE
8
BLACK
6
CONTINUOUS
10
197.97
20
-95.1
11
197.97
21
-80.16
0
LINE
8
BLACK
6
CONTINUOUS
10
197.97
20
-80.16
11
183.03
21
-80.16
0
LINE
8
BLACK
6
CONTINUOUS
10
121.933
20
-68.43
11
121.946
21
-68.43
0
LINE
8
BLACK
6
CONTINUOUS
10
121.946
20
-68.43
11
121.959
21
-68.4346
0
LINE
8
BLACK
6
CONTINUOUS
10
121.959
20
-68.4346
11
121.972
21
-68.4369
0
LINE
8
BLACK
6
CONTINUOUS
10
121.972
20
-68.4369
11
121.984
21
-68.4435
0
LINE
8
BLACK
6
CONTINUOUS
10
121.984
20
-68.4435
11
121.996
21
-68.4481
0
LINE
8
BLACK
6
CONTINUOUS
10
121.996
20
-68.4481
11
122.006
21
-68.4567
0
LINE
8
BLACK
6
CONTINUOUS
10
122.006
20
-68.4567
11
122.018
21
-68.4633
0
LINE
8
BLACK
6
CONTINUOUS
10
122.018
20
-68.4633
11
122.026
21
-68.4735
0
LINE
8
BLACK
6
CONTINUOUS
10
122.026
20
-68.4735
11
122.037
21
-68.4821
0
LINE
8
BLACK
6
CONTINUOUS
10
122.037
20
-68.4821
11
122.043
21
-68.4936
0
LINE
8
BLACK
6
CONTINUOUS
10
122.043
20
-68.4936
11
122.052
21
-68.5038
0
LINE
8
BLACK
6
CONTINUOUS
10
122.052
20
-68.5038
11
122.056
21
-68.5164
0
LINE
8
BLACK
6
CONTINUOUS
10
122.056
20
-68.5164
11
122.063
21
-68.5279
0
LINE
8
BLACK
6
CONTINUOUS
10
122.063
20
-68.5279
11
122.065
21
-68.541
0
LINE
8
BLACK
6
CONTINUOUS
10
122.065
20
-68.541
11
122.07
21
-68.5536
0
LINE
8
BLACK
6
CONTINUOUS
10
122.07
20
-68.5536
11
122.07
21
-68.5669
0
LINE
8
BLACK
6
CONTINUOUS
10
122.07
20
-68.5669
11
122.07
21
-68.5669
0
LINE
8
BLACK
6
CONTINUOUS
10
122.07
20
-68.5669
11
122.07
21
-83.8331
0
LINE
8
BLACK
6
CONTINUOUS
10
122.07
20
-83.8331
11
122.07
21
-83.8331
0
LINE
8
BLACK
6
CONTINUOUS
10
122.07
20
-83.8331
11
122.07
21
-83.8464
0
LINE
8
BLACK
6
CONTINUOUS
10
122.07
20
-83.8464
11
122.065
21
-83.859
0
LINE
8
BLACK
6
CONTINUOUS
10
122.065
20
-83.859
11
122.063
21
-83.8721
0
LINE
8
BLACK
6
CONTINUOUS
10
122.063
20
-83.8721
11
122.056
21
-83.8836
0
LINE
8
BLACK
6
CONTINUOUS
10
122.056
20
-83.8836
11
122.052
21
-83.8962
0
LINE
8
BLACK
6
CONTINUOUS
10
122.052
20
-83.8962
11
122.043
21
-83.9064
0
LINE
8
BLACK
6
CONTINUOUS
10
122.043
20
-83.9064
11
122.037
21
-83.9179
0
LINE
8
BLACK
6
CONTINUOUS
10
122.037
20
-83.9179
11
122.026
21
-83.9265
0
LINE
8
BLACK
6
CONTINUOUS
10
122.026
20
-83.9265
11
122.018
21
-83.9367
0
LINE
8
BLACK
6
CONTINUOUS
10
122.018
20
-83.9367
11
122.006
21
-83.9433
0
LINE
8
BLACK
6
CONTINUOUS
10
122.006
20
-83.9433
11
121.996
21
-83.9519
0
LINE
8
BLACK
6
CONTINUOUS
10
121.996
20
-83.9519
11
121.984
21
-83.9565
0
LINE
8
BLACK
6
CONTINUOUS
10
121.984
20
-83.9565
11
121.972
21
-83.9631
0
LINE
8
BLACK
6
CONTINUOUS
10
121.972
20
-83.9631
11
121.959
21
-83.9654
0
LINE
8
BLACK
6
CONTINUOUS
10
121.959
20
-83.9654
11
121.946
21
-83.97
0
LINE
8
BLACK
6
CONTINUOUS
10
121.946
20
-83.97
11
121.933
21
-83.97
0
LINE
8
BLACK
6
CONTINUOUS
10
121.933
20
-83.97
11
121.933
21
-83.97
0
LINE
8
BLACK
6
CONTINUOUS
10
121.933
20
-83.97
11
106.667
21
-83.97
0
LINE
8
BLACK
6
CONTINUOUS
10
106.667
20
-83.97
11
106.667
21
-83.97
0
LINE
8
BLACK
6
CONTINUOUS
10
106.667
20
-83.97
11
106.654
21
-83.97
0
LINE
8
BLACK
6
CONTINUOUS
10
106.654
20
-83.97
11
106.641
21
-83.9654
0
LINE
8
BLACK
6
CONTINUOUS
10
106.641
20
-83.9654
11
106.628
21
-83.9631
0
LINE
8
BLACK
6
CONTINUOUS
10
106.628
20
-83.9631
11
106.616
21
-83.9565
0
LINE
8
BLACK
6
CONTINUOUS
10
106.616
20
-83.9565
11
106.604
21
-83.9519
0
LINE
8
BLACK
6
CONTINUOUS
10
106.604
20
-83.9519
11
106.594
21
-83.9433
0
LINE
8
BLACK
6
CONTINUOUS
10
106.594
20
-83.9433
11
106.582
21
-83.9367
0
LINE
8
BLACK
6
CONTINUOUS
10
106.582
20
-83.9367
11
106.574
21
-83.9265
0
LINE
8
BLACK
6
CONTINUOUS
10
106.574
20
-83.9265
11
106.563
21
-83.9179
0
LINE
8
BLACK
6
CONTINUOUS
10
106.563
20
-83.9179
11
106.557
21
-83.9064
0
LINE
8
BLACK
6
CONTINUOUS
10
106.557
20
-83.9064
11
106.548
21
-83.8962
0
LINE
8
BLACK
6
CONTINUOUS
10
106.548
20
-83.8962
11
106.544
21
-83.8836
0
LINE
8
BLACK
6
CONTINUOUS
10
106.544
20
-83.8836
11
106.537
21
-83.8721
0
LINE
8
BLACK
6
CONTINUOUS
10
106.537
20
-83.8721
11
106.535
21
-83.859
0
LINE
8
BLACK
6
CONTINUOUS
10
106.535
20
-83.859
11
106.53
21
-83.8464
0
LINE
8
BLACK
6
CONTINUOUS
10
106.53
20
-83.8464
11
106.53
21
-83.8331
0
LINE
8
BLACK
6
CONTINUOUS
10
106.53
20
-83.8331
11
106.53
21
-83.8331
0
LINE
8
BLACK
6
CONTINUOUS
10
106.53
20
-83.8331
11
106.53
21
-68.5669
0
LINE
8
BLACK
6
CONTINUOUS
10
106.53
20
-68.5669
11
106.53
21
-68.5536
0
LINE
8
BLACK
6
CONTINUOUS
10
106.53
20
-68.5536
11
106.535
21
-68.541
0
LINE
8
BLACK
6
CONTINUOUS
10
106.535
20
-68.541
11
106.537
21
-68.5279
0
LINE
8
BLACK
6
CONTINUOUS
10
106.537
20
-68.5279
11
106.544
21
-68.5164
0
LINE
8
BLACK
6
CONTINUOUS
10
106.544
20
-68.5164
11
106.548
21
-68.5038
0
LINE
8
BLACK
6
CONTINUOUS
10
106.548
20
-68.5038
11
106.557
21
-68.4936
0
LINE
8
BLACK
6
CONTINUOUS
10
106.557
20
-68.4936
11
106.563
21
-68.4821
0
LINE
8
BLACK
6
CONTINUOUS
10
106.563
20
-68.4821
11
106.574
21
-68.4735
0
LINE
8
BLACK
6
CONTINUOUS
10
106.574
20
-68.4735
11
106.582
21
-68.4633
0
LINE
8
BLACK
6
CONTINUOUS
10
106.582
20
-68.4633
11
106.594
21
-68.4567
0
LINE
8
BLACK
6
CONTINUOUS
10
106.594
20
-68.4567
11
106.604
21
-68.4481
0
LINE
8
BLACK
6
CONTINUOUS
10
106.604
20
-68.4481
11
106.616
21
-68.4435
0
LINE
8
BLACK
6
CONTINUOUS
10
106.616
20
-68.4435
11
106.628
21
-68.4369
0
LINE
8
BLACK
6
CONTINUOUS
10
106.628
20
-68.4369
11
106.641
21
-68.4346
0
LINE
8
BLACK
6
CONTINUOUS
10
106.641
20
-68.4346
11
106.654
21
-68.43
0
LINE
8
BLACK
6
CONTINUOUS
10
106.654
20
-68.43
11
106.667
21
-68.43
0
LINE
8
BLACK
6
CONTINUOUS
10
106.667
20
-68.43
11
106.667
21
-68.43
0
LINE
8
BLACK
6
CONTINUOUS
10
106.667
20
-68.43
11
121.933
21
-68.43
0
LINE
8
BLACK
6
CONTINUOUS
10
121.933
20
-68.43
11
121.933
21
-68.43
0
LINE
8
BLACK
6
CONTINUOUS
10
106.83
20
-68.73
11
106.83
21
-83.67
0
LINE
8
BLACK
6
CONTINUOUS
10
106.83
20
-83.67
11
121.77
21
-83.67
0
LINE
8
BLACK
6
CONTINUOUS
10
121.77
20
-83.67
11
121.77
21
-68.73
0
LINE
8
BLACK
6
CONTINUOUS
10
121.77
20
-68.73
11
106.83
21
-68.73
0
LINE
8
BLACK
6
CONTINUOUS
10
140.983
20
-68.43
11
140.996
21
-68.43
0
LINE
8
BLACK
6
CONTINUOUS
10
140.996
20
-68.43
11
141.009
21
-68.4346
0
LINE
8
BLACK
6
CONTINUOUS
10
141.009
20
-68.4346
11
141.022
21
-68.4369
0
LINE
8
BLACK
6
CONTINUOUS
10
141.022
20
-68.4369
11
141.034
21
-68.4435
0
LINE
8
BLACK
6
CONTINUOUS
10
141.034
20
-68.4435
11
141.046
21
-68.4481
0
LINE
8
BLACK
6
CONTINUOUS
10
141.046
20
-68.4481
11
141.056
21
-68.4567
0
LINE
8
BLACK
6
CONTINUOUS
10
141.056
20
-68.4567
11
141.068
21
-68.4633
0
LINE
8
BLACK
6
CONTINUOUS
10
141.068
20
-68.4633
11
141.076
21
-68.4735
0
LINE
8
BLACK
6
CONTINUOUS
10
141.076
20
-68.4735
11
141.087
21
-68.4821
0
LINE
8
BLACK
6
CONTINUOUS
10
141.087
20
-68.4821
11
141.093
21
-68.4936
0
LINE
8
BLACK
6
CONTINUOUS
10
141.093
20
-68.4936
11
141.102
21
-68.5038
0
LINE
8
BLACK
6
CONTINUOUS
10
141.102
20
-68.5038
11
141.106
21
-68.5164
0
LINE
8
BLACK
6
CONTINUOUS
10
141.106
20
-68.5164
11
141.113
21
-68.5279
0
LINE
8
BLACK
6
CONTINUOUS
10
141.113
20
-68.5279
11
141.115
21
-68.541
0
LINE
8
BLACK
6
CONTINUOUS
10
141.115
20
-68.541
11
141.12
21
-68.5536
0
LINE
8
BLACK
6
CONTINUOUS
10
141.12
20
-68.5536
11
141.12
21
-68.5669
0
LINE
8
BLACK
6
CONTINUOUS
10
141.12
20
-68.5669
11
141.12
21
-68.5669
0
LINE
8
BLACK
6
CONTINUOUS
10
141.12
20
-68.5669
11
141.12
21
-83.8331
0
LINE
8
BLACK
6
CONTINUOUS
10
141.12
20
-83.8331
11
141.12
21
-83.8331
0
LINE
8
BLACK
6
CONTINUOUS
10
141.12
20
-83.8331
11
141.12
21
-83.8464
0
LINE
8
BLACK
6
CONTINUOUS
10
141.12
20
-83.8464
11
141.115
21
-83.859
0
LINE
8
BLACK
6
CONTINUOUS
10
141.115
20
-83.859
11
141.113
21
-83.8721
0
LINE
8
BLACK
6
CONTINUOUS
10
141.113
20
-83.8721
11
141.106
21
-83.8836
0
LINE
8
BLACK
6
CONTINUOUS
10
141.106
20
-83.8836
11
141.102
21
-83.8962
0
LINE
8
BLACK
6
CONTINUOUS
10
141.102
20
-83.8962
11
141.093
21
-83.9064
0
LINE
8
BLACK
6
CONTINUOUS
10
141.093
20
-83.9064
11
141.087
21
-83.9179
0
LINE
8
BLACK
6
CONTINUOUS
10
141.087
20
-83.9179
11
141.076
21
-83.9265
0
LINE
8
BLACK
6
CONTINUOUS
10
141.076
20
-83.9265
11
141.068
21
-83.9367
0
LINE
8
BLACK
6
CONTINUOUS
10
141.068
20
-83.9367
11
141.056
21
-83.9433
0
LINE
8
BLACK
6
CONTINUOUS
10
141.056
20
-83.9433
11
141.046
21
-83.9519
0
LINE
8
BLACK
6
CONTINUOUS
10
141.046
20
-83.9519
11
141.034
21
-83.9565
0
LINE
8
BLACK
6
CONTINUOUS
10
141.034
20
-83.9565
11
141.022
21
-83.9631
0
LINE
8
BLACK
6
CONTINUOUS
10
141.022
20
-83.9631
11
141.009
21
-83.9654
0
LINE
8
BLACK
6
CONTINUOUS
10
141.009
20
-83.9654
11
140.996
21
-83.97
0
LINE
8
BLACK
6
CONTINUOUS
10
140.996
20
-83.97
11
140.983
21
-83.97
0
LINE
8
BLACK
6
CONTINUOUS
10
140.983
20
-83.97
11
140.983
21
-83.97
0
LINE
8
BLACK
6
CONTINUOUS
10
140.983
20
-83.97
11
125.717
21
-83.97
0
LINE
8
BLACK
6
CONTINUOUS
10
125.717
20
-83.97
11
125.717
21
-83.97
0
LINE
8
BLACK
6
CONTINUOUS
10
125.717
20
-83.97
11
125.704
21
-83.97
0
LINE
8
BLACK
6
CONTINUOUS
10
125.704
20
-83.97
11
125.691
21
-83.9654
0
LINE
8
BLACK
6
CONTINUOUS
10
125.691
20
-83.9654
11
125.678
21
-83.9631
0
LINE
8
BLACK
6
CONTINUOUS
10
125.678
20
-83.9631
11
125.666
21
-83.9565
0
LINE
8
BLACK
6
CONTINUOUS
10
125.666
20
-83.9565
11
125.654
21
-83.9519
0
LINE
8
BLACK
6
CONTINUOUS
10
125.654
20
-83.9519
11
125.644
21
-83.9433
0
LINE
8
BLACK
6
CONTINUOUS
10
125.644
20
-83.9433
11
125.632
21
-83.9367
0
LINE
8
BLACK
6
CONTINUOUS
10
125.632
20
-83.9367
11
125.624
21
-83.9265
0
LINE
8
BLACK
6
CONTINUOUS
10
125.624
20
-83.9265
11
125.613
21
-83.9179
0
LINE
8
BLACK
6
CONTINUOUS
10
125.613
20
-83.9179
11
125.607
21
-83.9064
0
LINE
8
BLACK
6
CONTINUOUS
10
125.607
20
-83.9064
11
125.598
21
-83.8962
0
LINE
8
BLACK
6
CONTINUOUS
10
125.598
20
-83.8962
11
125.594
21
-83.8836
0
LINE
8
BLACK
6
CONTINUOUS
10
125.594
20
-83.8836
11
125.587
21
-83.8721
0
LINE
8
BLACK
6
CONTINUOUS
10
125.587
20
-83.8721
11
125.585
21
-83.859
0
LINE
8
BLACK
6
CONTINUOUS
10
125.585
20
-83.859
11
125.58
21
-83.8464
0
LINE
8
BLACK
6
CONTINUOUS
10
125.58
20
-83.8464
11
125.58
21
-83.8331
0
LINE
8
BLACK
6
CONTINUOUS
10
125.58
20
-83.8331
11
125.58
21
-83.8331
0
LINE
8
BLACK
6
CONTINUOUS
10
125.58
20
-83.8331
11
125.58
21
-68.5669
0
LINE
8
BLACK
6
CONTINUOUS
10
125.58
20
-68.5669
11
125.58
21
-68.5536
0
LINE
8
BLACK
6
CONTINUOUS
10
125.58
20
-68.5536
11
125.585
21
-68.541
0
LINE
8
BLACK
6
CONTINUOUS
10
125.585
20
-68.541
11
125.587
21
-68.5279
0
LINE
8
BLACK
6
CONTINUOUS
10
125.587
20
-68.5279
11
125.594
21
-68.5164
0
LINE
8
BLACK
6
CONTINUOUS
10
125.594
20
-68.5164
11
125.598
21
-68.5038
0
LINE
8
BLACK
6
CONTINUOUS
10
125.598
20
-68.5038
11
125.607
21
-68.4936
0
LINE
8
BLACK
6
CONTINUOUS
10
125.607
20
-68.4936
11
125.613
21
-68.4821
0
LINE
8
BLACK
6
CONTINUOUS
10
125.613
20
-68.4821
11
125.624
21
-68.4735
0
LINE
8
BLACK
6
CONTINUOUS
10
125.624
20
-68.4735
11
125.632
21
-68.4633
0
LINE
8
BLACK
6
CONTINUOUS
10
125.632
20
-68.4633
11
125.644
21
-68.4567
0
LINE
8
BLACK
6
CONTINUOUS
10
125.644
20
-68.4567
11
125.654
21
-68.4481
0
LINE
8
BLACK
6
CONTINUOUS
10
125.654
20
-68.4481
11
125.666
21
-68.4435
0
LINE
8
BLACK
6
CONTINUOUS
10
125.666
20
-68.4435
11
125.678
21
-68.4369
0
LINE
8
BLACK
6
CONTINUOUS
10
125.678
20
-68.4369
11
125.691
21
-68.4346
0
LINE
8
BLACK
6
CONTINUOUS
10
125.691
20
-68.4346
11
125.704
21
-68.43
0
LINE
8
BLACK
6
CONTINUOUS
10
125.704
20
-68.43
11
125.717
21
-68.43
0
LINE
8
BLACK
6
CONTINUOUS
10
125.717
20
-68.43
11
125.717
21
-68.43
0
LINE
8
BLACK
6
CONTINUOUS
10
125.717
20
-68.43
11
140.983
21
-68.43
0
LINE
8
BLACK
6
CONTINUOUS
10
140.983
20
-68.43
11
140.983
21
-68.43
0
LINE
8
BLACK
6
CONTINUOUS
10
125.88
20
-68.73
11
125.88
21
-83.67
0
LINE
8
BLACK
6
CONTINUOUS
10
125.88
20
-83.67
11
140.82
21
-83.67
0
LINE
8
BLACK
6
CONTINUOUS
10
140.82
20
-83.67
11
140.82
21
-68.73
0
LINE
8
BLACK
6
CONTINUOUS
10
140.82
20
-68.73
11
125.88
21
-68.73
0
LINE
8
BLACK
6
CONTINUOUS
10
179.083
20
-68.43
11
179.096
21
-68.43
0
LINE
8
BLACK
6
CONTINUOUS
10
179.096
20
-68.43
11
179.109
21
-68.4346
0
LINE
8
BLACK
6
CONTINUOUS
10
179.109
20
-68.4346
11
179.122
21
-68.4369
0
LINE
8
BLACK
6
CONTINUOUS
10
179.122
20
-68.4369
11
179.134
21
-68.4435
0
LINE
8
BLACK
6
CONTINUOUS
10
179.134
20
-68.4435
11
179.146
21
-68.4481
0
LINE
8
BLACK
6
CONTINUOUS
10
179.146
20
-68.4481
11
179.156
21
-68.4567
0
LINE
8
BLACK
6
CONTINUOUS
10
179.156
20
-68.4567
11
179.168
21
-68.4633
0
LINE
8
BLACK
6
CONTINUOUS
10
179.168
20
-68.4633
11
179.176
21
-68.4735
0
LINE
8
BLACK
6
CONTINUOUS
10
179.176
20
-68.4735
11
179.187
21
-68.4821
0
LINE
8
BLACK
6
CONTINUOUS
10
179.187
20
-68.4821
11
179.193
21
-68.4936
0
LINE
8
BLACK
6
CONTINUOUS
10
179.193
20
-68.4936
11
179.202
21
-68.5038
0
LINE
8
BLACK
6
CONTINUOUS
10
179.202
20
-68.5038
11
179.206
21
-68.5164
0
LINE
8
BLACK
6
CONTINUOUS
10
179.206
20
-68.5164
11
179.213
21
-68.5279
0
LINE
8
BLACK
6
CONTINUOUS
10
179.213
20
-68.5279
11
179.215
21
-68.541
0
LINE
8
BLACK
6
CONTINUOUS
10
179.215
20
-68.541
11
179.22
21
-68.5536
0
LINE
8
BLACK
6
CONTINUOUS
10
179.22
20
-68.5536
11
179.22
21
-68.5669
0
LINE
8
BLACK
6
CONTINUOUS
10
179.22
20
-68.5669
11
179.22
21
-68.5669
0
LINE
8
BLACK
6
CONTINUOUS
10
179.22
20
-68.5669
11
179.22
21
-83.8331
0
LINE
8
BLACK
6
CONTINUOUS
10
179.22
20
-83.8331
11
179.22
21
-83.8331
0
LINE
8
BLACK
6
CONTINUOUS
10
179.22
20
-83.8331
11
179.22
21
-83.8464
0
LINE
8
BLACK
6
CONTINUOUS
10
179.22
20
-83.8464
11
179.215
21
-83.859
0
LINE
8
BLACK
6
CONTINUOUS
10
179.215
20
-83.859
11
179.213
21
-83.8721
0
LINE
8
BLACK
6
CONTINUOUS
10
179.213
20
-83.8721
11
179.206
21
-83.8836
0
LINE
8
BLACK
6
CONTINUOUS
10
179.206
20
-83.8836
11
179.202
21
-83.8962
0
LINE
8
BLACK
6
CONTINUOUS
10
179.202
20
-83.8962
11
179.193
21
-83.9064
0
LINE
8
BLACK
6
CONTINUOUS
10
179.193
20
-83.9064
11
179.187
21
-83.9179
0
LINE
8
BLACK
6
CONTINUOUS
10
179.187
20
-83.9179
11
179.176
21
-83.9265
0
LINE
8
BLACK
6
CONTINUOUS
10
179.176
20
-83.9265
11
179.168
21
-83.9367
0
LINE
8
BLACK
6
CONTINUOUS
10
179.168
20
-83.9367
11
179.156
21
-83.9433
0
LINE
8
BLACK
6
CONTINUOUS
10
179.156
20
-83.9433
11
179.146
21
-83.9519
0
LINE
8
BLACK
6
CONTINUOUS
10
179.146
20
-83.9519
11
179.134
21
-83.9565
0
LINE
8
BLACK
6
CONTINUOUS
10
179.134
20
-83.9565
11
179.122
21
-83.9631
0
LINE
8
BLACK
6
CONTINUOUS
10
179.122
20
-83.9631
11
179.109
21
-83.9654
0
LINE
8
BLACK
6
CONTINUOUS
10
179.109
20
-83.9654
11
179.096
21
-83.97
0
LINE
8
BLACK
6
CONTINUOUS
10
179.096
20
-83.97
11
179.083
21
-83.97
0
LINE
8
BLACK
6
CONTINUOUS
10
179.083
20
-83.97
11
179.083
21
-83.97
0
LINE
8
BLACK
6
CONTINUOUS
10
179.083
20
-83.97
11
163.817
21
-83.97
0
LINE
8
BLACK
6
CONTINUOUS
10
163.817
20
-83.97
11
163.817
21
-83.97
0
LINE
8
BLACK
6
CONTINUOUS
10
163.817
20
-83.97
11
163.804
21
-83.97
0
LINE
8
BLACK
6
CONTINUOUS
10
163.804
20
-83.97
11
163.791
21
-83.9654
0
LINE
8
BLACK
6
CONTINUOUS
10
163.791
20
-83.9654
11
163.778
21
-83.9631
0
LINE
8
BLACK
6
CONTINUOUS
10
163.778
20
-83.9631
11
163.766
21
-83.9565
0
LINE
8
BLACK
6
CONTINUOUS
10
163.766
20
-83.9565
11
163.754
21
-83.9519
0
LINE
8
BLACK
6
CONTINUOUS
10
163.754
20
-83.9519
11
163.744
21
-83.9433
0
LINE
8
BLACK
6
CONTINUOUS
10
163.744
20
-83.9433
11
163.732
21
-83.9367
0
LINE
8
BLACK
6
CONTINUOUS
10
163.732
20
-83.9367
11
163.724
21
-83.9265
0
LINE
8
BLACK
6
CONTINUOUS
10
163.724
20
-83.9265
11
163.713
21
-83.9179
0
LINE
8
BLACK
6
CONTINUOUS
10
163.713
20
-83.9179
11
163.707
21
-83.9064
0
LINE
8
BLACK
6
CONTINUOUS
10
163.707
20
-83.9064
11
163.698
21
-83.8962
0
LINE
8
BLACK
6
CONTINUOUS
10
163.698
20
-83.8962
11
163.694
21
-83.8836
0
LINE
8
BLACK
6
CONTINUOUS
10
163.694
20
-83.8836
11
163.687
21
-83.8721
0
LINE
8
BLACK
6
CONTINUOUS
10
163.687
20
-83.8721
11
163.685
21
-83.859
0
LINE
8
BLACK
6
CONTINUOUS
10
163.685
20
-83.859
11
163.68
21
-83.8464
0
LINE
8
BLACK
6
CONTINUOUS
10
163.68
20
-83.8464
11
163.68
21
-83.8331
0
LINE
8
BLACK
6
CONTINUOUS
10
163.68
20
-83.8331
11
163.68
21
-83.8331
0
LINE
8
BLACK
6
CONTINUOUS
10
163.68
20
-83.8331
11
163.68
21
-68.5669
0
LINE
8
BLACK
6
CONTINUOUS
10
163.68
20
-68.5669
11
163.68
21
-68.5536
0
LINE
8
BLACK
6
CONTINUOUS
10
163.68
20
-68.5536
11
163.685
21
-68.541
0
LINE
8
BLACK
6
CONTINUOUS
10
163.685
20
-68.541
11
163.687
21
-68.5279
0
LINE
8
BLACK
6
CONTINUOUS
10
163.687
20
-68.5279
11
163.694
21
-68.5164
0
LINE
8
BLACK
6
CONTINUOUS
10
163.694
20
-68.5164
11
163.698
21
-68.5038
0
LINE
8
BLACK
6
CONTINUOUS
10
163.698
20
-68.5038
11
163.707
21
-68.4936
0
LINE
8
BLACK
6
CONTINUOUS
10
163.707
20
-68.4936
11
163.713
21
-68.4821
0
LINE
8
BLACK
6
CONTINUOUS
10
163.713
20
-68.4821
11
163.724
21
-68.4735
0
LINE
8
BLACK
6
CONTINUOUS
10
163.724
20
-68.4735
11
163.732
21
-68.4633
0
LINE
8
BLACK
6
CONTINUOUS
10
163.732
20
-68.4633
11
163.744
21
-68.4567
0
LINE
8
BLACK
6
CONTINUOUS
10
163.744
20
-68.4567
11
163.754
21
-68.4481
0
LINE
8
BLACK
6
CONTINUOUS
10
163.754
20
-68.4481
11
163.766
21
-68.4435
0
LINE
8
BLACK
6
CONTINUOUS
10
163.766
20
-68.4435
11
163.778
21
-68.4369
0
LINE
8
BLACK
6
CONTINUOUS
10
163.778
20
-68.4369
11
163.791
21
-68.4346
0
LINE
8
BLACK
6
CONTINUOUS
10
163.791
20
-68.4346
11
163.804
21
-68.43
0
LINE
8
BLACK
6
CONTINUOUS
10
163.804
20
-68.43
11
163.817
21
-68.43
0
LINE
8
BLACK
6
CONTINUOUS
10
163.817
20
-68.43
11
163.817
21
-68.43
0
LINE
8
BLACK
6
CONTINUOUS
10
163.817
20
-68.43
11
179.083
21
-68.43
0
LINE
8
BLACK
6
CONTINUOUS
10
179.083
20
-68.43
11
179.083
21
-68.43
0
LINE
8
BLACK
6
CONTINUOUS
10
163.98
20
-68.73
11
163.98
21
-83.67
0
LINE
8
BLACK
6
CONTINUOUS
10
163.98
20
-83.67
11
178.92
21
-83.67
0
LINE
8
BLACK
6
CONTINUOUS
10
178.92
20
-83.67
11
178.92
21
-68.73
0
LINE
8
BLACK
6
CONTINUOUS
10
178.92
20
-68.73
11
163.98
21
-68.73
0
LINE
8
BLACK
6
CONTINUOUS
10
160.033
20
-63.35
11
160.046
21
-63.35
0
LINE
8
BLACK
6
CONTINUOUS
10
160.046
20
-63.35
11
160.059
21
-63.3546
0
LINE
8
BLACK
6
CONTINUOUS
10
160.059
20
-63.3546
11
160.072
21
-63.3569
0
LINE
8
BLACK
6
CONTINUOUS
10
160.072
20
-63.3569
11
160.084
21
-63.3635
0
LINE
8
BLACK
6
CONTINUOUS
10
160.084
20
-63.3635
11
160.096
21
-63.3681
0
LINE
8
BLACK
6
CONTINUOUS
10
160.096
20
-63.3681
11
160.106
21
-63.3767
0
LINE
8
BLACK
6
CONTINUOUS
10
160.106
20
-63.3767
11
160.118
21
-63.3833
0
LINE
8
BLACK
6
CONTINUOUS
10
160.118
20
-63.3833
11
160.126
21
-63.3935
0
LINE
8
BLACK
6
CONTINUOUS
10
160.126
20
-63.3935
11
160.137
21
-63.4021
0
LINE
8
BLACK
6
CONTINUOUS
10
160.137
20
-63.4021
11
160.143
21
-63.4136
0
LINE
8
BLACK
6
CONTINUOUS
10
160.143
20
-63.4136
11
160.152
21
-63.4238
0
LINE
8
BLACK
6
CONTINUOUS
10
160.152
20
-63.4238
11
160.156
21
-63.4364
0
LINE
8
BLACK
6
CONTINUOUS
10
160.156
20
-63.4364
11
160.163
21
-63.4479
0
LINE
8
BLACK
6
CONTINUOUS
10
160.163
20
-63.4479
11
160.165
21
-63.461
0
LINE
8
BLACK
6
CONTINUOUS
10
160.165
20
-63.461
11
160.17
21
-63.4736
0
LINE
8
BLACK
6
CONTINUOUS
10
160.17
20
-63.4736
11
160.17
21
-63.4869
0
LINE
8
BLACK
6
CONTINUOUS
10
160.17
20
-63.4869
11
160.17
21
-63.4869
0
LINE
8
BLACK
6
CONTINUOUS
10
160.17
20
-63.4869
11
160.17
21
-78.7531
0
LINE
8
BLACK
6
CONTINUOUS
10
160.17
20
-78.7531
11
160.17
21
-78.7531
0
LINE
8
BLACK
6
CONTINUOUS
10
160.17
20
-78.7531
11
160.17
21
-78.7664
0
LINE
8
BLACK
6
CONTINUOUS
10
160.17
20
-78.7664
11
160.165
21
-78.779
0
LINE
8
BLACK
6
CONTINUOUS
10
160.165
20
-78.779
11
160.163
21
-78.7921
0
LINE
8
BLACK
6
CONTINUOUS
10
160.163
20
-78.7921
11
160.156
21
-78.8036
0
LINE
8
BLACK
6
CONTINUOUS
10
160.156
20
-78.8036
11
160.152
21
-78.8162
0
LINE
8
BLACK
6
CONTINUOUS
10
160.152
20
-78.8162
11
160.143
21
-78.8264
0
LINE
8
BLACK
6
CONTINUOUS
10
160.143
20
-78.8264
11
160.137
21
-78.8379
0
LINE
8
BLACK
6
CONTINUOUS
10
160.137
20
-78.8379
11
160.126
21
-78.8465
0
LINE
8
BLACK
6
CONTINUOUS
10
160.126
20
-78.8465
11
160.118
21
-78.8567
0
LINE
8
BLACK
6
CONTINUOUS
10
160.118
20
-78.8567
11
160.106
21
-78.8633
0
LINE
8
BLACK
6
CONTINUOUS
10
160.106
20
-78.8633
11
160.096
21
-78.8719
0
LINE
8
BLACK
6
CONTINUOUS
10
160.096
20
-78.8719
11
160.084
21
-78.8765
0
LINE
8
BLACK
6
CONTINUOUS
10
160.084
20
-78.8765
11
160.072
21
-78.8831
0
LINE
8
BLACK
6
CONTINUOUS
10
160.072
20
-78.8831
11
160.059
21
-78.8854
0
LINE
8
BLACK
6
CONTINUOUS
10
160.059
20
-78.8854
11
160.046
21
-78.89
0
LINE
8
BLACK
6
CONTINUOUS
10
160.046
20
-78.89
11
160.033
21
-78.89
0
LINE
8
BLACK
6
CONTINUOUS
10
160.033
20
-78.89
11
160.033
21
-78.89
0
LINE
8
BLACK
6
CONTINUOUS
10
160.033
20
-78.89
11
144.767
21
-78.89
0
LINE
8
BLACK
6
CONTINUOUS
10
144.767
20
-78.89
11
144.767
21
-78.89
0
LINE
8
BLACK
6
CONTINUOUS
10
144.767
20
-78.89
11
144.754
21
-78.89
0
LINE
8
BLACK
6
CONTINUOUS
10
144.754
20
-78.89
11
144.741
21
-78.8854
0
LINE
8
BLACK
6
CONTINUOUS
10
144.741
20
-78.8854
11
144.728
21
-78.8831
0
LINE
8
BLACK
6
CONTINUOUS
10
144.728
20
-78.8831
11
144.716
21
-78.8765
0
LINE
8
BLACK
6
CONTINUOUS
10
144.716
20
-78.8765
11
144.704
21
-78.8719
0
LINE
8
BLACK
6
CONTINUOUS
10
144.704
20
-78.8719
11
144.694
21
-78.8633
0
LINE
8
BLACK
6
CONTINUOUS
10
144.694
20
-78.8633
11
144.682
21
-78.8567
0
LINE
8
BLACK
6
CONTINUOUS
10
144.682
20
-78.8567
11
144.674
21
-78.8465
0
LINE
8
BLACK
6
CONTINUOUS
10
144.674
20
-78.8465
11
144.663
21
-78.8379
0
LINE
8
BLACK
6
CONTINUOUS
10
144.663
20
-78.8379
11
144.657
21
-78.8264
0
LINE
8
BLACK
6
CONTINUOUS
10
144.657
20
-78.8264
11
144.648
21
-78.8162
0
LINE
8
BLACK
6
CONTINUOUS
10
144.648
20
-78.8162
11
144.644
21
-78.8036
0
LINE
8
BLACK
6
CONTINUOUS
10
144.644
20
-78.8036
11
144.637
21
-78.7921
0
LINE
8
BLACK
6
CONTINUOUS
10
144.637
20
-78.7921
11
144.635
21
-78.779
0
LINE
8
BLACK
6
CONTINUOUS
10
144.635
20
-78.779
11
144.63
21
-78.7664
0
LINE
8
BLACK
6
CONTINUOUS
10
144.63
20
-78.7664
11
144.63
21
-78.7531
0
LINE
8
BLACK
6
CONTINUOUS
10
144.63
20
-78.7531
11
144.63
21
-78.7531
0
LINE
8
BLACK
6
CONTINUOUS
10
144.63
20
-78.7531
11
144.63
21
-63.4869
0
LINE
8
BLACK
6
CONTINUOUS
10
144.63
20
-63.4869
11
144.63
21
-63.4736
0
LINE
8
BLACK
6
CONTINUOUS
10
144.63
20
-63.4736
11
144.635
21
-63.461
0
LINE
8
BLACK
6
CONTINUOUS
10
144.635
20
-63.461
11
144.637
21
-63.4479
0
LINE
8
BLACK
6
CONTINUOUS
10
144.637
20
-63.4479
11
144.644
21
-63.4364
0
LINE
8
BLACK
6
CONTINUOUS
10
144.644
20
-63.4364
11
144.648
21
-63.4238
0
LINE
8
BLACK
6
CONTINUOUS
10
144.648
20
-63.4238
11
144.657
21
-63.4136
0
LINE
8
BLACK
6
CONTINUOUS
10
144.657
20
-63.4136
11
144.663
21
-63.4021
0
LINE
8
BLACK
6
CONTINUOUS
10
144.663
20
-63.4021
11
144.674
21
-63.3935
0
LINE
8
BLACK
6
CONTINUOUS
10
144.674
20
-63.3935
11
144.682
21
-63.3833
0
LINE
8
BLACK
6
CONTINUOUS
10
144.682
20
-63.3833
11
144.694
21
-63.3767
0
LINE
8
BLACK
6
CONTINUOUS
10
144.694
20
-63.3767
11
144.704
21
-63.3681
0
LINE
8
BLACK
6
CONTINUOUS
10
144.704
20
-63.3681
11
144.716
21
-63.3635
0
LINE
8
BLACK
6
CONTINUOUS
10
144.716
20
-63.3635
11
144.728
21
-63.3569
0
LINE
8
BLACK
6
CONTINUOUS
10
144.728
20
-63.3569
11
144.741
21
-63.3546
0
LINE
8
BLACK
6
CONTINUOUS
10
144.741
20
-63.3546
11
144.754
21
-63.35
0
LINE
8
BLACK
6
CONTINUOUS
10
144.754
20
-63.35
11
144.767
21
-63.35
0
LINE
8
BLACK
6
CONTINUOUS
10
144.767
20
-63.35
11
144.767
21
-63.35
0
LINE
8
BLACK
6
CONTINUOUS
10
144.767
20
-63.35
11
160.033
21
-63.35
0
LINE
8
BLACK
6
CONTINUOUS
10
160.033
20
-63.35
11
160.033
21
-63.35
0
LINE
8
BLACK
6
CONTINUOUS
10
144.93
20
-63.65
11
144.93
21
-78.59
0
LINE
8
BLACK
6
CONTINUOUS
10
144.93
20
-78.59
11
159.87
21
-78.59
0
LINE
8
BLACK
6
CONTINUOUS
10
159.87
20
-78.59
11
159.87
21
-63.65
0
LINE
8
BLACK
6
CONTINUOUS
10
159.87
20
-63.65
11
144.93
21
-63.65
0
LINE
8
BLACK
6
CONTINUOUS
10
217.183
20
-60.81
11
217.196
21
-60.81
0
LINE
8
BLACK
6
CONTINUOUS
10
217.196
20
-60.81
11
217.209
21
-60.8146
0
LINE
8
BLACK
6
CONTINUOUS
10
217.209
20
-60.8146
11
217.222
21
-60.8169
0
LINE
8
BLACK
6
CONTINUOUS
10
217.222
20
-60.8169
11
217.234
21
-60.8235
0
LINE
8
BLACK
6
CONTINUOUS
10
217.234
20
-60.8235
11
217.246
21
-60.8281
0
LINE
8
BLACK
6
CONTINUOUS
10
217.246
20
-60.8281
11
217.256
21
-60.8367
0
LINE
8
BLACK
6
CONTINUOUS
10
217.256
20
-60.8367
11
217.268
21
-60.8433
0
LINE
8
BLACK
6
CONTINUOUS
10
217.268
20
-60.8433
11
217.276
21
-60.8535
0
LINE
8
BLACK
6
CONTINUOUS
10
217.276
20
-60.8535
11
217.287
21
-60.8621
0
LINE
8
BLACK
6
CONTINUOUS
10
217.287
20
-60.8621
11
217.293
21
-60.8736
0
LINE
8
BLACK
6
CONTINUOUS
10
217.293
20
-60.8736
11
217.302
21
-60.8838
0
LINE
8
BLACK
6
CONTINUOUS
10
217.302
20
-60.8838
11
217.306
21
-60.8964
0
LINE
8
BLACK
6
CONTINUOUS
10
217.306
20
-60.8964
11
217.313
21
-60.9079
0
LINE
8
BLACK
6
CONTINUOUS
10
217.313
20
-60.9079
11
217.315
21
-60.921
0
LINE
8
BLACK
6
CONTINUOUS
10
217.315
20
-60.921
11
217.32
21
-60.9336
0
LINE
8
BLACK
6
CONTINUOUS
10
217.32
20
-60.9336
11
217.32
21
-60.9469
0
LINE
8
BLACK
6
CONTINUOUS
10
217.32
20
-60.9469
11
217.32
21
-60.9469
0
LINE
8
BLACK
6
CONTINUOUS
10
217.32
20
-60.9469
11
217.32
21
-76.2131
0
LINE
8
BLACK
6
CONTINUOUS
10
217.32
20
-76.2131
11
217.32
21
-76.2131
0
LINE
8
BLACK
6
CONTINUOUS
10
217.32
20
-76.2131
11
217.32
21
-76.2264
0
LINE
8
BLACK
6
CONTINUOUS
10
217.32
20
-76.2264
11
217.315
21
-76.239
0
LINE
8
BLACK
6
CONTINUOUS
10
217.315
20
-76.239
11
217.313
21
-76.2521
0
LINE
8
BLACK
6
CONTINUOUS
10
217.313
20
-76.2521
11
217.306
21
-76.2636
0
LINE
8
BLACK
6
CONTINUOUS
10
217.306
20
-76.2636
11
217.302
21
-76.2762
0
LINE
8
BLACK
6
CONTINUOUS
10
217.302
20
-76.2762
11
217.293
21
-76.2864
0
LINE
8
BLACK
6
CONTINUOUS
10
217.293
20
-76.2864
11
217.287
21
-76.2979
0
LINE
8
BLACK
6
CONTINUOUS
10
217.287
20
-76.2979
11
217.276
21
-76.3065
0
LINE
8
BLACK
6
CONTINUOUS
10
217.276
20
-76.3065
11
217.268
21
-76.3167
0
LINE
8
BLACK
6
CONTINUOUS
10
217.268
20
-76.3167
11
217.256
21
-76.3233
0
LINE
8
BLACK
6
CONTINUOUS
10
217.256
20
-76.3233
11
217.246
21
-76.3319
0
LINE
8
BLACK
6
CONTINUOUS
10
217.246
20
-76.3319
11
217.234
21
-76.3365
0
LINE
8
BLACK
6
CONTINUOUS
10
217.234
20
-76.3365
11
217.222
21
-76.3431
0
LINE
8
BLACK
6
CONTINUOUS
10
217.222
20
-76.3431
11
217.209
21
-76.3454
0
LINE
8
BLACK
6
CONTINUOUS
10
217.209
20
-76.3454
11
217.196
21
-76.35
0
LINE
8
BLACK
6
CONTINUOUS
10
217.196
20
-76.35
11
217.183
21
-76.35
0
LINE
8
BLACK
6
CONTINUOUS
10
217.183
20
-76.35
11
217.183
21
-76.35
0
LINE
8
BLACK
6
CONTINUOUS
10
217.183
20
-76.35
11
201.917
21
-76.35
0
LINE
8
BLACK
6
CONTINUOUS
10
201.917
20
-76.35
11
201.917
21
-76.35
0
LINE
8
BLACK
6
CONTINUOUS
10
201.917
20
-76.35
11
201.904
21
-76.35
0
LINE
8
BLACK
6
CONTINUOUS
10
201.904
20
-76.35
11
201.891
21
-76.3454
0
LINE
8
BLACK
6
CONTINUOUS
10
201.891
20
-76.3454
11
201.878
21
-76.3431
0
LINE
8
BLACK
6
CONTINUOUS
10
201.878
20
-76.3431
11
201.866
21
-76.3365
0
LINE
8
BLACK
6
CONTINUOUS
10
201.866
20
-76.3365
11
201.854
21
-76.3319
0
LINE
8
BLACK
6
CONTINUOUS
10
201.854
20
-76.3319
11
201.844
21
-76.3233
0
LINE
8
BLACK
6
CONTINUOUS
10
201.844
20
-76.3233
11
201.832
21
-76.3167
0
LINE
8
BLACK
6
CONTINUOUS
10
201.832
20
-76.3167
11
201.824
21
-76.3065
0
LINE
8
BLACK
6
CONTINUOUS
10
201.824
20
-76.3065
11
201.813
21
-76.2979
0
LINE
8
BLACK
6
CONTINUOUS
10
201.813
20
-76.2979
11
201.807
21
-76.2864
0
LINE
8
BLACK
6
CONTINUOUS
10
201.807
20
-76.2864
11
201.798
21
-76.2762
0
LINE
8
BLACK
6
CONTINUOUS
10
201.798
20
-76.2762
11
201.794
21
-76.2636
0
LINE
8
BLACK
6
CONTINUOUS
10
201.794
20
-76.2636
11
201.787
21
-76.2521
0
LINE
8
BLACK
6
CONTINUOUS
10
201.787
20
-76.2521
11
201.785
21
-76.239
0
LINE
8
BLACK
6
CONTINUOUS
10
201.785
20
-76.239
11
201.78
21
-76.2264
0
LINE
8
BLACK
6
CONTINUOUS
10
201.78
20
-76.2264
11
201.78
21
-76.2131
0
LINE
8
BLACK
6
CONTINUOUS
10
201.78
20
-76.2131
11
201.78
21
-76.2131
0
LINE
8
BLACK
6
CONTINUOUS
10
201.78
20
-76.2131
11
201.78
21
-60.9469
0
LINE
8
BLACK
6
CONTINUOUS
10
201.78
20
-60.9469
11
201.78
21
-60.9336
0
LINE
8
BLACK
6
CONTINUOUS
10
201.78
20
-60.9336
11
201.785
21
-60.921
0
LINE
8
BLACK
6
CONTINUOUS
10
201.785
20
-60.921
11
201.787
21
-60.9079
0
LINE
8
BLACK
6
CONTINUOUS
10
201.787
20
-60.9079
11
201.794
21
-60.8964
0
LINE
8
BLACK
6
CONTINUOUS
10
201.794
20
-60.8964
11
201.798
21
-60.8838
0
LINE
8
BLACK
6
CONTINUOUS
10
201.798
20
-60.8838
11
201.807
21
-60.8736
0
LINE
8
BLACK
6
CONTINUOUS
10
201.807
20
-60.8736
11
201.813
21
-60.8621
0
LINE
8
BLACK
6
CONTINUOUS
10
201.813
20
-60.8621
11
201.824
21
-60.8535
0
LINE
8
BLACK
6
CONTINUOUS
10
201.824
20
-60.8535
11
201.832
21
-60.8433
0
LINE
8
BLACK
6
CONTINUOUS
10
201.832
20
-60.8433
11
201.844
21
-60.8367
0
LINE
8
BLACK
6
CONTINUOUS
10
201.844
20
-60.8367
11
201.854
21
-60.8281
0
LINE
8
BLACK
6
CONTINUOUS
10
201.854
20
-60.8281
11
201.866
21
-60.8235
0
LINE
8
BLACK
6
CONTINUOUS
10
201.866
20
-60.8235
11
201.878
21
-60.8169
0
LINE
8
BLACK
6
CONTINUOUS
10
201.878
20
-60.8169
11
201.891
21
-60.8146
0
LINE
8
BLACK
6
CONTINUOUS
10
201.891
20
-60.8146
11
201.904
21
-60.81
0
LINE
8
BLACK
6
CONTINUOUS
10
201.904
20
-60.81
11
201.917
21
-60.81
0
LINE
8
BLACK
6
CONTINUOUS
10
201.917
20
-60.81
11
201.917
21
-60.81
0
LINE
8
BLACK
6
CONTINUOUS
10
201.917
20
-60.81
11
217.183
21
-60.81
0
LINE
8
BLACK
6
CONTINUOUS
10
217.183
20
-60.81
11
217.183
21
-60.81
0
LINE
8
BLACK
6
CONTINUOUS
10
202.08
20
-61.11
11
202.08
21
-76.05
0
LINE
8
BLACK
6
CONTINUOUS
10
202.08
20
-76.05
11
217.02
21
-76.05
0
LINE
8
BLACK
6
CONTINUOUS
10
217.02
20
-76.05
11
217.02
21
-61.11
0
LINE
8
BLACK
6
CONTINUOUS
10
217.02
20
-61.11
11
202.08
21
-61.11
0
LINE
8
BLACK
6
CONTINUOUS
10
198.133
20
-60.81
11
198.146
21
-60.81
0
LINE
8
BLACK
6
CONTINUOUS
10
198.146
20
-60.81
11
198.159
21
-60.8146
0
LINE
8
BLACK
6
CONTINUOUS
10
198.159
20
-60.8146
11
198.172
21
-60.8169
0
LINE
8
BLACK
6
CONTINUOUS
10
198.172
20
-60.8169
11
198.184
21
-60.8235
0
LINE
8
BLACK
6
CONTINUOUS
10
198.184
20
-60.8235
11
198.196
21
-60.8281
0
LINE
8
BLACK
6
CONTINUOUS
10
198.196
20
-60.8281
11
198.206
21
-60.8367
0
LINE
8
BLACK
6
CONTINUOUS
10
198.206
20
-60.8367
11
198.218
21
-60.8433
0
LINE
8
BLACK
6
CONTINUOUS
10
198.218
20
-60.8433
11
198.226
21
-60.8535
0
LINE
8
BLACK
6
CONTINUOUS
10
198.226
20
-60.8535
11
198.237
21
-60.8621
0
LINE
8
BLACK
6
CONTINUOUS
10
198.237
20
-60.8621
11
198.243
21
-60.8736
0
LINE
8
BLACK
6
CONTINUOUS
10
198.243
20
-60.8736
11
198.252
21
-60.8838
0
LINE
8
BLACK
6
CONTINUOUS
10
198.252
20
-60.8838
11
198.256
21
-60.8964
0
LINE
8
BLACK
6
CONTINUOUS
10
198.256
20
-60.8964
11
198.263
21
-60.9079
0
LINE
8
BLACK
6
CONTINUOUS
10
198.263
20
-60.9079
11
198.265
21
-60.921
0
LINE
8
BLACK
6
CONTINUOUS
10
198.265
20
-60.921
11
198.27
21
-60.9336
0
LINE
8
BLACK
6
CONTINUOUS
10
198.27
20
-60.9336
11
198.27
21
-60.9469
0
LINE
8
BLACK
6
CONTINUOUS
10
198.27
20
-60.9469
11
198.27
21
-60.9469
0
LINE
8
BLACK
6
CONTINUOUS
10
198.27
20
-60.9469
11
198.27
21
-76.2131
0
LINE
8
BLACK
6
CONTINUOUS
10
198.27
20
-76.2131
11
198.27
21
-76.2131
0
LINE
8
BLACK
6
CONTINUOUS
10
198.27
20
-76.2131
11
198.27
21
-76.2264
0
LINE
8
BLACK
6
CONTINUOUS
10
198.27
20
-76.2264
11
198.265
21
-76.239
0
LINE
8
BLACK
6
CONTINUOUS
10
198.265
20
-76.239
11
198.263
21
-76.2521
0
LINE
8
BLACK
6
CONTINUOUS
10
198.263
20
-76.2521
11
198.256
21
-76.2636
0
LINE
8
BLACK
6
CONTINUOUS
10
198.256
20
-76.2636
11
198.252
21
-76.2762
0
LINE
8
BLACK
6
CONTINUOUS
10
198.252
20
-76.2762
11
198.243
21
-76.2864
0
LINE
8
BLACK
6
CONTINUOUS
10
198.243
20
-76.2864
11
198.237
21
-76.2979
0
LINE
8
BLACK
6
CONTINUOUS
10
198.237
20
-76.2979
11
198.226
21
-76.3065
0
LINE
8
BLACK
6
CONTINUOUS
10
198.226
20
-76.3065
11
198.218
21
-76.3167
0
LINE
8
BLACK
6
CONTINUOUS
10
198.218
20
-76.3167
11
198.206
21
-76.3233
0
LINE
8
BLACK
6
CONTINUOUS
10
198.206
20
-76.3233
11
198.196
21
-76.3319
0
LINE
8
BLACK
6
CONTINUOUS
10
198.196
20
-76.3319
11
198.184
21
-76.3365
0
LINE
8
BLACK
6
CONTINUOUS
10
198.184
20
-76.3365
11
198.172
21
-76.3431
0
LINE
8
BLACK
6
CONTINUOUS
10
198.172
20
-76.3431
11
198.159
21
-76.3454
0
LINE
8
BLACK
6
CONTINUOUS
10
198.159
20
-76.3454
11
198.146
21
-76.35
0
LINE
8
BLACK
6
CONTINUOUS
10
198.146
20
-76.35
11
198.133
21
-76.35
0
LINE
8
BLACK
6
CONTINUOUS
10
198.133
20
-76.35
11
198.133
21
-76.35
0
LINE
8
BLACK
6
CONTINUOUS
10
198.133
20
-76.35
11
182.867
21
-76.35
0
LINE
8
BLACK
6
CONTINUOUS
10
182.867
20
-76.35
11
182.867
21
-76.35
0
LINE
8
BLACK
6
CONTINUOUS
10
182.867
20
-76.35
11
182.854
21
-76.35
0
LINE
8
BLACK
6
CONTINUOUS
10
182.854
20
-76.35
11
182.841
21
-76.3454
0
LINE
8
BLACK
6
CONTINUOUS
10
182.841
20
-76.3454
11
182.828
21
-76.3431
0
LINE
8
BLACK
6
CONTINUOUS
10
182.828
20
-76.3431
11
182.816
21
-76.3365
0
LINE
8
BLACK
6
CONTINUOUS
10
182.816
20
-76.3365
11
182.804
21
-76.3319
0
LINE
8
BLACK
6
CONTINUOUS
10
182.804
20
-76.3319
11
182.794
21
-76.3233
0
LINE
8
BLACK
6
CONTINUOUS
10
182.794
20
-76.3233
11
182.782
21
-76.3167
0
LINE
8
BLACK
6
CONTINUOUS
10
182.782
20
-76.3167
11
182.774
21
-76.3065
0
LINE
8
BLACK
6
CONTINUOUS
10
182.774
20
-76.3065
11
182.763
21
-76.2979
0
LINE
8
BLACK
6
CONTINUOUS
10
182.763
20
-76.2979
11
182.757
21
-76.2864
0
LINE
8
BLACK
6
CONTINUOUS
10
182.757
20
-76.2864
11
182.748
21
-76.2762
0
LINE
8
BLACK
6
CONTINUOUS
10
182.748
20
-76.2762
11
182.744
21
-76.2636
0
LINE
8
BLACK
6
CONTINUOUS
10
182.744
20
-76.2636
11
182.737
21
-76.2521
0
LINE
8
BLACK
6
CONTINUOUS
10
182.737
20
-76.2521
11
182.735
21
-76.239
0
LINE
8
BLACK
6
CONTINUOUS
10
182.735
20
-76.239
11
182.73
21
-76.2264
0
LINE
8
BLACK
6
CONTINUOUS
10
182.73
20
-76.2264
11
182.73
21
-76.2131
0
LINE
8
BLACK
6
CONTINUOUS
10
182.73
20
-76.2131
11
182.73
21
-76.2131
0
LINE
8
BLACK
6
CONTINUOUS
10
182.73
20
-76.2131
11
182.73
21
-60.9469
0
LINE
8
BLACK
6
CONTINUOUS
10
182.73
20
-60.9469
11
182.73
21
-60.9336
0
LINE
8
BLACK
6
CONTINUOUS
10
182.73
20
-60.9336
11
182.735
21
-60.921
0
LINE
8
BLACK
6
CONTINUOUS
10
182.735
20
-60.921
11
182.737
21
-60.9079
0
LINE
8
BLACK
6
CONTINUOUS
10
182.737
20
-60.9079
11
182.744
21
-60.8964
0
LINE
8
BLACK
6
CONTINUOUS
10
182.744
20
-60.8964
11
182.748
21
-60.8838
0
LINE
8
BLACK
6
CONTINUOUS
10
182.748
20
-60.8838
11
182.757
21
-60.8736
0
LINE
8
BLACK
6
CONTINUOUS
10
182.757
20
-60.8736
11
182.763
21
-60.8621
0
LINE
8
BLACK
6
CONTINUOUS
10
182.763
20
-60.8621
11
182.774
21
-60.8535
0
LINE
8
BLACK
6
CONTINUOUS
10
182.774
20
-60.8535
11
182.782
21
-60.8433
0
LINE
8
BLACK
6
CONTINUOUS
10
182.782
20
-60.8433
11
182.794
21
-60.8367
0
LINE
8
BLACK
6
CONTINUOUS
10
182.794
20
-60.8367
11
182.804
21
-60.8281
0
LINE
8
BLACK
6
CONTINUOUS
10
182.804
20
-60.8281
11
182.816
21
-60.8235
0
LINE
8
BLACK
6
CONTINUOUS
10
182.816
20
-60.8235
11
182.828
21
-60.8169
0
LINE
8
BLACK
6
CONTINUOUS
10
182.828
20
-60.8169
11
182.841
21
-60.8146
0
LINE
8
BLACK
6
CONTINUOUS
10
182.841
20
-60.8146
11
182.854
21
-60.81
0
LINE
8
BLACK
6
CONTINUOUS
10
182.854
20
-60.81
11
182.867
21
-60.81
0
LINE
8
BLACK
6
CONTINUOUS
10
182.867
20
-60.81
11
182.867
21
-60.81
0
LINE
8
BLACK
6
CONTINUOUS
10
182.867
20
-60.81
11
198.133
21
-60.81
0
LINE
8
BLACK
6
CONTINUOUS
10
198.133
20
-60.81
11
198.133
21
-60.81
0
LINE
8
BLACK
6
CONTINUOUS
10
183.03
20
-61.11
11
183.03
21
-76.05
0
LINE
8
BLACK
6
CONTINUOUS
10
183.03
20
-76.05
11
197.97
21
-76.05
0
LINE
8
BLACK
6
CONTINUOUS
10
197.97
20
-76.05
11
197.97
21
-61.11
0
LINE
8
BLACK
6
CONTINUOUS
10
197.97
20
-61.11
11
183.03
21
-61.11
  0
ENDSEC
  0
EOF
