M48
;DRILL file {KiCad (5.0.2)-1} date 2019/03/26 18:35:30
;FORMAT={-:-/ absolute / metric / decimal}
FMAT,2
METRIC,TZ
T1C0.400
T2C0.813
T3C1.000
T4C1.300
T5C1.500
T6C2.200
%
G90
G05
T1
X82.284Y-106.68
X83.009Y-112.385
X83.82Y-59.69
X91.44Y-93.98
X104.14Y-81.28
X106.68Y-85.09
X109.22Y-82.55
T2
X124.46Y-129.54
X124.46Y-137.16
X124.46Y-110.49
X124.46Y-118.11
X124.46Y-72.39
X124.46Y-80.01
X143.51Y-67.31
X143.51Y-74.93
X200.66Y-121.92
X200.66Y-129.54
X143.51Y-105.41
X143.51Y-113.03
X181.61Y-102.87
X181.61Y-110.49
X162.56Y-110.49
X162.56Y-118.11
X200.549Y-83.627
X200.549Y-91.247
X181.61Y-64.77
X181.61Y-72.39
X100.551Y-137.136
X103.157Y-144.296
X143.51Y-86.36
X143.51Y-93.98
X162.56Y-91.44
X162.56Y-99.06
X200.66Y-121.92
X200.66Y-129.54
X143.51Y-67.31
X143.51Y-74.93
X200.66Y-64.77
X200.66Y-72.39
X162.56Y-72.39
X162.56Y-80.01
X100.805Y-115.546
X103.411Y-122.706
X118.839Y-130.786
X121.445Y-137.946
X181.61Y-83.82
X181.61Y-91.44
X143.51Y-129.54
X143.51Y-137.16
X181.61Y-102.87
X181.61Y-110.49
X143.51Y-86.36
X143.51Y-93.98
X118.839Y-130.786
X121.445Y-137.946
X124.46Y-91.44
X124.46Y-99.06
X105.41Y-110.49
X105.41Y-118.11
X200.66Y-64.77
X200.66Y-72.39
X181.61Y-64.77
X181.61Y-72.39
X143.51Y-105.41
X143.51Y-113.03
X162.56Y-91.44
X162.56Y-99.06
X124.46Y-72.39
X124.46Y-80.01
X85.09Y-63.754
X85.09Y-66.294
X85.09Y-68.834
X85.09Y-71.374
X85.09Y-73.914
X85.09Y-76.454
X85.09Y-78.994
X85.09Y-81.534
X85.09Y-84.074
X85.09Y-86.614
X85.09Y-89.154
X85.09Y-91.694
X86.416Y-62.484
X86.416Y-65.024
X86.416Y-67.564
X86.416Y-70.104
X86.416Y-72.644
X86.416Y-75.184
X86.416Y-77.724
X86.416Y-80.264
X86.416Y-82.804
X86.416Y-85.344
X86.416Y-87.884
X86.416Y-90.424
X100.33Y-63.754
X100.33Y-66.294
X100.33Y-68.834
X100.33Y-71.374
X100.33Y-73.914
X100.33Y-76.454
X100.33Y-78.994
X100.33Y-81.534
X100.33Y-84.074
X100.33Y-86.614
X100.33Y-89.154
X100.33Y-91.694
X101.636Y-62.484
X101.636Y-65.024
X101.636Y-67.564
X101.636Y-70.104
X101.636Y-72.644
X101.636Y-75.184
X101.636Y-77.724
X101.636Y-80.264
X101.636Y-82.804
X101.636Y-85.344
X101.636Y-87.884
X101.636Y-90.424
X105.41Y-91.44
X105.41Y-99.06
X100.551Y-137.136
X103.157Y-144.296
X105.41Y-91.44
X105.41Y-99.06
X162.56Y-72.39
X162.56Y-80.01
X181.61Y-121.92
X181.61Y-129.54
X181.61Y-83.82
X181.61Y-91.44
X162.56Y-129.54
X162.56Y-137.16
X105.41Y-110.49
X105.41Y-118.11
X124.46Y-110.49
X124.46Y-118.11
X200.66Y-102.87
X200.66Y-110.49
X200.66Y-102.87
X200.66Y-110.49
X124.46Y-129.54
X124.46Y-137.16
X162.56Y-110.49
X162.56Y-118.11
X200.549Y-83.627
X200.549Y-91.247
X124.46Y-91.44
X124.46Y-99.06
X181.61Y-121.92
X181.61Y-129.54
X105.41Y-72.39
X105.41Y-80.01
X105.41Y-72.39
X105.41Y-80.01
X143.51Y-129.54
X143.51Y-137.16
X100.805Y-115.546
X103.411Y-122.706
X162.56Y-129.54
X162.56Y-137.16
T4
X97.79Y-95.81
X97.79Y-102.31
T5
X166.45Y-118.1
X167.64Y-111.76
X168.91Y-109.22
X171.45Y-120.2
X173.99Y-109.22
X175.26Y-111.76
X176.45Y-118.1
X166.45Y-99.05
X167.64Y-92.71
X168.91Y-90.17
X171.45Y-101.15
X173.99Y-90.17
X175.26Y-92.71
X176.45Y-99.05
X204.55Y-110.48
X205.74Y-104.14
X207.01Y-101.6
X209.55Y-112.58
X212.09Y-101.6
X213.36Y-104.14
X214.55Y-110.48
X147.4Y-74.92
X148.59Y-68.58
X149.86Y-66.04
X152.4Y-77.02
X154.94Y-66.04
X156.21Y-68.58
X157.4Y-74.92
X185.5Y-110.48
X186.69Y-104.14
X187.96Y-101.6
X190.5Y-112.58
X193.04Y-101.6
X194.31Y-104.14
X195.5Y-110.48
X128.35Y-80.
X129.54Y-73.66
X130.81Y-71.12
X133.35Y-82.1
X135.89Y-71.12
X137.16Y-73.66
X138.35Y-80.
X147.4Y-113.02
X148.59Y-106.68
X149.86Y-104.14
X152.4Y-115.12
X154.94Y-104.14
X156.21Y-106.68
X157.4Y-113.02
X109.3Y-99.05
X110.49Y-92.71
X111.76Y-90.17
X114.3Y-101.15
X116.84Y-90.17
X118.11Y-92.71
X119.3Y-99.05
X147.4Y-137.15
X148.59Y-130.81
X149.86Y-128.27
X152.4Y-139.25
X154.94Y-128.27
X156.21Y-130.81
X157.4Y-137.15
X109.3Y-80.
X110.49Y-73.66
X111.76Y-71.12
X114.3Y-82.1
X116.84Y-71.12
X118.11Y-73.66
X119.3Y-80.
X89.614Y-122.136
X89.938Y-119.315
X90.664Y-128.501
X94.712Y-117.577
X96.08Y-128.764
X96.774Y-119.53
X100.061Y-125.08
X204.55Y-91.43
X205.74Y-85.09
X207.01Y-82.55
X209.55Y-93.53
X212.09Y-82.55
X213.36Y-85.09
X214.55Y-91.43
X109.3Y-118.1
X110.49Y-111.76
X111.76Y-109.22
X114.3Y-120.2
X116.84Y-109.22
X118.11Y-111.76
X119.3Y-118.1
X166.45Y-137.15
X167.64Y-130.81
X168.91Y-128.27
X171.45Y-139.25
X173.99Y-128.27
X175.26Y-130.81
X176.45Y-137.15
X89.086Y-142.616
X89.411Y-139.795
X90.136Y-148.981
X94.184Y-138.058
X95.553Y-149.244
X96.246Y-140.01
X99.533Y-145.561
X204.55Y-129.53
X205.74Y-123.19
X207.01Y-120.65
X209.55Y-131.63
X212.09Y-120.65
X213.36Y-123.19
X214.55Y-129.53
X185.5Y-129.53
X186.69Y-123.19
X187.96Y-120.65
X190.5Y-131.63
X193.04Y-120.65
X194.31Y-123.19
X195.5Y-129.53
X128.35Y-118.1
X129.54Y-111.76
X130.81Y-109.22
X133.35Y-120.2
X135.89Y-109.22
X137.16Y-111.76
X138.35Y-118.1
X128.35Y-137.15
X129.54Y-130.81
X130.81Y-128.27
X133.35Y-139.25
X135.89Y-128.27
X137.16Y-130.81
X138.35Y-137.15
X185.5Y-91.43
X186.69Y-85.09
X187.96Y-82.55
X190.5Y-93.53
X193.04Y-82.55
X194.31Y-85.09
X195.5Y-91.43
X128.35Y-99.05
X129.54Y-92.71
X130.81Y-90.17
X133.35Y-101.15
X135.89Y-90.17
X137.16Y-92.71
X138.35Y-99.05
X204.55Y-72.38
X205.74Y-66.04
X207.01Y-63.5
X209.55Y-74.48
X212.09Y-63.5
X213.36Y-66.04
X214.55Y-72.38
X147.4Y-93.97
X148.59Y-87.63
X149.86Y-85.09
X152.4Y-96.07
X154.94Y-85.09
X156.21Y-87.63
X157.4Y-93.97
X185.5Y-72.38
X186.69Y-66.04
X187.96Y-63.5
X190.5Y-74.48
X193.04Y-63.5
X194.31Y-66.04
X195.5Y-72.38
X166.45Y-80.
X167.64Y-73.66
X168.91Y-71.12
X171.45Y-82.1
X173.99Y-71.12
X175.26Y-73.66
X176.45Y-80.
X106.987Y-136.101
X107.312Y-133.28
X108.037Y-142.466
X112.085Y-131.542
X113.454Y-142.729
X114.148Y-133.495
X117.434Y-139.045
T6
X85.09Y-110.49
X100.33Y-105.41
T3
X85.484Y-98.23G85X85.984Y-98.23
G05
X85.484Y-104.18G85X85.984Y-104.18
G05
X88.484Y-98.23G85X88.984Y-98.23
G05
X88.484Y-104.18G85X88.984Y-104.18
G05
X92.484Y-98.23G85X92.984Y-98.23
G05
X92.484Y-104.18G85X92.984Y-104.18
G05
X93.984Y-99.98G85X94.484Y-99.98
G05
X93.984Y-102.43G85X94.484Y-102.43
G05
T0
M30
