<?xml version="1.0" standalone="no"?>
 <!DOCTYPE svg PUBLIC "-//W3C//DTD SVG 1.1//EN" 
 "http://www.w3.org/Graphics/SVG/1.1/DTD/svg11.dtd"> 
<svg xmlns="http://www.w3.org/2000/svg" version="1.1" 
    width="15.3619cm" height="10.7391cm" viewBox="0 0 60480 42280 ">
<title>SVG Picture created as ergo50-Edge.Cuts.svg date 2019/03/17 11:46:49 </title>
  <desc>Picture generated by PCBNEW </desc>
<g style="fill:#000000; fill-opacity:1;stroke:#000000; stroke-opacity:1;
stroke-linecap:round; stroke-linejoin:round; "
 transform="translate(0 0) scale(1 1)">
</g>
<g style="fill:#000000; fill-opacity:0.0; 
stroke:#000000; stroke-width:-0.000393701; stroke-opacity:1; 
stroke-linecap:round; stroke-linejoin:round;">
</g>
<g style="fill:#C2C200; fill-opacity:0.0; 
stroke:#C2C200; stroke-width:-0.000393701; stroke-opacity:1; 
stroke-linecap:round; stroke-linejoin:round;">
</g>
<g style="fill:#C2C200; fill-opacity:0.0; 
stroke:#C2C200; stroke-width:59.0551; stroke-opacity:1; 
stroke-linecap:round; stroke-linejoin:round;">
<path d="M6944.88 3281.5 A1000 1000 0.0 0 0 5944.88 4281.5 " />
<path d="M8144.88 40981.5 A824.077 824.077 0.0 0 0 9045.06 41582.9 " />
<path d="M22444.9 36781.5 A650.023 650.023 0.0 0 0 22344.9 36781.5 " />
<path d="M44444.9 36781.5 A1000 1000 0.0 0 0 45444.9 35781.5 " />
<path d="M46444.9 33781.5 A1000 1000 0.0 0 0 45444.9 34781.5 " />
<path d="M59444.9 33781.5 A1000 1000 0.0 0 0 60444.9 32781.5 " />
<path d="M60444.9 4281.5 A1000 1000 0.0 0 0 59444.9 3281.5 " />
</g>
<g style="fill:#C2C200; fill-opacity:0.0; 
stroke:#C2C200; stroke-width:78.7402; stroke-opacity:1; 
stroke-linecap:round; stroke-linejoin:round;">
<path d="M5944 34881
L8144 40981
" />
<path d="M5944 4281
L5944 34881
" />
<path d="M59444 3281
L6944 3281
" />
<path d="M60444 32781
L60444 4281
" />
<path d="M46444 33781
L59444 33781
" />
<path d="M45444 35781
L45444 34781
" />
<path d="M22444 36781
L44444 36781
" />
<path d="M9044 41581
L22344 36781
" />
</g> 
</svg>
