  0
SECTION
  2
HEADER
  9
$ANGBASE
  50
0.0
  9
$ANGDIR
  70
  1
  9
$MEASUREMENT
  70
0
  0
ENDSEC
  0
SECTION
  2
TABLES
  0
TABLE
  2
LTYPE
  70
4
  0
LTYPE
  5
40F
  2
CONTINUOUS
  70
0
  3
Solid line
  72
65
  73
0
  40
0.0
  0
LTYPE
  5
410
  2
DASHDOT
 70
0
  3
Dash Dot ____ _ ____ _
 72
65
 73
4
 40
2.0
 49
1.25
 49
-0.25
 49
0.25
 49
-0.25
  0
LTYPE
  5
411
  2
DASHED
 70
0
  3
Dashed __ __ __ __ __
 72
65
 73
2
 40
0.75
 49
0.5
 49
-0.25
  0
LTYPE
  5
43B
  2
DOTTED
 70
0
  3
Dotted .  .  .  .
 72
65
 73
2
 40
0.2
 49
0.0
 49
-0.2
  0
ENDTAB
  0
TABLE
  2
STYLE
  70
4
  0
STYLE
  2
KICAD
  70
0
  40
0
  41
1
  42
1
  50
0
  71
0
  3
isocp.shx
  0
STYLE
  2
KICADB
  70
0
  40
0
  41
1
  42
1
  50
0
  71
0
  3
isocp.shx
  0
STYLE
  2
KICADI
  70
0
  40
0
  41
1
  42
1
  50
15
  71
0
  3
isocp.shx
  0
STYLE
  2
KICADBI
  70
0
  40
0
  41
1
  42
1
  50
15
  71
0
  3
isocp.shx
  0
ENDTAB
  0
TABLE
  2
LAYER
  70
30
  0
LAYER
  2
BLACK
  70
0
  62
7
  6
CONTINUOUS
  0
LAYER
  2
GRAY1
  70
0
  62
251
  6
CONTINUOUS
  0
LAYER
  2
GRAY2
  70
0
  62
8
  6
CONTINUOUS
  0
LAYER
  2
GRAY3
  70
0
  62
9
  6
CONTINUOUS
  0
LAYER
  2
WHITE
  70
0
  62
7
  6
CONTINUOUS
  0
LAYER
  2
LYELLOW
  70
0
  62
51
  6
CONTINUOUS
  0
LAYER
  2
BLUE1
  70
0
  62
178
  6
CONTINUOUS
  0
LAYER
  2
GREEN1
  70
0
  62
98
  6
CONTINUOUS
  0
LAYER
  2
CYAN1
  70
0
  62
138
  6
CONTINUOUS
  0
LAYER
  2
RED1
  70
0
  62
18
  6
CONTINUOUS
  0
LAYER
  2
MAGENTA1
  70
0
  62
228
  6
CONTINUOUS
  0
LAYER
  2
BROWN1
  70
0
  62
58
  6
CONTINUOUS
  0
LAYER
  2
BLUE2
  70
0
  62
5
  6
CONTINUOUS
  0
LAYER
  2
GREEN2
  70
0
  62
3
  6
CONTINUOUS
  0
LAYER
  2
CYAN2
  70
0
  62
4
  6
CONTINUOUS
  0
LAYER
  2
RED2
  70
0
  62
1
  6
CONTINUOUS
  0
LAYER
  2
MAGENTA2
  70
0
  62
6
  6
CONTINUOUS
  0
LAYER
  2
BROWN2
  70
0
  62
54
  6
CONTINUOUS
  0
LAYER
  2
BLUE3
  70
0
  62
171
  6
CONTINUOUS
  0
LAYER
  2
GREEN3
  70
0
  62
91
  6
CONTINUOUS
  0
LAYER
  2
CYAN3
  70
0
  62
131
  6
CONTINUOUS
  0
LAYER
  2
RED3
  70
0
  62
11
  6
CONTINUOUS
  0
LAYER
  2
MAGENTA3
  70
0
  62
221
  6
CONTINUOUS
  0
LAYER
  2
YELLOW3
  70
0
  62
2
  6
CONTINUOUS
  0
LAYER
  2
BLUE4
  70
0
  62
5
  6
CONTINUOUS
  0
LAYER
  2
GREEN4
  70
0
  62
3
  6
CONTINUOUS
  0
LAYER
  2
CYAN4
  70
0
  62
4
  6
CONTINUOUS
  0
LAYER
  2
RED4
  70
0
  62
1
  6
CONTINUOUS
  0
LAYER
  2
MAGENTA4
  70
0
  62
6
  6
CONTINUOUS
  0
LAYER
  2
YELLOW4
  70
0
  62
2
  6
CONTINUOUS
  0
ENDTAB
  0
ENDSEC
  0
SECTION
  2
ENTITIES
0
LINE
8
BLACK
6
CONTINUOUS
10
108.866
20
-126.932
11
108.499
21
-127.438
0
LINE
8
BLACK
6
CONTINUOUS
10
108.499
20
-127.438
11
108.017
21
-127.837
0
LINE
8
BLACK
6
CONTINUOUS
10
108.017
20
-127.837
11
107.451
21
-128.103
0
LINE
8
BLACK
6
CONTINUOUS
10
107.451
20
-128.103
11
106.837
21
-128.22
0
LINE
8
BLACK
6
CONTINUOUS
10
106.837
20
-128.22
11
106.212
21
-128.181
0
LINE
8
BLACK
6
CONTINUOUS
10
106.212
20
-128.181
11
105.618
21
-127.988
0
LINE
8
BLACK
6
CONTINUOUS
10
105.618
20
-127.988
11
105.09
21
-127.652
0
LINE
8
BLACK
6
CONTINUOUS
10
105.09
20
-127.652
11
104.662
21
-127.197
0
LINE
8
BLACK
6
CONTINUOUS
10
104.662
20
-127.197
11
104.36
21
-126.648
0
LINE
8
BLACK
6
CONTINUOUS
10
104.36
20
-126.648
11
104.205
21
-126.043
0
LINE
8
BLACK
6
CONTINUOUS
10
104.205
20
-126.043
11
104.205
21
-125.417
0
LINE
8
BLACK
6
CONTINUOUS
10
104.205
20
-125.417
11
104.36
21
-124.812
0
LINE
8
BLACK
6
CONTINUOUS
10
104.36
20
-124.812
11
104.662
21
-124.263
0
LINE
8
BLACK
6
CONTINUOUS
10
104.662
20
-124.263
11
105.09
21
-123.808
0
LINE
8
BLACK
6
CONTINUOUS
10
105.09
20
-123.808
11
105.618
21
-123.472
0
LINE
8
BLACK
6
CONTINUOUS
10
105.618
20
-123.472
11
106.212
21
-123.279
0
LINE
8
BLACK
6
CONTINUOUS
10
106.212
20
-123.279
11
106.837
21
-123.24
0
LINE
8
BLACK
6
CONTINUOUS
10
106.837
20
-123.24
11
107.451
21
-123.357
0
LINE
8
BLACK
6
CONTINUOUS
10
107.451
20
-123.357
11
108.017
21
-123.623
0
LINE
8
BLACK
6
CONTINUOUS
10
108.017
20
-123.623
11
108.499
21
-124.022
0
LINE
8
BLACK
6
CONTINUOUS
10
108.499
20
-124.022
11
108.866
21
-124.528
0
LINE
8
BLACK
6
CONTINUOUS
10
108.866
20
-124.528
11
109.097
21
-125.11
0
LINE
8
BLACK
6
CONTINUOUS
10
109.097
20
-125.11
11
109.175
21
-125.73
0
LINE
8
BLACK
6
CONTINUOUS
10
109.175
20
-125.73
11
109.097
21
-126.35
0
LINE
8
BLACK
6
CONTINUOUS
10
109.097
20
-126.35
11
108.866
21
-126.932
0
LINE
8
BLACK
6
CONTINUOUS
10
108.805
20
-124.562
11
108.448
21
-124.07
0
LINE
8
BLACK
6
CONTINUOUS
10
108.448
20
-124.07
11
107.979
21
-123.683
0
LINE
8
BLACK
6
CONTINUOUS
10
107.979
20
-123.683
11
107.429
21
-123.424
0
LINE
8
BLACK
6
CONTINUOUS
10
107.429
20
-123.424
11
106.832
21
-123.31
0
LINE
8
BLACK
6
CONTINUOUS
10
106.832
20
-123.31
11
106.226
21
-123.348
0
LINE
8
BLACK
6
CONTINUOUS
10
106.226
20
-123.348
11
105.647
21
-123.536
0
LINE
8
BLACK
6
CONTINUOUS
10
105.647
20
-123.536
11
105.134
21
-123.862
0
LINE
8
BLACK
6
CONTINUOUS
10
105.134
20
-123.862
11
104.718
21
-124.305
0
LINE
8
BLACK
6
CONTINUOUS
10
104.718
20
-124.305
11
104.425
21
-124.837
0
LINE
8
BLACK
6
CONTINUOUS
10
104.425
20
-124.837
11
104.274
21
-125.426
0
LINE
8
BLACK
6
CONTINUOUS
10
104.274
20
-125.426
11
104.274
21
-126.034
0
LINE
8
BLACK
6
CONTINUOUS
10
104.274
20
-126.034
11
104.425
21
-126.623
0
LINE
8
BLACK
6
CONTINUOUS
10
104.425
20
-126.623
11
104.718
21
-127.155
0
LINE
8
BLACK
6
CONTINUOUS
10
104.718
20
-127.155
11
105.134
21
-127.598
0
LINE
8
BLACK
6
CONTINUOUS
10
105.134
20
-127.598
11
105.647
21
-127.924
0
LINE
8
BLACK
6
CONTINUOUS
10
105.647
20
-127.924
11
106.226
21
-128.112
0
LINE
8
BLACK
6
CONTINUOUS
10
106.226
20
-128.112
11
106.832
21
-128.15
0
LINE
8
BLACK
6
CONTINUOUS
10
106.832
20
-128.15
11
107.429
21
-128.036
0
LINE
8
BLACK
6
CONTINUOUS
10
107.429
20
-128.036
11
107.979
21
-127.777
0
LINE
8
BLACK
6
CONTINUOUS
10
107.979
20
-127.777
11
108.448
21
-127.39
0
LINE
8
BLACK
6
CONTINUOUS
10
108.448
20
-127.39
11
108.805
21
-126.898
0
LINE
8
BLACK
6
CONTINUOUS
10
108.805
20
-126.898
11
109.029
21
-126.333
0
LINE
8
BLACK
6
CONTINUOUS
10
109.029
20
-126.333
11
109.105
21
-125.73
0
LINE
8
BLACK
6
CONTINUOUS
10
109.105
20
-125.73
11
109.029
21
-125.127
0
LINE
8
BLACK
6
CONTINUOUS
10
109.029
20
-125.127
11
108.805
21
-124.562
0
LINE
8
BLACK
6
CONTINUOUS
10
145.061
20
-125.027
11
144.694
21
-125.533
0
LINE
8
BLACK
6
CONTINUOUS
10
144.694
20
-125.533
11
144.212
21
-125.932
0
LINE
8
BLACK
6
CONTINUOUS
10
144.212
20
-125.932
11
143.646
21
-126.198
0
LINE
8
BLACK
6
CONTINUOUS
10
143.646
20
-126.198
11
143.032
21
-126.315
0
LINE
8
BLACK
6
CONTINUOUS
10
143.032
20
-126.315
11
142.407
21
-126.276
0
LINE
8
BLACK
6
CONTINUOUS
10
142.407
20
-126.276
11
141.813
21
-126.083
0
LINE
8
BLACK
6
CONTINUOUS
10
141.813
20
-126.083
11
141.285
21
-125.747
0
LINE
8
BLACK
6
CONTINUOUS
10
141.285
20
-125.747
11
140.857
21
-125.292
0
LINE
8
BLACK
6
CONTINUOUS
10
140.857
20
-125.292
11
140.555
21
-124.743
0
LINE
8
BLACK
6
CONTINUOUS
10
140.555
20
-124.743
11
140.4
21
-124.138
0
LINE
8
BLACK
6
CONTINUOUS
10
140.4
20
-124.138
11
140.4
21
-123.512
0
LINE
8
BLACK
6
CONTINUOUS
10
140.4
20
-123.512
11
140.555
21
-122.907
0
LINE
8
BLACK
6
CONTINUOUS
10
140.555
20
-122.907
11
140.857
21
-122.358
0
LINE
8
BLACK
6
CONTINUOUS
10
140.857
20
-122.358
11
141.285
21
-121.903
0
LINE
8
BLACK
6
CONTINUOUS
10
141.285
20
-121.903
11
141.813
21
-121.567
0
LINE
8
BLACK
6
CONTINUOUS
10
141.813
20
-121.567
11
142.407
21
-121.374
0
LINE
8
BLACK
6
CONTINUOUS
10
142.407
20
-121.374
11
143.032
21
-121.335
0
LINE
8
BLACK
6
CONTINUOUS
10
143.032
20
-121.335
11
143.646
21
-121.452
0
LINE
8
BLACK
6
CONTINUOUS
10
143.646
20
-121.452
11
144.212
21
-121.718
0
LINE
8
BLACK
6
CONTINUOUS
10
144.212
20
-121.718
11
144.694
21
-122.117
0
LINE
8
BLACK
6
CONTINUOUS
10
144.694
20
-122.117
11
145.061
21
-122.623
0
LINE
8
BLACK
6
CONTINUOUS
10
145.061
20
-122.623
11
145.292
21
-123.205
0
LINE
8
BLACK
6
CONTINUOUS
10
145.292
20
-123.205
11
145.37
21
-123.825
0
LINE
8
BLACK
6
CONTINUOUS
10
145.37
20
-123.825
11
145.292
21
-124.445
0
LINE
8
BLACK
6
CONTINUOUS
10
145.292
20
-124.445
11
145.061
21
-125.027
0
LINE
8
BLACK
6
CONTINUOUS
10
145
20
-122.657
11
144.643
21
-122.165
0
LINE
8
BLACK
6
CONTINUOUS
10
144.643
20
-122.165
11
144.174
21
-121.778
0
LINE
8
BLACK
6
CONTINUOUS
10
144.174
20
-121.778
11
143.624
21
-121.519
0
LINE
8
BLACK
6
CONTINUOUS
10
143.624
20
-121.519
11
143.027
21
-121.405
0
LINE
8
BLACK
6
CONTINUOUS
10
143.027
20
-121.405
11
142.421
21
-121.443
0
LINE
8
BLACK
6
CONTINUOUS
10
142.421
20
-121.443
11
141.842
21
-121.631
0
LINE
8
BLACK
6
CONTINUOUS
10
141.842
20
-121.631
11
141.329
21
-121.957
0
LINE
8
BLACK
6
CONTINUOUS
10
141.329
20
-121.957
11
140.913
21
-122.4
0
LINE
8
BLACK
6
CONTINUOUS
10
140.913
20
-122.4
11
140.62
21
-122.932
0
LINE
8
BLACK
6
CONTINUOUS
10
140.62
20
-122.932
11
140.469
21
-123.521
0
LINE
8
BLACK
6
CONTINUOUS
10
140.469
20
-123.521
11
140.469
21
-124.129
0
LINE
8
BLACK
6
CONTINUOUS
10
140.469
20
-124.129
11
140.62
21
-124.718
0
LINE
8
BLACK
6
CONTINUOUS
10
140.62
20
-124.718
11
140.913
21
-125.25
0
LINE
8
BLACK
6
CONTINUOUS
10
140.913
20
-125.25
11
141.329
21
-125.693
0
LINE
8
BLACK
6
CONTINUOUS
10
141.329
20
-125.693
11
141.842
21
-126.019
0
LINE
8
BLACK
6
CONTINUOUS
10
141.842
20
-126.019
11
142.421
21
-126.207
0
LINE
8
BLACK
6
CONTINUOUS
10
142.421
20
-126.207
11
143.027
21
-126.245
0
LINE
8
BLACK
6
CONTINUOUS
10
143.027
20
-126.245
11
143.624
21
-126.131
0
LINE
8
BLACK
6
CONTINUOUS
10
143.624
20
-126.131
11
144.174
21
-125.872
0
LINE
8
BLACK
6
CONTINUOUS
10
144.174
20
-125.872
11
144.643
21
-125.485
0
LINE
8
BLACK
6
CONTINUOUS
10
144.643
20
-125.485
11
145
21
-124.993
0
LINE
8
BLACK
6
CONTINUOUS
10
145
20
-124.993
11
145.224
21
-124.428
0
LINE
8
BLACK
6
CONTINUOUS
10
145.224
20
-124.428
11
145.3
21
-123.825
0
LINE
8
BLACK
6
CONTINUOUS
10
145.3
20
-123.825
11
145.224
21
-123.222
0
LINE
8
BLACK
6
CONTINUOUS
10
145.224
20
-123.222
11
145
21
-122.657
0
LINE
8
BLACK
6
CONTINUOUS
10
202.211
20
-117.407
11
201.844
21
-117.913
0
LINE
8
BLACK
6
CONTINUOUS
10
201.844
20
-117.913
11
201.362
21
-118.312
0
LINE
8
BLACK
6
CONTINUOUS
10
201.362
20
-118.312
11
200.796
21
-118.578
0
LINE
8
BLACK
6
CONTINUOUS
10
200.796
20
-118.578
11
200.182
21
-118.695
0
LINE
8
BLACK
6
CONTINUOUS
10
200.182
20
-118.695
11
199.557
21
-118.656
0
LINE
8
BLACK
6
CONTINUOUS
10
199.557
20
-118.656
11
198.963
21
-118.463
0
LINE
8
BLACK
6
CONTINUOUS
10
198.963
20
-118.463
11
198.435
21
-118.127
0
LINE
8
BLACK
6
CONTINUOUS
10
198.435
20
-118.127
11
198.007
21
-117.672
0
LINE
8
BLACK
6
CONTINUOUS
10
198.007
20
-117.672
11
197.705
21
-117.123
0
LINE
8
BLACK
6
CONTINUOUS
10
197.705
20
-117.123
11
197.55
21
-116.518
0
LINE
8
BLACK
6
CONTINUOUS
10
197.55
20
-116.518
11
197.55
21
-115.892
0
LINE
8
BLACK
6
CONTINUOUS
10
197.55
20
-115.892
11
197.705
21
-115.287
0
LINE
8
BLACK
6
CONTINUOUS
10
197.705
20
-115.287
11
198.007
21
-114.738
0
LINE
8
BLACK
6
CONTINUOUS
10
198.007
20
-114.738
11
198.435
21
-114.283
0
LINE
8
BLACK
6
CONTINUOUS
10
198.435
20
-114.283
11
198.963
21
-113.947
0
LINE
8
BLACK
6
CONTINUOUS
10
198.963
20
-113.947
11
199.557
21
-113.754
0
LINE
8
BLACK
6
CONTINUOUS
10
199.557
20
-113.754
11
200.182
21
-113.715
0
LINE
8
BLACK
6
CONTINUOUS
10
200.182
20
-113.715
11
200.796
21
-113.832
0
LINE
8
BLACK
6
CONTINUOUS
10
200.796
20
-113.832
11
201.362
21
-114.098
0
LINE
8
BLACK
6
CONTINUOUS
10
201.362
20
-114.098
11
201.844
21
-114.497
0
LINE
8
BLACK
6
CONTINUOUS
10
201.844
20
-114.497
11
202.211
21
-115.003
0
LINE
8
BLACK
6
CONTINUOUS
10
202.211
20
-115.003
11
202.442
21
-115.585
0
LINE
8
BLACK
6
CONTINUOUS
10
202.442
20
-115.585
11
202.52
21
-116.205
0
LINE
8
BLACK
6
CONTINUOUS
10
202.52
20
-116.205
11
202.442
21
-116.825
0
LINE
8
BLACK
6
CONTINUOUS
10
202.442
20
-116.825
11
202.211
21
-117.407
0
LINE
8
BLACK
6
CONTINUOUS
10
202.15
20
-115.037
11
201.793
21
-114.545
0
LINE
8
BLACK
6
CONTINUOUS
10
201.793
20
-114.545
11
201.324
21
-114.158
0
LINE
8
BLACK
6
CONTINUOUS
10
201.324
20
-114.158
11
200.774
21
-113.899
0
LINE
8
BLACK
6
CONTINUOUS
10
200.774
20
-113.899
11
200.177
21
-113.785
0
LINE
8
BLACK
6
CONTINUOUS
10
200.177
20
-113.785
11
199.571
21
-113.823
0
LINE
8
BLACK
6
CONTINUOUS
10
199.571
20
-113.823
11
198.992
21
-114.011
0
LINE
8
BLACK
6
CONTINUOUS
10
198.992
20
-114.011
11
198.479
21
-114.337
0
LINE
8
BLACK
6
CONTINUOUS
10
198.479
20
-114.337
11
198.063
21
-114.78
0
LINE
8
BLACK
6
CONTINUOUS
10
198.063
20
-114.78
11
197.77
21
-115.312
0
LINE
8
BLACK
6
CONTINUOUS
10
197.77
20
-115.312
11
197.619
21
-115.901
0
LINE
8
BLACK
6
CONTINUOUS
10
197.619
20
-115.901
11
197.619
21
-116.509
0
LINE
8
BLACK
6
CONTINUOUS
10
197.619
20
-116.509
11
197.77
21
-117.098
0
LINE
8
BLACK
6
CONTINUOUS
10
197.77
20
-117.098
11
198.063
21
-117.63
0
LINE
8
BLACK
6
CONTINUOUS
10
198.063
20
-117.63
11
198.479
21
-118.073
0
LINE
8
BLACK
6
CONTINUOUS
10
198.479
20
-118.073
11
198.992
21
-118.399
0
LINE
8
BLACK
6
CONTINUOUS
10
198.992
20
-118.399
11
199.571
21
-118.587
0
LINE
8
BLACK
6
CONTINUOUS
10
199.571
20
-118.587
11
200.177
21
-118.625
0
LINE
8
BLACK
6
CONTINUOUS
10
200.177
20
-118.625
11
200.774
21
-118.511
0
LINE
8
BLACK
6
CONTINUOUS
10
200.774
20
-118.511
11
201.324
21
-118.252
0
LINE
8
BLACK
6
CONTINUOUS
10
201.324
20
-118.252
11
201.793
21
-117.865
0
LINE
8
BLACK
6
CONTINUOUS
10
201.793
20
-117.865
11
202.15
21
-117.373
0
LINE
8
BLACK
6
CONTINUOUS
10
202.15
20
-117.373
11
202.374
21
-116.808
0
LINE
8
BLACK
6
CONTINUOUS
10
202.374
20
-116.808
11
202.45
21
-116.205
0
LINE
8
BLACK
6
CONTINUOUS
10
202.45
20
-116.205
11
202.374
21
-115.602
0
LINE
8
BLACK
6
CONTINUOUS
10
202.374
20
-115.602
11
202.15
21
-115.037
0
LINE
8
BLACK
6
CONTINUOUS
10
87.2764
20
-111.692
11
86.9088
21
-112.198
0
LINE
8
BLACK
6
CONTINUOUS
10
86.9088
20
-112.198
11
86.4269
21
-112.597
0
LINE
8
BLACK
6
CONTINUOUS
10
86.4269
20
-112.597
11
85.861
21
-112.863
0
LINE
8
BLACK
6
CONTINUOUS
10
85.861
20
-112.863
11
85.2467
21
-112.98
0
LINE
8
BLACK
6
CONTINUOUS
10
85.2467
20
-112.98
11
84.6225
21
-112.941
0
LINE
8
BLACK
6
CONTINUOUS
10
84.6225
20
-112.941
11
84.0277
21
-112.748
0
LINE
8
BLACK
6
CONTINUOUS
10
84.0277
20
-112.748
11
83.4996
21
-112.412
0
LINE
8
BLACK
6
CONTINUOUS
10
83.4996
20
-112.412
11
83.0715
21
-111.957
0
LINE
8
BLACK
6
CONTINUOUS
10
83.0715
20
-111.957
11
82.7702
21
-111.408
0
LINE
8
BLACK
6
CONTINUOUS
10
82.7702
20
-111.408
11
82.6147
21
-110.803
0
LINE
8
BLACK
6
CONTINUOUS
10
82.6147
20
-110.803
11
82.6147
21
-110.177
0
LINE
8
BLACK
6
CONTINUOUS
10
82.6147
20
-110.177
11
82.7702
21
-109.572
0
LINE
8
BLACK
6
CONTINUOUS
10
82.7702
20
-109.572
11
83.0715
21
-109.023
0
LINE
8
BLACK
6
CONTINUOUS
10
83.0715
20
-109.023
11
83.4996
21
-108.568
0
LINE
8
BLACK
6
CONTINUOUS
10
83.4996
20
-108.568
11
84.0277
21
-108.232
0
LINE
8
BLACK
6
CONTINUOUS
10
84.0277
20
-108.232
11
84.6225
21
-108.039
0
LINE
8
BLACK
6
CONTINUOUS
10
84.6225
20
-108.039
11
85.2467
21
-108
0
LINE
8
BLACK
6
CONTINUOUS
10
85.2467
20
-108
11
85.861
21
-108.117
0
LINE
8
BLACK
6
CONTINUOUS
10
85.861
20
-108.117
11
86.4269
21
-108.383
0
LINE
8
BLACK
6
CONTINUOUS
10
86.4269
20
-108.383
11
86.9088
21
-108.782
0
LINE
8
BLACK
6
CONTINUOUS
10
86.9088
20
-108.782
11
87.2764
21
-109.288
0
LINE
8
BLACK
6
CONTINUOUS
10
87.2764
20
-109.288
11
87.5066
21
-109.87
0
LINE
8
BLACK
6
CONTINUOUS
10
87.5066
20
-109.87
11
87.585
21
-110.49
0
LINE
8
BLACK
6
CONTINUOUS
10
87.585
20
-110.49
11
87.5066
21
-111.11
0
LINE
8
BLACK
6
CONTINUOUS
10
87.5066
20
-111.11
11
87.2764
21
-111.692
0
LINE
8
BLACK
6
CONTINUOUS
10
87.215
20
-109.322
11
86.8577
21
-108.83
0
LINE
8
BLACK
6
CONTINUOUS
10
86.8577
20
-108.83
11
86.3894
21
-108.443
0
LINE
8
BLACK
6
CONTINUOUS
10
86.3894
20
-108.443
11
85.8394
21
-108.184
0
LINE
8
BLACK
6
CONTINUOUS
10
85.8394
20
-108.184
11
85.2423
21
-108.07
0
LINE
8
BLACK
6
CONTINUOUS
10
85.2423
20
-108.07
11
84.6356
21
-108.108
0
LINE
8
BLACK
6
CONTINUOUS
10
84.6356
20
-108.108
11
84.0575
21
-108.296
0
LINE
8
BLACK
6
CONTINUOUS
10
84.0575
20
-108.296
11
83.5442
21
-108.622
0
LINE
8
BLACK
6
CONTINUOUS
10
83.5442
20
-108.622
11
83.1281
21
-109.065
0
LINE
8
BLACK
6
CONTINUOUS
10
83.1281
20
-109.065
11
82.8353
21
-109.597
0
LINE
8
BLACK
6
CONTINUOUS
10
82.8353
20
-109.597
11
82.6841
21
-110.186
0
LINE
8
BLACK
6
CONTINUOUS
10
82.6841
20
-110.186
11
82.6841
21
-110.794
0
LINE
8
BLACK
6
CONTINUOUS
10
82.6841
20
-110.794
11
82.8353
21
-111.383
0
LINE
8
BLACK
6
CONTINUOUS
10
82.8353
20
-111.383
11
83.1281
21
-111.915
0
LINE
8
BLACK
6
CONTINUOUS
10
83.1281
20
-111.915
11
83.5442
21
-112.358
0
LINE
8
BLACK
6
CONTINUOUS
10
83.5442
20
-112.358
11
84.0575
21
-112.684
0
LINE
8
BLACK
6
CONTINUOUS
10
84.0575
20
-112.684
11
84.6356
21
-112.872
0
LINE
8
BLACK
6
CONTINUOUS
10
84.6356
20
-112.872
11
85.2423
21
-112.91
0
LINE
8
BLACK
6
CONTINUOUS
10
85.2423
20
-112.91
11
85.8394
21
-112.796
0
LINE
8
BLACK
6
CONTINUOUS
10
85.8394
20
-112.796
11
86.3894
21
-112.537
0
LINE
8
BLACK
6
CONTINUOUS
10
86.3894
20
-112.537
11
86.8577
21
-112.15
0
LINE
8
BLACK
6
CONTINUOUS
10
86.8577
20
-112.15
11
87.215
21
-111.658
0
LINE
8
BLACK
6
CONTINUOUS
10
87.215
20
-111.658
11
87.4388
21
-111.093
0
LINE
8
BLACK
6
CONTINUOUS
10
87.4388
20
-111.093
11
87.515
21
-110.49
0
LINE
8
BLACK
6
CONTINUOUS
10
87.515
20
-110.49
11
87.4388
21
-109.887
0
LINE
8
BLACK
6
CONTINUOUS
10
87.4388
20
-109.887
11
87.215
21
-109.322
0
LINE
8
BLACK
6
CONTINUOUS
10
102.516
20
-106.612
11
102.149
21
-107.118
0
LINE
8
BLACK
6
CONTINUOUS
10
102.149
20
-107.118
11
101.667
21
-107.517
0
LINE
8
BLACK
6
CONTINUOUS
10
101.667
20
-107.517
11
101.101
21
-107.783
0
LINE
8
BLACK
6
CONTINUOUS
10
101.101
20
-107.783
11
100.487
21
-107.9
0
LINE
8
BLACK
6
CONTINUOUS
10
100.487
20
-107.9
11
99.8625
21
-107.861
0
LINE
8
BLACK
6
CONTINUOUS
10
99.8625
20
-107.861
11
99.2677
21
-107.668
0
LINE
8
BLACK
6
CONTINUOUS
10
99.2677
20
-107.668
11
98.7396
21
-107.332
0
LINE
8
BLACK
6
CONTINUOUS
10
98.7396
20
-107.332
11
98.3115
21
-106.877
0
LINE
8
BLACK
6
CONTINUOUS
10
98.3115
20
-106.877
11
98.0102
21
-106.328
0
LINE
8
BLACK
6
CONTINUOUS
10
98.0102
20
-106.328
11
97.8547
21
-105.723
0
LINE
8
BLACK
6
CONTINUOUS
10
97.8547
20
-105.723
11
97.8547
21
-105.097
0
LINE
8
BLACK
6
CONTINUOUS
10
97.8547
20
-105.097
11
98.0102
21
-104.492
0
LINE
8
BLACK
6
CONTINUOUS
10
98.0102
20
-104.492
11
98.3115
21
-103.943
0
LINE
8
BLACK
6
CONTINUOUS
10
98.3115
20
-103.943
11
98.7396
21
-103.488
0
LINE
8
BLACK
6
CONTINUOUS
10
98.7396
20
-103.488
11
99.2677
21
-103.152
0
LINE
8
BLACK
6
CONTINUOUS
10
99.2677
20
-103.152
11
99.8625
21
-102.959
0
LINE
8
BLACK
6
CONTINUOUS
10
99.8625
20
-102.959
11
100.487
21
-102.92
0
LINE
8
BLACK
6
CONTINUOUS
10
100.487
20
-102.92
11
101.101
21
-103.037
0
LINE
8
BLACK
6
CONTINUOUS
10
101.101
20
-103.037
11
101.667
21
-103.303
0
LINE
8
BLACK
6
CONTINUOUS
10
101.667
20
-103.303
11
102.149
21
-103.702
0
LINE
8
BLACK
6
CONTINUOUS
10
102.149
20
-103.702
11
102.516
21
-104.208
0
LINE
8
BLACK
6
CONTINUOUS
10
102.516
20
-104.208
11
102.747
21
-104.79
0
LINE
8
BLACK
6
CONTINUOUS
10
102.747
20
-104.79
11
102.825
21
-105.41
0
LINE
8
BLACK
6
CONTINUOUS
10
102.825
20
-105.41
11
102.747
21
-106.03
0
LINE
8
BLACK
6
CONTINUOUS
10
102.747
20
-106.03
11
102.516
21
-106.612
0
LINE
8
BLACK
6
CONTINUOUS
10
102.455
20
-104.242
11
102.098
21
-103.75
0
LINE
8
BLACK
6
CONTINUOUS
10
102.098
20
-103.75
11
101.629
21
-103.363
0
LINE
8
BLACK
6
CONTINUOUS
10
101.629
20
-103.363
11
101.079
21
-103.104
0
LINE
8
BLACK
6
CONTINUOUS
10
101.079
20
-103.104
11
100.482
21
-102.99
0
LINE
8
BLACK
6
CONTINUOUS
10
100.482
20
-102.99
11
99.8756
21
-103.028
0
LINE
8
BLACK
6
CONTINUOUS
10
99.8756
20
-103.028
11
99.2975
21
-103.216
0
LINE
8
BLACK
6
CONTINUOUS
10
99.2975
20
-103.216
11
98.7842
21
-103.542
0
LINE
8
BLACK
6
CONTINUOUS
10
98.7842
20
-103.542
11
98.3681
21
-103.985
0
LINE
8
BLACK
6
CONTINUOUS
10
98.3681
20
-103.985
11
98.0753
21
-104.517
0
LINE
8
BLACK
6
CONTINUOUS
10
98.0753
20
-104.517
11
97.9241
21
-105.106
0
LINE
8
BLACK
6
CONTINUOUS
10
97.9241
20
-105.106
11
97.9241
21
-105.714
0
LINE
8
BLACK
6
CONTINUOUS
10
97.9241
20
-105.714
11
98.0753
21
-106.303
0
LINE
8
BLACK
6
CONTINUOUS
10
98.0753
20
-106.303
11
98.3681
21
-106.835
0
LINE
8
BLACK
6
CONTINUOUS
10
98.3681
20
-106.835
11
98.7842
21
-107.278
0
LINE
8
BLACK
6
CONTINUOUS
10
98.7842
20
-107.278
11
99.2975
21
-107.604
0
LINE
8
BLACK
6
CONTINUOUS
10
99.2975
20
-107.604
11
99.8756
21
-107.792
0
LINE
8
BLACK
6
CONTINUOUS
10
99.8756
20
-107.792
11
100.482
21
-107.83
0
LINE
8
BLACK
6
CONTINUOUS
10
100.482
20
-107.83
11
101.079
21
-107.716
0
LINE
8
BLACK
6
CONTINUOUS
10
101.079
20
-107.716
11
101.629
21
-107.457
0
LINE
8
BLACK
6
CONTINUOUS
10
101.629
20
-107.457
11
102.098
21
-107.07
0
LINE
8
BLACK
6
CONTINUOUS
10
102.098
20
-107.07
11
102.455
21
-106.578
0
LINE
8
BLACK
6
CONTINUOUS
10
102.455
20
-106.578
11
102.679
21
-106.013
0
LINE
8
BLACK
6
CONTINUOUS
10
102.679
20
-106.013
11
102.755
21
-105.41
0
LINE
8
BLACK
6
CONTINUOUS
10
102.755
20
-105.41
11
102.679
21
-104.807
0
LINE
8
BLACK
6
CONTINUOUS
10
102.679
20
-104.807
11
102.455
21
-104.242
0
LINE
8
BLACK
6
CONTINUOUS
10
126.011
20
-86.927
11
125.644
21
-87.4329
0
LINE
8
BLACK
6
CONTINUOUS
10
125.644
20
-87.4329
11
125.162
21
-87.8316
0
LINE
8
BLACK
6
CONTINUOUS
10
125.162
20
-87.8316
11
124.596
21
-88.0979
0
LINE
8
BLACK
6
CONTINUOUS
10
124.596
20
-88.0979
11
123.982
21
-88.2151
0
LINE
8
BLACK
6
CONTINUOUS
10
123.982
20
-88.2151
11
123.357
21
-88.1758
0
LINE
8
BLACK
6
CONTINUOUS
10
123.357
20
-88.1758
11
122.763
21
-87.9825
0
LINE
8
BLACK
6
CONTINUOUS
10
122.763
20
-87.9825
11
122.235
21
-87.6474
0
LINE
8
BLACK
6
CONTINUOUS
10
122.235
20
-87.6474
11
121.807
21
-87.1915
0
LINE
8
BLACK
6
CONTINUOUS
10
121.807
20
-87.1915
11
121.505
21
-86.6435
0
LINE
8
BLACK
6
CONTINUOUS
10
121.505
20
-86.6435
11
121.35
21
-86.0377
0
LINE
8
BLACK
6
CONTINUOUS
10
121.35
20
-86.0377
11
121.35
21
-85.4123
0
LINE
8
BLACK
6
CONTINUOUS
10
121.35
20
-85.4123
11
121.505
21
-84.8065
0
LINE
8
BLACK
6
CONTINUOUS
10
121.505
20
-84.8065
11
121.807
21
-84.2585
0
LINE
8
BLACK
6
CONTINUOUS
10
121.807
20
-84.2585
11
122.235
21
-83.8026
0
LINE
8
BLACK
6
CONTINUOUS
10
122.235
20
-83.8026
11
122.763
21
-83.4675
0
LINE
8
BLACK
6
CONTINUOUS
10
122.763
20
-83.4675
11
123.357
21
-83.2742
0
LINE
8
BLACK
6
CONTINUOUS
10
123.357
20
-83.2742
11
123.982
21
-83.2349
0
LINE
8
BLACK
6
CONTINUOUS
10
123.982
20
-83.2349
11
124.596
21
-83.3521
0
LINE
8
BLACK
6
CONTINUOUS
10
124.596
20
-83.3521
11
125.162
21
-83.6184
0
LINE
8
BLACK
6
CONTINUOUS
10
125.162
20
-83.6184
11
125.644
21
-84.0171
0
LINE
8
BLACK
6
CONTINUOUS
10
125.644
20
-84.0171
11
126.011
21
-84.523
0
LINE
8
BLACK
6
CONTINUOUS
10
126.011
20
-84.523
11
126.242
21
-85.1045
0
LINE
8
BLACK
6
CONTINUOUS
10
126.242
20
-85.1045
11
126.32
21
-85.725
0
LINE
8
BLACK
6
CONTINUOUS
10
126.32
20
-85.725
11
126.242
21
-86.3455
0
LINE
8
BLACK
6
CONTINUOUS
10
126.242
20
-86.3455
11
126.011
21
-86.927
0
LINE
8
BLACK
6
CONTINUOUS
10
125.95
20
-84.5567
11
125.593
21
-84.065
0
LINE
8
BLACK
6
CONTINUOUS
10
125.593
20
-84.065
11
125.124
21
-83.6775
0
LINE
8
BLACK
6
CONTINUOUS
10
125.124
20
-83.6775
11
124.574
21
-83.4187
0
LINE
8
BLACK
6
CONTINUOUS
10
124.574
20
-83.4187
11
123.977
21
-83.3048
0
LINE
8
BLACK
6
CONTINUOUS
10
123.977
20
-83.3048
11
123.371
21
-83.343
0
LINE
8
BLACK
6
CONTINUOUS
10
123.371
20
-83.343
11
122.792
21
-83.5308
0
LINE
8
BLACK
6
CONTINUOUS
10
122.792
20
-83.5308
11
122.279
21
-83.8565
0
LINE
8
BLACK
6
CONTINUOUS
10
122.279
20
-83.8565
11
121.863
21
-84.2996
0
LINE
8
BLACK
6
CONTINUOUS
10
121.863
20
-84.2996
11
121.57
21
-84.8323
0
LINE
8
BLACK
6
CONTINUOUS
10
121.57
20
-84.8323
11
121.419
21
-85.4211
0
LINE
8
BLACK
6
CONTINUOUS
10
121.419
20
-85.4211
11
121.419
21
-86.0289
0
LINE
8
BLACK
6
CONTINUOUS
10
121.419
20
-86.0289
11
121.57
21
-86.6177
0
LINE
8
BLACK
6
CONTINUOUS
10
121.57
20
-86.6177
11
121.863
21
-87.1504
0
LINE
8
BLACK
6
CONTINUOUS
10
121.863
20
-87.1504
11
122.279
21
-87.5935
0
LINE
8
BLACK
6
CONTINUOUS
10
122.279
20
-87.5935
11
122.792
21
-87.9192
0
LINE
8
BLACK
6
CONTINUOUS
10
122.792
20
-87.9192
11
123.371
21
-88.107
0
LINE
8
BLACK
6
CONTINUOUS
10
123.371
20
-88.107
11
123.977
21
-88.1452
0
LINE
8
BLACK
6
CONTINUOUS
10
123.977
20
-88.1452
11
124.574
21
-88.0313
0
LINE
8
BLACK
6
CONTINUOUS
10
124.574
20
-88.0313
11
125.124
21
-87.7725
0
LINE
8
BLACK
6
CONTINUOUS
10
125.124
20
-87.7725
11
125.593
21
-87.385
0
LINE
8
BLACK
6
CONTINUOUS
10
125.593
20
-87.385
11
125.95
21
-86.8933
0
LINE
8
BLACK
6
CONTINUOUS
10
125.95
20
-86.8933
11
126.174
21
-86.3281
0
LINE
8
BLACK
6
CONTINUOUS
10
126.174
20
-86.3281
11
126.25
21
-85.725
0
LINE
8
BLACK
6
CONTINUOUS
10
126.25
20
-85.725
11
126.174
21
-85.1219
0
LINE
8
BLACK
6
CONTINUOUS
10
126.174
20
-85.1219
11
125.95
21
-84.5567
0
LINE
8
BLACK
6
CONTINUOUS
10
202.211
20
-79.307
11
201.844
21
-79.8129
0
LINE
8
BLACK
6
CONTINUOUS
10
201.844
20
-79.8129
11
201.362
21
-80.2116
0
LINE
8
BLACK
6
CONTINUOUS
10
201.362
20
-80.2116
11
200.796
21
-80.4779
0
LINE
8
BLACK
6
CONTINUOUS
10
200.796
20
-80.4779
11
200.182
21
-80.5951
0
LINE
8
BLACK
6
CONTINUOUS
10
200.182
20
-80.5951
11
199.557
21
-80.5558
0
LINE
8
BLACK
6
CONTINUOUS
10
199.557
20
-80.5558
11
198.963
21
-80.3625
0
LINE
8
BLACK
6
CONTINUOUS
10
198.963
20
-80.3625
11
198.435
21
-80.0274
0
LINE
8
BLACK
6
CONTINUOUS
10
198.435
20
-80.0274
11
198.007
21
-79.5715
0
LINE
8
BLACK
6
CONTINUOUS
10
198.007
20
-79.5715
11
197.705
21
-79.0235
0
LINE
8
BLACK
6
CONTINUOUS
10
197.705
20
-79.0235
11
197.55
21
-78.4177
0
LINE
8
BLACK
6
CONTINUOUS
10
197.55
20
-78.4177
11
197.55
21
-77.7923
0
LINE
8
BLACK
6
CONTINUOUS
10
197.55
20
-77.7923
11
197.705
21
-77.1865
0
LINE
8
BLACK
6
CONTINUOUS
10
197.705
20
-77.1865
11
198.007
21
-76.6385
0
LINE
8
BLACK
6
CONTINUOUS
10
198.007
20
-76.6385
11
198.435
21
-76.1826
0
LINE
8
BLACK
6
CONTINUOUS
10
198.435
20
-76.1826
11
198.963
21
-75.8475
0
LINE
8
BLACK
6
CONTINUOUS
10
198.963
20
-75.8475
11
199.557
21
-75.6542
0
LINE
8
BLACK
6
CONTINUOUS
10
199.557
20
-75.6542
11
200.182
21
-75.6149
0
LINE
8
BLACK
6
CONTINUOUS
10
200.182
20
-75.6149
11
200.796
21
-75.7321
0
LINE
8
BLACK
6
CONTINUOUS
10
200.796
20
-75.7321
11
201.362
21
-75.9984
0
LINE
8
BLACK
6
CONTINUOUS
10
201.362
20
-75.9984
11
201.844
21
-76.3971
0
LINE
8
BLACK
6
CONTINUOUS
10
201.844
20
-76.3971
11
202.211
21
-76.903
0
LINE
8
BLACK
6
CONTINUOUS
10
202.211
20
-76.903
11
202.442
21
-77.4845
0
LINE
8
BLACK
6
CONTINUOUS
10
202.442
20
-77.4845
11
202.52
21
-78.105
0
LINE
8
BLACK
6
CONTINUOUS
10
202.52
20
-78.105
11
202.442
21
-78.7255
0
LINE
8
BLACK
6
CONTINUOUS
10
202.442
20
-78.7255
11
202.211
21
-79.307
0
LINE
8
BLACK
6
CONTINUOUS
10
202.15
20
-76.9367
11
201.793
21
-76.445
0
LINE
8
BLACK
6
CONTINUOUS
10
201.793
20
-76.445
11
201.324
21
-76.0575
0
LINE
8
BLACK
6
CONTINUOUS
10
201.324
20
-76.0575
11
200.774
21
-75.7987
0
LINE
8
BLACK
6
CONTINUOUS
10
200.774
20
-75.7987
11
200.177
21
-75.6848
0
LINE
8
BLACK
6
CONTINUOUS
10
200.177
20
-75.6848
11
199.571
21
-75.723
0
LINE
8
BLACK
6
CONTINUOUS
10
199.571
20
-75.723
11
198.992
21
-75.9108
0
LINE
8
BLACK
6
CONTINUOUS
10
198.992
20
-75.9108
11
198.479
21
-76.2365
0
LINE
8
BLACK
6
CONTINUOUS
10
198.479
20
-76.2365
11
198.063
21
-76.6796
0
LINE
8
BLACK
6
CONTINUOUS
10
198.063
20
-76.6796
11
197.77
21
-77.2123
0
LINE
8
BLACK
6
CONTINUOUS
10
197.77
20
-77.2123
11
197.619
21
-77.8011
0
LINE
8
BLACK
6
CONTINUOUS
10
197.619
20
-77.8011
11
197.619
21
-78.4089
0
LINE
8
BLACK
6
CONTINUOUS
10
197.619
20
-78.4089
11
197.77
21
-78.9977
0
LINE
8
BLACK
6
CONTINUOUS
10
197.77
20
-78.9977
11
198.063
21
-79.5304
0
LINE
8
BLACK
6
CONTINUOUS
10
198.063
20
-79.5304
11
198.479
21
-79.9735
0
LINE
8
BLACK
6
CONTINUOUS
10
198.479
20
-79.9735
11
198.992
21
-80.2992
0
LINE
8
BLACK
6
CONTINUOUS
10
198.992
20
-80.2992
11
199.571
21
-80.487
0
LINE
8
BLACK
6
CONTINUOUS
10
199.571
20
-80.487
11
200.177
21
-80.5252
0
LINE
8
BLACK
6
CONTINUOUS
10
200.177
20
-80.5252
11
200.774
21
-80.4113
0
LINE
8
BLACK
6
CONTINUOUS
10
200.774
20
-80.4113
11
201.324
21
-80.1525
0
LINE
8
BLACK
6
CONTINUOUS
10
201.324
20
-80.1525
11
201.793
21
-79.765
0
LINE
8
BLACK
6
CONTINUOUS
10
201.793
20
-79.765
11
202.15
21
-79.2733
0
LINE
8
BLACK
6
CONTINUOUS
10
202.15
20
-79.2733
11
202.374
21
-78.7081
0
LINE
8
BLACK
6
CONTINUOUS
10
202.374
20
-78.7081
11
202.45
21
-78.105
0
LINE
8
BLACK
6
CONTINUOUS
10
202.45
20
-78.105
11
202.374
21
-77.5019
0
LINE
8
BLACK
6
CONTINUOUS
10
202.374
20
-77.5019
11
202.15
21
-76.9367
0
LINE
8
BLACK
6
CONTINUOUS
10
165.381
20
-65.972
11
165.014
21
-66.4779
0
LINE
8
BLACK
6
CONTINUOUS
10
165.014
20
-66.4779
11
164.532
21
-66.8766
0
LINE
8
BLACK
6
CONTINUOUS
10
164.532
20
-66.8766
11
163.966
21
-67.1429
0
LINE
8
BLACK
6
CONTINUOUS
10
163.966
20
-67.1429
11
163.352
21
-67.2601
0
LINE
8
BLACK
6
CONTINUOUS
10
163.352
20
-67.2601
11
162.727
21
-67.2208
0
LINE
8
BLACK
6
CONTINUOUS
10
162.727
20
-67.2208
11
162.133
21
-67.0275
0
LINE
8
BLACK
6
CONTINUOUS
10
162.133
20
-67.0275
11
161.605
21
-66.6924
0
LINE
8
BLACK
6
CONTINUOUS
10
161.605
20
-66.6924
11
161.177
21
-66.2365
0
LINE
8
BLACK
6
CONTINUOUS
10
161.177
20
-66.2365
11
160.875
21
-65.6885
0
LINE
8
BLACK
6
CONTINUOUS
10
160.875
20
-65.6885
11
160.72
21
-65.0827
0
LINE
8
BLACK
6
CONTINUOUS
10
160.72
20
-65.0827
11
160.72
21
-64.4573
0
LINE
8
BLACK
6
CONTINUOUS
10
160.72
20
-64.4573
11
160.875
21
-63.8515
0
LINE
8
BLACK
6
CONTINUOUS
10
160.875
20
-63.8515
11
161.177
21
-63.3035
0
LINE
8
BLACK
6
CONTINUOUS
10
161.177
20
-63.3035
11
161.605
21
-62.8476
0
LINE
8
BLACK
6
CONTINUOUS
10
161.605
20
-62.8476
11
162.133
21
-62.5125
0
LINE
8
BLACK
6
CONTINUOUS
10
162.133
20
-62.5125
11
162.727
21
-62.3192
0
LINE
8
BLACK
6
CONTINUOUS
10
162.727
20
-62.3192
11
163.352
21
-62.2799
0
LINE
8
BLACK
6
CONTINUOUS
10
163.352
20
-62.2799
11
163.966
21
-62.3971
0
LINE
8
BLACK
6
CONTINUOUS
10
163.966
20
-62.3971
11
164.532
21
-62.6634
0
LINE
8
BLACK
6
CONTINUOUS
10
164.532
20
-62.6634
11
165.014
21
-63.0621
0
LINE
8
BLACK
6
CONTINUOUS
10
165.014
20
-63.0621
11
165.381
21
-63.568
0
LINE
8
BLACK
6
CONTINUOUS
10
165.381
20
-63.568
11
165.612
21
-64.1495
0
LINE
8
BLACK
6
CONTINUOUS
10
165.612
20
-64.1495
11
165.69
21
-64.77
0
LINE
8
BLACK
6
CONTINUOUS
10
165.69
20
-64.77
11
165.612
21
-65.3905
0
LINE
8
BLACK
6
CONTINUOUS
10
165.612
20
-65.3905
11
165.381
21
-65.972
0
LINE
8
BLACK
6
CONTINUOUS
10
165.32
20
-63.6017
11
164.963
21
-63.11
0
LINE
8
BLACK
6
CONTINUOUS
10
164.963
20
-63.11
11
164.494
21
-62.7225
0
LINE
8
BLACK
6
CONTINUOUS
10
164.494
20
-62.7225
11
163.944
21
-62.4637
0
LINE
8
BLACK
6
CONTINUOUS
10
163.944
20
-62.4637
11
163.347
21
-62.3498
0
LINE
8
BLACK
6
CONTINUOUS
10
163.347
20
-62.3498
11
162.741
21
-62.388
0
LINE
8
BLACK
6
CONTINUOUS
10
162.741
20
-62.388
11
162.162
21
-62.5758
0
LINE
8
BLACK
6
CONTINUOUS
10
162.162
20
-62.5758
11
161.649
21
-62.9015
0
LINE
8
BLACK
6
CONTINUOUS
10
161.649
20
-62.9015
11
161.233
21
-63.3446
0
LINE
8
BLACK
6
CONTINUOUS
10
161.233
20
-63.3446
11
160.94
21
-63.8773
0
LINE
8
BLACK
6
CONTINUOUS
10
160.94
20
-63.8773
11
160.789
21
-64.4661
0
LINE
8
BLACK
6
CONTINUOUS
10
160.789
20
-64.4661
11
160.789
21
-65.0739
0
LINE
8
BLACK
6
CONTINUOUS
10
160.789
20
-65.0739
11
160.94
21
-65.6627
0
LINE
8
BLACK
6
CONTINUOUS
10
160.94
20
-65.6627
11
161.233
21
-66.1954
0
LINE
8
BLACK
6
CONTINUOUS
10
161.233
20
-66.1954
11
161.649
21
-66.6385
0
LINE
8
BLACK
6
CONTINUOUS
10
161.649
20
-66.6385
11
162.162
21
-66.9642
0
LINE
8
BLACK
6
CONTINUOUS
10
162.162
20
-66.9642
11
162.741
21
-67.152
0
LINE
8
BLACK
6
CONTINUOUS
10
162.741
20
-67.152
11
163.347
21
-67.1902
0
LINE
8
BLACK
6
CONTINUOUS
10
163.347
20
-67.1902
11
163.944
21
-67.0763
0
LINE
8
BLACK
6
CONTINUOUS
10
163.944
20
-67.0763
11
164.494
21
-66.8175
0
LINE
8
BLACK
6
CONTINUOUS
10
164.494
20
-66.8175
11
164.963
21
-66.43
0
LINE
8
BLACK
6
CONTINUOUS
10
164.963
20
-66.43
11
165.32
21
-65.9383
0
LINE
8
BLACK
6
CONTINUOUS
10
165.32
20
-65.9383
11
165.544
21
-65.3731
0
LINE
8
BLACK
6
CONTINUOUS
10
165.544
20
-65.3731
11
165.62
21
-64.77
0
LINE
8
BLACK
6
CONTINUOUS
10
165.62
20
-64.77
11
165.544
21
-64.1669
0
LINE
8
BLACK
6
CONTINUOUS
10
165.544
20
-64.1669
11
165.32
21
-63.6017
  0
ENDSEC
  0
EOF
