M48
;DRILL file {KiCad (5.0.2)-1} date 2019/03/26 19:22:58
;FORMAT={-:-/ absolute / metric / decimal}
FMAT,2
METRIC,TZ
T1C0.400
%
G90
G05
T1
X143.441Y-165.285
X88.67Y-101.275
X114.149Y-93.508
X143.441Y-162.885
X73.031Y-101.237
X118.949Y-93.508
X143.441Y-161.685
X115.329Y-101.27
X116.529Y-101.27
X114.129Y-101.27
X72.592Y-93.53
X145.153Y-159.885
X151.709Y-134.353
X149.998Y-134.909
X143.441Y-159.885
X71.231Y-101.237
X115.949Y-93.508
X143.441Y-163.485
X88.07Y-101.275
X118.329Y-101.27
X150.362Y-135.679
X112.349Y-93.508
X113.529Y-101.27
X145.153Y-161.685
X145.153Y-165.285
X151.139Y-134.538
X152.28Y-134.168
X90.47Y-101.275
X143.441Y-160.485
X71.831Y-101.237
X117.149Y-93.508
X143.441Y-164.685
X89.27Y-101.275
X112.949Y-93.508
X143.441Y-161.085
X115.929Y-101.27
X118.929Y-101.27
X145.153Y-163.485
X145.153Y-162.885
X145.153Y-161.085
X153.992Y-133.611
X153.215Y-134.752
X90.134Y-93.505
X143.441Y-164.085
X89.534Y-93.505
X115.349Y-93.508
X154.356Y-134.381
X87.47Y-101.275
X116.549Y-93.508
X113.549Y-93.508
X112.329Y-101.27
X145.153Y-160.485
X71.392Y-93.53
X72.431Y-101.237
X149.427Y-135.095
X88.934Y-93.505
X143.441Y-159.285
X73.631Y-101.237
X118.349Y-93.508
X151.503Y-135.308
X89.87Y-101.275
X119.549Y-93.508
X114.729Y-101.27
X120.129Y-101.27
X74.392Y-93.53
X145.153Y-164.685
X71.992Y-93.53
X149.791Y-135.864
X150.568Y-134.724
X153.421Y-133.797
X120.149Y-93.508
X150.932Y-135.493
X88.334Y-93.505
X114.749Y-93.508
X143.441Y-162.285
X74.231Y-101.237
X117.129Y-101.27
X117.729Y-101.27
X120.729Y-101.27
X73.792Y-93.53
X145.153Y-164.085
X145.153Y-162.285
X145.153Y-158.685
X152.851Y-133.982
X149.22Y-136.05
X143.441Y-158.685
X87.734Y-93.505
X152.644Y-134.937
X87.134Y-93.505
X117.749Y-93.508
X153.785Y-134.566
X120.749Y-93.508
X119.529Y-101.27
X112.929Y-101.27
X73.192Y-93.53
X145.153Y-159.285
X148.856Y-135.28
X152.073Y-135.123
T0
M30
